%TF.GenerationSoftware,KiCad,Pcbnew,9.0.0-rc3*%
%TF.CreationDate,2026-03-03T21:45:30+01:00*%
%TF.ProjectId,powerbank,706f7765-7262-4616-9e6b-2e6b69636164,rev?*%
%TF.SameCoordinates,Original*%
%TF.FileFunction,Soldermask,Top*%
%TF.FilePolarity,Negative*%
%FSLAX46Y46*%
G04 Gerber Fmt 4.6, Leading zero omitted, Abs format (unit mm)*
G04 Created by KiCad (PCBNEW 9.0.0-rc3) date 2026-03-03 21:45:30*
%MOMM*%
%LPD*%
G01*
G04 APERTURE LIST*
G04 Aperture macros list*
%AMRoundRect*
0 Rectangle with rounded corners*
0 $1 Rounding radius*
0 $2 $3 $4 $5 $6 $7 $8 $9 X,Y pos of 4 corners*
0 Add a 4 corners polygon primitive as box body*
4,1,4,$2,$3,$4,$5,$6,$7,$8,$9,$2,$3,0*
0 Add four circle primitives for the rounded corners*
1,1,$1+$1,$2,$3*
1,1,$1+$1,$4,$5*
1,1,$1+$1,$6,$7*
1,1,$1+$1,$8,$9*
0 Add four rect primitives between the rounded corners*
20,1,$1+$1,$2,$3,$4,$5,0*
20,1,$1+$1,$4,$5,$6,$7,0*
20,1,$1+$1,$6,$7,$8,$9,0*
20,1,$1+$1,$8,$9,$2,$3,0*%
G04 Aperture macros list end*
%ADD10RoundRect,0.250000X-0.262500X-0.450000X0.262500X-0.450000X0.262500X0.450000X-0.262500X0.450000X0*%
%ADD11RoundRect,0.250000X-0.250000X-0.475000X0.250000X-0.475000X0.250000X0.475000X-0.250000X0.475000X0*%
%ADD12RoundRect,0.250000X-1.000000X-0.650000X1.000000X-0.650000X1.000000X0.650000X-1.000000X0.650000X0*%
%ADD13RoundRect,0.150000X-0.512500X-0.150000X0.512500X-0.150000X0.512500X0.150000X-0.512500X0.150000X0*%
%ADD14R,1.600000X1.500000*%
%ADD15C,1.600000*%
%ADD16C,3.000000*%
%ADD17R,1.500000X2.200000*%
%ADD18RoundRect,1.625000X2.625000X-1.625000X2.625000X1.625000X-2.625000X1.625000X-2.625000X-1.625000X0*%
%ADD19C,6.500000*%
%ADD20R,0.977900X0.558800*%
%ADD21C,0.650000*%
%ADD22R,0.600000X1.450000*%
%ADD23R,0.300000X1.450000*%
%ADD24O,1.000000X2.100000*%
%ADD25O,1.000000X1.600000*%
G04 APERTURE END LIST*
D10*
%TO.C,R8*%
X123343650Y-118000000D03*
X125168650Y-118000000D03*
%TD*%
%TO.C,R1*%
X123343650Y-96183499D03*
X125168650Y-96183499D03*
%TD*%
%TO.C,R3*%
X123343650Y-99133499D03*
X125168650Y-99133499D03*
%TD*%
D11*
%TO.C,C1*%
X118876150Y-96213499D03*
X120776150Y-96213499D03*
%TD*%
D12*
%TO.C,D4*%
X111581150Y-110633499D03*
X115581150Y-110633499D03*
%TD*%
%TO.C,D3*%
X111581150Y-106083499D03*
X115581150Y-106083499D03*
%TD*%
D13*
%TO.C,U1*%
X161362500Y-101550000D03*
X161362500Y-102500000D03*
X161362500Y-103450000D03*
X163637500Y-103450000D03*
X163637500Y-102500000D03*
X163637500Y-101550000D03*
%TD*%
D11*
%TO.C,C4*%
X151550000Y-106000000D03*
X153450000Y-106000000D03*
%TD*%
%TO.C,C3*%
X118876150Y-102233499D03*
X120776150Y-102233499D03*
%TD*%
D10*
%TO.C,R6*%
X123343650Y-107983499D03*
X125168650Y-107983499D03*
%TD*%
D12*
%TO.C,D5*%
X111581150Y-115183499D03*
X115581150Y-115183499D03*
%TD*%
D11*
%TO.C,C6*%
X118600000Y-106500000D03*
X120500000Y-106500000D03*
%TD*%
%TO.C,C7*%
X118876150Y-117500000D03*
X120776150Y-117500000D03*
%TD*%
D14*
%TO.C,J2*%
X131500000Y-120500000D03*
D15*
X134000000Y-120500000D03*
X136000000Y-120500000D03*
X138500000Y-120500000D03*
D16*
X128430000Y-123210000D03*
X141570000Y-123210000D03*
%TD*%
D10*
%TO.C,R7*%
X123343650Y-110000000D03*
X125168650Y-110000000D03*
%TD*%
%TO.C,R4*%
X123343650Y-102083499D03*
X125168650Y-102083499D03*
%TD*%
D17*
%TO.C,L1*%
X151800000Y-111000000D03*
X158200000Y-111000000D03*
%TD*%
D18*
%TO.C,BT1*%
X117261150Y-59958499D03*
D19*
X117261150Y-70958499D03*
%TD*%
D12*
%TO.C,D1*%
X111581150Y-96983499D03*
X115581150Y-96983499D03*
%TD*%
D13*
%TO.C,U3*%
X144362500Y-105050000D03*
X144362500Y-106000000D03*
X144362500Y-106950000D03*
X146637500Y-106950000D03*
X146637500Y-106000000D03*
X146637500Y-105050000D03*
%TD*%
D11*
%TO.C,C5*%
X118876150Y-104500000D03*
X120776150Y-104500000D03*
%TD*%
D12*
%TO.C,D2*%
X111581150Y-101533499D03*
X115581150Y-101533499D03*
%TD*%
D13*
%TO.C,U2*%
X146098650Y-100783499D03*
X146098650Y-101733499D03*
X146098650Y-102683499D03*
X148373650Y-102683499D03*
X148373650Y-101733499D03*
X148373650Y-100783499D03*
%TD*%
D11*
%TO.C,C2*%
X118876150Y-99223499D03*
X120776150Y-99223499D03*
%TD*%
D20*
%TO.C,Q1*%
X162820300Y-96099998D03*
X162820300Y-97049999D03*
X162820300Y-98000000D03*
X165500000Y-98000000D03*
X165500000Y-97049999D03*
X165500000Y-96099998D03*
%TD*%
D10*
%TO.C,R5*%
X123343650Y-105033499D03*
X125168650Y-105033499D03*
%TD*%
D21*
%TO.C,J1*%
X156110000Y-126900000D03*
X161890000Y-126900000D03*
D22*
X155750000Y-125455000D03*
X156550000Y-125455000D03*
D23*
X157750000Y-125455000D03*
X158750000Y-125455000D03*
X159250000Y-125455000D03*
X160250000Y-125455000D03*
D22*
X161450000Y-125455000D03*
X162250000Y-125455000D03*
X162250000Y-125455000D03*
X161450000Y-125455000D03*
D23*
X160750000Y-125455000D03*
X159750000Y-125455000D03*
X158250000Y-125455000D03*
X157250000Y-125455000D03*
D22*
X156550000Y-125455000D03*
X155750000Y-125455000D03*
D24*
X154680000Y-126370000D03*
D25*
X154680000Y-130550000D03*
D24*
X163320000Y-126370000D03*
D25*
X163320000Y-130550000D03*
%TD*%
M02*
