M48
; DRILL file {KiCad 9.0.0-rc3} date 2026-03-03T21:46:30+0100
; FORMAT={-:-/ absolute / metric / decimal}
; #@! TF.CreationDate,2026-03-03T21:46:30+01:00
; #@! TF.GenerationSoftware,Kicad,Pcbnew,9.0.0-rc3
; #@! TF.FileFunction,Plated,1,2,PTH
FMAT,2
METRIC
; #@! TA.AperFunction,Plated,PTH,ViaDrill
T1C0.300
; #@! TA.AperFunction,Plated,PTH,ComponentDrill
T2C0.600
; #@! TA.AperFunction,Plated,PTH,ComponentDrill
T3C0.950
; #@! TA.AperFunction,Plated,PTH,ComponentDrill
T4C2.300
%
G90
G05
T1
X116.0Y-95.0
X117.0Y-95.0
X117.5Y-100.0
X117.5Y-105.0
X118.0Y-96.5
X118.0Y-97.5
X118.0Y-100.5
X118.0Y-103.4
X119.0Y-94.5
X119.0Y-101.0
X120.5Y-104.0
X120.776Y-99.223
X121.98Y-103.009
X121.991Y-101.135
X122.0Y-99.5
X122.5Y-110.5
X123.0Y-116.0
X124.0Y-94.5
X124.5Y-102.0
X125.0Y-106.5
X125.0Y-116.0
X125.169Y-99.133
X126.0Y-104.4
X126.5Y-102.484
X128.0Y-95.5
X132.5Y-98.5
X135.5Y-78.5
X137.0Y-78.5
X138.5Y-78.5
X140.0Y-111.0
X143.0Y-105.65
X144.0Y-103.0
X145.0Y-99.0
X145.926Y-106.179
X146.099Y-102.683
X147.0Y-104.0
X147.5Y-100.0
X148.0Y-105.0
X150.0Y-100.0
X152.5Y-108.0
X155.486Y-127.514
X156.0Y-129.6
X157.5Y-127.0
X157.5Y-128.0
X158.0Y-116.0
X160.0Y-103.0
X160.5Y-98.5
X161.0Y-96.12
X162.0Y-128.0
X162.5Y-100.5
X164.0Y-97.98
X165.5Y-95.0
T3
X131.5Y-120.5
X134.0Y-120.5
X136.0Y-120.5
X138.5Y-120.5
T4
X128.43Y-123.21
X141.57Y-123.21
T2
G00X154.68Y-125.82
M15
G01X154.68Y-126.92
M16
G05
G00X154.68Y-130.25
M15
G01X154.68Y-130.85
M16
G05
G00X163.32Y-125.82
M15
G01X163.32Y-126.92
M16
G05
G00X163.32Y-130.25
M15
G01X163.32Y-130.85
M16
G05
M30
