%TF.GenerationSoftware,KiCad,Pcbnew,9.0.0-rc3*%
%TF.CreationDate,2026-03-03T21:45:30+01:00*%
%TF.ProjectId,powerbank,706f7765-7262-4616-9e6b-2e6b69636164,rev?*%
%TF.SameCoordinates,Original*%
%TF.FileFunction,Copper,L2,Bot*%
%TF.FilePolarity,Positive*%
%FSLAX46Y46*%
G04 Gerber Fmt 4.6, Leading zero omitted, Abs format (unit mm)*
G04 Created by KiCad (PCBNEW 9.0.0-rc3) date 2026-03-03 21:45:30*
%MOMM*%
%LPD*%
G01*
G04 APERTURE LIST*
%TA.AperFunction,ComponentPad*%
%ADD10R,1.600000X1.500000*%
%TD*%
%TA.AperFunction,ComponentPad*%
%ADD11C,1.600000*%
%TD*%
%TA.AperFunction,ComponentPad*%
%ADD12C,3.000000*%
%TD*%
%TA.AperFunction,HeatsinkPad*%
%ADD13O,1.000000X2.100000*%
%TD*%
%TA.AperFunction,HeatsinkPad*%
%ADD14O,1.000000X1.600000*%
%TD*%
%TA.AperFunction,ViaPad*%
%ADD15C,0.600000*%
%TD*%
%TA.AperFunction,Conductor*%
%ADD16C,0.200000*%
%TD*%
G04 APERTURE END LIST*
D10*
%TO.P,J2,1,VBUS*%
%TO.N,GND*%
X131500000Y-120500000D03*
D11*
%TO.P,J2,2,D-*%
%TO.N,Net-(J2-D+)*%
X134000000Y-120500000D03*
%TO.P,J2,3,D+*%
X136000000Y-120500000D03*
%TO.P,J2,4,GND*%
%TO.N,GND*%
X138500000Y-120500000D03*
D12*
%TO.P,J2,5,Shield*%
%TO.N,unconnected-(J2-Shield-Pad5)*%
X128430000Y-123210000D03*
X141570000Y-123210000D03*
%TD*%
D13*
%TO.P,J1,S1,SHIELD*%
%TO.N,Net-(J1-SHIELD)*%
X154680000Y-126370000D03*
D14*
X154680000Y-130550000D03*
D13*
X163320000Y-126370000D03*
D14*
X163320000Y-130550000D03*
%TD*%
D15*
%TO.N,GND*%
X118000000Y-103400000D03*
X126000000Y-104400000D03*
X124500000Y-102000000D03*
X126500000Y-102484499D03*
X117500000Y-100000000D03*
X118000000Y-100500000D03*
X160500000Y-98500000D03*
X121990784Y-101135498D03*
X119000000Y-101000000D03*
X120776150Y-99223499D03*
X121980227Y-103008628D03*
X117000000Y-95000000D03*
X118000000Y-96500000D03*
X125000000Y-116000000D03*
X122000000Y-99500000D03*
X135500000Y-78500000D03*
X116000000Y-95000000D03*
X158000000Y-116000000D03*
X122500000Y-110500000D03*
X160000000Y-103000000D03*
X118000000Y-97500000D03*
X138500000Y-78500000D03*
X125168650Y-99133499D03*
X137000000Y-78500000D03*
%TO.N,Net-(U1-PROG)*%
X124000000Y-94500000D03*
X162500000Y-100500000D03*
%TO.N,Net-(BT1-+)*%
X145926000Y-106178842D03*
X128000000Y-95500000D03*
%TO.N,Net-(J1-CC1)*%
X157500000Y-127000000D03*
X140000000Y-111000000D03*
%TO.N,Net-(J1-CC2)*%
X125000000Y-106500000D03*
X157500000Y-128000000D03*
%TO.N,Net-(D1-A)*%
X150000000Y-100000000D03*
X147500000Y-100000000D03*
X119000000Y-94500000D03*
X152500000Y-108000000D03*
%TO.N,Net-(U2-FB)*%
X146098650Y-102683499D03*
X144000000Y-103000000D03*
%TO.N,Net-(C5-Pad2)*%
X123000000Y-116000000D03*
X120500000Y-104000000D03*
%TO.N,Net-(BT1--)*%
X145000000Y-99000000D03*
X147000000Y-104000000D03*
X148000000Y-105000000D03*
X164000000Y-97980400D03*
%TO.N,Net-(U3-OD)*%
X161000000Y-96119598D03*
X165500000Y-95000000D03*
%TO.N,Net-(J1-SHIELD)*%
X162000000Y-128000000D03*
X156000000Y-129600000D03*
X155486189Y-127513584D03*
X117500000Y-105000000D03*
%TO.N,Net-(U3-CS)*%
X132500000Y-98500000D03*
X143000000Y-105650000D03*
%TD*%
D16*
%TO.N,GND*%
X119052651Y-97500000D02*
X120776150Y-99223499D01*
X160500000Y-98500000D02*
X160000000Y-99000000D01*
X125000000Y-116000000D02*
X122500000Y-113500000D01*
X121990784Y-99509216D02*
X122000000Y-99500000D01*
X124500000Y-102000000D02*
X124500000Y-99802149D01*
X122500000Y-113500000D02*
X122500000Y-110500000D01*
X118391372Y-103008628D02*
X118000000Y-103400000D01*
X124500000Y-99802149D02*
X125168650Y-99133499D01*
X121990784Y-101135498D02*
X121990784Y-99509216D01*
X126000000Y-102984499D02*
X126000000Y-104400000D01*
X126500000Y-102484499D02*
X126000000Y-102984499D01*
X160000000Y-99000000D02*
X160000000Y-103000000D01*
X158000000Y-116000000D02*
X158000000Y-105000000D01*
X118000000Y-97500000D02*
X119052651Y-97500000D01*
X158000000Y-105000000D02*
X160000000Y-103000000D01*
X121980227Y-103008628D02*
X118391372Y-103008628D01*
%TO.N,Net-(U1-PROG)*%
X162500000Y-99650057D02*
X157349943Y-94500000D01*
X162500000Y-100500000D02*
X162500000Y-99650057D01*
X157349943Y-94500000D02*
X124000000Y-94500000D01*
%TO.N,Net-(BT1-+)*%
X145726000Y-106378842D02*
X138878842Y-106378842D01*
X138878842Y-106378842D02*
X128000000Y-95500000D01*
X145926000Y-106178842D02*
X145726000Y-106378842D01*
%TO.N,Net-(J1-CC1)*%
X140000000Y-111000000D02*
X141500000Y-111000000D01*
X141500000Y-111000000D02*
X157500000Y-127000000D01*
%TO.N,Net-(J1-CC2)*%
X163651785Y-125019000D02*
X164121000Y-125488215D01*
X163651785Y-131651000D02*
X152557999Y-131651000D01*
X164121000Y-125488215D02*
X164121000Y-131181785D01*
X164121000Y-131181785D02*
X163651785Y-131651000D01*
X126000000Y-105500000D02*
X125000000Y-106500000D01*
X126406999Y-105500000D02*
X126000000Y-105500000D01*
X152557999Y-131651000D02*
X126406999Y-105500000D01*
X160481000Y-125019000D02*
X163651785Y-125019000D01*
X157500000Y-128000000D02*
X160481000Y-125019000D01*
%TO.N,Net-(D1-A)*%
X147248943Y-104601000D02*
X147601000Y-104248943D01*
X147601000Y-100101000D02*
X147500000Y-100000000D01*
X146174943Y-106779842D02*
X147248943Y-105705842D01*
X119000000Y-94500000D02*
X123150057Y-94500000D01*
X147248943Y-105705842D02*
X147248943Y-104601000D01*
X150000000Y-105500000D02*
X150000000Y-100000000D01*
X152500000Y-108000000D02*
X150000000Y-105500000D01*
X147601000Y-104248943D02*
X147601000Y-100101000D01*
X123150057Y-94500000D02*
X135429899Y-106779842D01*
X135429899Y-106779842D02*
X146174943Y-106779842D01*
%TO.N,Net-(U2-FB)*%
X144000000Y-103000000D02*
X145782149Y-103000000D01*
X145782149Y-103000000D02*
X146098650Y-102683499D01*
%TO.N,Net-(C5-Pad2)*%
X116899000Y-104751057D02*
X117650057Y-104000000D01*
X123000000Y-116000000D02*
X116899000Y-109899000D01*
X116899000Y-109899000D02*
X116899000Y-104751057D01*
X117650057Y-104000000D02*
X120500000Y-104000000D01*
%TO.N,Net-(BT1--)*%
X148000000Y-106849943D02*
X148000000Y-105000000D01*
X147000000Y-101000000D02*
X147000000Y-104000000D01*
X145000000Y-99000000D02*
X147000000Y-101000000D01*
X158248943Y-116601000D02*
X157751057Y-116601000D01*
X164000000Y-110849943D02*
X158248943Y-116601000D01*
X164000000Y-97980400D02*
X164000000Y-110849943D01*
X157751057Y-116601000D02*
X148000000Y-106849943D01*
%TO.N,Net-(U3-OD)*%
X162119598Y-95000000D02*
X165500000Y-95000000D01*
X161000000Y-96119598D02*
X162119598Y-95000000D01*
%TO.N,Net-(J1-SHIELD)*%
X156000000Y-129600000D02*
X154680000Y-128280000D01*
X154680000Y-128280000D02*
X154680000Y-126370000D01*
X162000000Y-128000000D02*
X162000000Y-130000000D01*
X162000000Y-130000000D02*
X161450000Y-130550000D01*
X155486189Y-127513584D02*
X132972605Y-105000000D01*
X162550000Y-130550000D02*
X163320000Y-130550000D01*
X161450000Y-130550000D02*
X154680000Y-130550000D01*
X162000000Y-130000000D02*
X162550000Y-130550000D01*
X132972605Y-105000000D02*
X117500000Y-105000000D01*
%TO.N,Net-(U3-CS)*%
X139650000Y-105650000D02*
X132500000Y-98500000D01*
X143000000Y-105650000D02*
X139650000Y-105650000D01*
%TD*%
%TA.AperFunction,Conductor*%
%TO.N,GND*%
G36*
X191442539Y-25520185D02*
G01*
X191488294Y-25572989D01*
X191499500Y-25624500D01*
X191499500Y-132875500D01*
X191479815Y-132942539D01*
X191427011Y-132988294D01*
X191375500Y-132999500D01*
X101624500Y-132999500D01*
X101557461Y-132979815D01*
X101511706Y-132927011D01*
X101500500Y-132875500D01*
X101500500Y-123095258D01*
X126679500Y-123095258D01*
X126679500Y-123324741D01*
X126704446Y-123514215D01*
X126709452Y-123552238D01*
X126709453Y-123552240D01*
X126768842Y-123773887D01*
X126856650Y-123985876D01*
X126856657Y-123985890D01*
X126971392Y-124184617D01*
X127111081Y-124366661D01*
X127111089Y-124366670D01*
X127273330Y-124528911D01*
X127273338Y-124528918D01*
X127455382Y-124668607D01*
X127455385Y-124668608D01*
X127455388Y-124668611D01*
X127654112Y-124783344D01*
X127654117Y-124783346D01*
X127654123Y-124783349D01*
X127745480Y-124821190D01*
X127866113Y-124871158D01*
X128087762Y-124930548D01*
X128315266Y-124960500D01*
X128315273Y-124960500D01*
X128544727Y-124960500D01*
X128544734Y-124960500D01*
X128772238Y-124930548D01*
X128993887Y-124871158D01*
X129205888Y-124783344D01*
X129404612Y-124668611D01*
X129586661Y-124528919D01*
X129586665Y-124528914D01*
X129586670Y-124528911D01*
X129748911Y-124366670D01*
X129748914Y-124366665D01*
X129748919Y-124366661D01*
X129888611Y-124184612D01*
X130003344Y-123985888D01*
X130091158Y-123773887D01*
X130150548Y-123552238D01*
X130180500Y-123324734D01*
X130180500Y-123095266D01*
X130150548Y-122867762D01*
X130091158Y-122646113D01*
X130003344Y-122434112D01*
X129888611Y-122235388D01*
X129888608Y-122235385D01*
X129888607Y-122235382D01*
X129748918Y-122053338D01*
X129748911Y-122053330D01*
X129586670Y-121891089D01*
X129586661Y-121891081D01*
X129404617Y-121751392D01*
X129391117Y-121743598D01*
X129205888Y-121636656D01*
X129205876Y-121636650D01*
X128993887Y-121548842D01*
X128772238Y-121489452D01*
X128734215Y-121484446D01*
X128544741Y-121459500D01*
X128544734Y-121459500D01*
X128315266Y-121459500D01*
X128315258Y-121459500D01*
X128100971Y-121487713D01*
X128087762Y-121489452D01*
X128077932Y-121492086D01*
X127866112Y-121548842D01*
X127654123Y-121636650D01*
X127654109Y-121636657D01*
X127455382Y-121751392D01*
X127273338Y-121891081D01*
X127111081Y-122053338D01*
X126971392Y-122235382D01*
X126856657Y-122434109D01*
X126856650Y-122434123D01*
X126768842Y-122646112D01*
X126709453Y-122867759D01*
X126709451Y-122867770D01*
X126679500Y-123095258D01*
X101500500Y-123095258D01*
X101500500Y-119702155D01*
X130200000Y-119702155D01*
X130200000Y-120250000D01*
X131095854Y-120250000D01*
X131057370Y-120316657D01*
X131025000Y-120437465D01*
X131025000Y-120562535D01*
X131057370Y-120683343D01*
X131095854Y-120750000D01*
X130200000Y-120750000D01*
X130200000Y-121297844D01*
X130206401Y-121357372D01*
X130206403Y-121357379D01*
X130256645Y-121492086D01*
X130256649Y-121492093D01*
X130342809Y-121607187D01*
X130342812Y-121607190D01*
X130457906Y-121693350D01*
X130457913Y-121693354D01*
X130592620Y-121743596D01*
X130592627Y-121743598D01*
X130652155Y-121749999D01*
X130652172Y-121750000D01*
X131250000Y-121750000D01*
X131250000Y-120904145D01*
X131316657Y-120942630D01*
X131437465Y-120975000D01*
X131562535Y-120975000D01*
X131683343Y-120942630D01*
X131750000Y-120904145D01*
X131750000Y-121750000D01*
X132347828Y-121750000D01*
X132347844Y-121749999D01*
X132407372Y-121743598D01*
X132407379Y-121743596D01*
X132542086Y-121693354D01*
X132542093Y-121693350D01*
X132657187Y-121607190D01*
X132657190Y-121607187D01*
X132743350Y-121492093D01*
X132743354Y-121492086D01*
X132793596Y-121357379D01*
X132793598Y-121357372D01*
X132799999Y-121297844D01*
X132800000Y-121297827D01*
X132800000Y-120971422D01*
X132819685Y-120904383D01*
X132872489Y-120858628D01*
X132941647Y-120848684D01*
X133005203Y-120877709D01*
X133038561Y-120923970D01*
X133069056Y-120997594D01*
X133184024Y-121169657D01*
X133330342Y-121315975D01*
X133330345Y-121315977D01*
X133502402Y-121430941D01*
X133693580Y-121510130D01*
X133888200Y-121548842D01*
X133896530Y-121550499D01*
X133896534Y-121550500D01*
X133896535Y-121550500D01*
X134103466Y-121550500D01*
X134103467Y-121550499D01*
X134306420Y-121510130D01*
X134497598Y-121430941D01*
X134669655Y-121315977D01*
X134815977Y-121169655D01*
X134896898Y-121048546D01*
X134950509Y-121003742D01*
X135019834Y-120995035D01*
X135082862Y-121025189D01*
X135103100Y-121048545D01*
X135152924Y-121123112D01*
X135184024Y-121169657D01*
X135330342Y-121315975D01*
X135330345Y-121315977D01*
X135502402Y-121430941D01*
X135693580Y-121510130D01*
X135888200Y-121548842D01*
X135896530Y-121550499D01*
X135896534Y-121550500D01*
X135896535Y-121550500D01*
X136103466Y-121550500D01*
X136103467Y-121550499D01*
X136306420Y-121510130D01*
X136497598Y-121430941D01*
X136669655Y-121315977D01*
X136815977Y-121169655D01*
X136930941Y-120997598D01*
X136940302Y-120975000D01*
X136969552Y-120904383D01*
X137006211Y-120815880D01*
X137050051Y-120761478D01*
X137116345Y-120739413D01*
X137184044Y-120756692D01*
X137231655Y-120807829D01*
X137238702Y-120825015D01*
X137295244Y-120999031D01*
X137388141Y-121181350D01*
X137388147Y-121181359D01*
X137420523Y-121225921D01*
X137420524Y-121225922D01*
X138037449Y-120608997D01*
X138057370Y-120683343D01*
X138119905Y-120791657D01*
X138208343Y-120880095D01*
X138316657Y-120942630D01*
X138391002Y-120962550D01*
X137774076Y-121579474D01*
X137818650Y-121611859D01*
X138000968Y-121704755D01*
X138195582Y-121767990D01*
X138397683Y-121800000D01*
X138602317Y-121800000D01*
X138804417Y-121767990D01*
X138999031Y-121704755D01*
X139181349Y-121611859D01*
X139225921Y-121579474D01*
X138608997Y-120962550D01*
X138683343Y-120942630D01*
X138791657Y-120880095D01*
X138880095Y-120791657D01*
X138942630Y-120683343D01*
X138962550Y-120608997D01*
X139579474Y-121225921D01*
X139611859Y-121181349D01*
X139704755Y-120999031D01*
X139767990Y-120804417D01*
X139800000Y-120602317D01*
X139800000Y-120397682D01*
X139767990Y-120195582D01*
X139704755Y-120000968D01*
X139611859Y-119818650D01*
X139579474Y-119774077D01*
X139579474Y-119774076D01*
X138962550Y-120391001D01*
X138942630Y-120316657D01*
X138880095Y-120208343D01*
X138791657Y-120119905D01*
X138683343Y-120057370D01*
X138608996Y-120037449D01*
X139225922Y-119420524D01*
X139225921Y-119420523D01*
X139181359Y-119388147D01*
X139181350Y-119388141D01*
X138999031Y-119295244D01*
X138804417Y-119232009D01*
X138602317Y-119200000D01*
X138397683Y-119200000D01*
X138195582Y-119232009D01*
X138000968Y-119295244D01*
X137818644Y-119388143D01*
X137774077Y-119420523D01*
X137774077Y-119420524D01*
X138391003Y-120037449D01*
X138316657Y-120057370D01*
X138208343Y-120119905D01*
X138119905Y-120208343D01*
X138057370Y-120316657D01*
X138037449Y-120391002D01*
X137420524Y-119774077D01*
X137420523Y-119774077D01*
X137388143Y-119818644D01*
X137295244Y-120000968D01*
X137238702Y-120174984D01*
X137199264Y-120232659D01*
X137134905Y-120259857D01*
X137066058Y-120247942D01*
X137014583Y-120200697D01*
X137006213Y-120184125D01*
X136930941Y-120002402D01*
X136815977Y-119830345D01*
X136815975Y-119830342D01*
X136669657Y-119684024D01*
X136500332Y-119570886D01*
X136497598Y-119569059D01*
X136349962Y-119507906D01*
X136306420Y-119489870D01*
X136306412Y-119489868D01*
X136103469Y-119449500D01*
X136103465Y-119449500D01*
X135896535Y-119449500D01*
X135896530Y-119449500D01*
X135693587Y-119489868D01*
X135693579Y-119489870D01*
X135502403Y-119569058D01*
X135330342Y-119684024D01*
X135184025Y-119830341D01*
X135184019Y-119830349D01*
X135103102Y-119951451D01*
X135049490Y-119996257D01*
X134980165Y-120004964D01*
X134917138Y-119974810D01*
X134896898Y-119951451D01*
X134815980Y-119830349D01*
X134815974Y-119830341D01*
X134669657Y-119684024D01*
X134500332Y-119570886D01*
X134497598Y-119569059D01*
X134349962Y-119507906D01*
X134306420Y-119489870D01*
X134306412Y-119489868D01*
X134103469Y-119449500D01*
X134103465Y-119449500D01*
X133896535Y-119449500D01*
X133896530Y-119449500D01*
X133693587Y-119489868D01*
X133693579Y-119489870D01*
X133502403Y-119569058D01*
X133330342Y-119684024D01*
X133184024Y-119830342D01*
X133069057Y-120002403D01*
X133038561Y-120076030D01*
X132994720Y-120130433D01*
X132928426Y-120152498D01*
X132860726Y-120135219D01*
X132813116Y-120084081D01*
X132800000Y-120028577D01*
X132800000Y-119702172D01*
X132799999Y-119702155D01*
X132793598Y-119642627D01*
X132793596Y-119642620D01*
X132743354Y-119507913D01*
X132743350Y-119507906D01*
X132657190Y-119392812D01*
X132657187Y-119392809D01*
X132542093Y-119306649D01*
X132542086Y-119306645D01*
X132407379Y-119256403D01*
X132407372Y-119256401D01*
X132347844Y-119250000D01*
X131750000Y-119250000D01*
X131750000Y-120095854D01*
X131683343Y-120057370D01*
X131562535Y-120025000D01*
X131437465Y-120025000D01*
X131316657Y-120057370D01*
X131250000Y-120095854D01*
X131250000Y-119250000D01*
X130652155Y-119250000D01*
X130592627Y-119256401D01*
X130592620Y-119256403D01*
X130457913Y-119306645D01*
X130457906Y-119306649D01*
X130342812Y-119392809D01*
X130342809Y-119392812D01*
X130256649Y-119507906D01*
X130256645Y-119507913D01*
X130206403Y-119642620D01*
X130206401Y-119642627D01*
X130200000Y-119702155D01*
X101500500Y-119702155D01*
X101500500Y-104704913D01*
X116548500Y-104704913D01*
X116548500Y-104715756D01*
X116548500Y-109945143D01*
X116572386Y-110034287D01*
X116572387Y-110034290D01*
X116618527Y-110114208D01*
X116618531Y-110114213D01*
X122413181Y-115908863D01*
X122446666Y-115970186D01*
X122449500Y-115996544D01*
X122449500Y-116072475D01*
X122487016Y-116212485D01*
X122487017Y-116212488D01*
X122559488Y-116338011D01*
X122559490Y-116338013D01*
X122559491Y-116338015D01*
X122661985Y-116440509D01*
X122661986Y-116440510D01*
X122661988Y-116440511D01*
X122787511Y-116512982D01*
X122787512Y-116512982D01*
X122787515Y-116512984D01*
X122927525Y-116550500D01*
X122927528Y-116550500D01*
X123072472Y-116550500D01*
X123072475Y-116550500D01*
X123212485Y-116512984D01*
X123338015Y-116440509D01*
X123440509Y-116338015D01*
X123512984Y-116212485D01*
X123550500Y-116072475D01*
X123550500Y-115927525D01*
X123512984Y-115787515D01*
X123440509Y-115661985D01*
X123338015Y-115559491D01*
X123338013Y-115559490D01*
X123338011Y-115559488D01*
X123212488Y-115487017D01*
X123212489Y-115487017D01*
X123201006Y-115483940D01*
X123072475Y-115449500D01*
X123072472Y-115449500D01*
X122996544Y-115449500D01*
X122929505Y-115429815D01*
X122908863Y-115413181D01*
X117285819Y-109790137D01*
X117252334Y-109728814D01*
X117249500Y-109702456D01*
X117249500Y-105664397D01*
X117269185Y-105597358D01*
X117321989Y-105551603D01*
X117391147Y-105541659D01*
X117405575Y-105544618D01*
X117427525Y-105550500D01*
X117427528Y-105550500D01*
X117572472Y-105550500D01*
X117572475Y-105550500D01*
X117712485Y-105512984D01*
X117838015Y-105440509D01*
X117891705Y-105386819D01*
X117953028Y-105353334D01*
X117979386Y-105350500D01*
X125354456Y-105350500D01*
X125421495Y-105370185D01*
X125467250Y-105422989D01*
X125477194Y-105492147D01*
X125448169Y-105555703D01*
X125442137Y-105562181D01*
X125091137Y-105913181D01*
X125029814Y-105946666D01*
X125003456Y-105949500D01*
X124927525Y-105949500D01*
X124798993Y-105983940D01*
X124787511Y-105987017D01*
X124661988Y-106059488D01*
X124661982Y-106059493D01*
X124559493Y-106161982D01*
X124559488Y-106161988D01*
X124487017Y-106287511D01*
X124487016Y-106287515D01*
X124449500Y-106427525D01*
X124449500Y-106572475D01*
X124487016Y-106712485D01*
X124487017Y-106712488D01*
X124559488Y-106838011D01*
X124559490Y-106838013D01*
X124559491Y-106838015D01*
X124661985Y-106940509D01*
X124661986Y-106940510D01*
X124661988Y-106940511D01*
X124787511Y-107012982D01*
X124787512Y-107012982D01*
X124787515Y-107012984D01*
X124927525Y-107050500D01*
X124927528Y-107050500D01*
X125072472Y-107050500D01*
X125072475Y-107050500D01*
X125212485Y-107012984D01*
X125338015Y-106940509D01*
X125440509Y-106838015D01*
X125512984Y-106712485D01*
X125550500Y-106572475D01*
X125550500Y-106496544D01*
X125570185Y-106429505D01*
X125586819Y-106408863D01*
X126108863Y-105886819D01*
X126135790Y-105872115D01*
X126161609Y-105855523D01*
X126167809Y-105854631D01*
X126170186Y-105853334D01*
X126196544Y-105850500D01*
X126210455Y-105850500D01*
X126277494Y-105870185D01*
X126298136Y-105886819D01*
X141659136Y-121247819D01*
X141692621Y-121309142D01*
X141687637Y-121378834D01*
X141645765Y-121434767D01*
X141580301Y-121459184D01*
X141571455Y-121459500D01*
X141455258Y-121459500D01*
X141240971Y-121487713D01*
X141227762Y-121489452D01*
X141217932Y-121492086D01*
X141006112Y-121548842D01*
X140794123Y-121636650D01*
X140794109Y-121636657D01*
X140595382Y-121751392D01*
X140413338Y-121891081D01*
X140251081Y-122053338D01*
X140111392Y-122235382D01*
X139996657Y-122434109D01*
X139996650Y-122434123D01*
X139908842Y-122646112D01*
X139849453Y-122867759D01*
X139849451Y-122867770D01*
X139819500Y-123095258D01*
X139819500Y-123324741D01*
X139844446Y-123514215D01*
X139849452Y-123552238D01*
X139849453Y-123552240D01*
X139908842Y-123773887D01*
X139996650Y-123985876D01*
X139996657Y-123985890D01*
X140111392Y-124184617D01*
X140251081Y-124366661D01*
X140251089Y-124366670D01*
X140413330Y-124528911D01*
X140413338Y-124528918D01*
X140595382Y-124668607D01*
X140595385Y-124668608D01*
X140595388Y-124668611D01*
X140794112Y-124783344D01*
X140794117Y-124783346D01*
X140794123Y-124783349D01*
X140885480Y-124821190D01*
X141006113Y-124871158D01*
X141227762Y-124930548D01*
X141455266Y-124960500D01*
X141455273Y-124960500D01*
X141684727Y-124960500D01*
X141684734Y-124960500D01*
X141912238Y-124930548D01*
X142133887Y-124871158D01*
X142345888Y-124783344D01*
X142544612Y-124668611D01*
X142726661Y-124528919D01*
X142726665Y-124528914D01*
X142726670Y-124528911D01*
X142888911Y-124366670D01*
X142888914Y-124366665D01*
X142888919Y-124366661D01*
X143028611Y-124184612D01*
X143143344Y-123985888D01*
X143231158Y-123773887D01*
X143290548Y-123552238D01*
X143320500Y-123324734D01*
X143320500Y-123208545D01*
X143340185Y-123141506D01*
X143392989Y-123095751D01*
X143462147Y-123085807D01*
X143525703Y-123114832D01*
X143532181Y-123120864D01*
X152342787Y-131931470D01*
X152422711Y-131977614D01*
X152511855Y-132001500D01*
X152511857Y-132001500D01*
X163697927Y-132001500D01*
X163697929Y-132001500D01*
X163787073Y-131977614D01*
X163866997Y-131931470D01*
X164401470Y-131396997D01*
X164447614Y-131317073D01*
X164452055Y-131300500D01*
X164453088Y-131296648D01*
X164462640Y-131260996D01*
X164471500Y-131227929D01*
X164471500Y-125442071D01*
X164447614Y-125352927D01*
X164441066Y-125341586D01*
X164421108Y-125307017D01*
X164421106Y-125307014D01*
X164401472Y-125273006D01*
X164401468Y-125273001D01*
X163866998Y-124738531D01*
X163866993Y-124738527D01*
X163787075Y-124692387D01*
X163787074Y-124692386D01*
X163787073Y-124692386D01*
X163697929Y-124668500D01*
X160434856Y-124668500D01*
X160345712Y-124692386D01*
X160345709Y-124692387D01*
X160265791Y-124738527D01*
X160265786Y-124738531D01*
X158201855Y-126802462D01*
X158140532Y-126835947D01*
X158070840Y-126830963D01*
X158014907Y-126789091D01*
X158006787Y-126776781D01*
X157949676Y-126677863D01*
X157940509Y-126661985D01*
X157838015Y-126559491D01*
X157838013Y-126559490D01*
X157838011Y-126559488D01*
X157712488Y-126487017D01*
X157712489Y-126487017D01*
X157701006Y-126483940D01*
X157572475Y-126449500D01*
X157572472Y-126449500D01*
X157496544Y-126449500D01*
X157429505Y-126429815D01*
X157408863Y-126413181D01*
X141715213Y-110719531D01*
X141715208Y-110719527D01*
X141635290Y-110673387D01*
X141635289Y-110673386D01*
X141635288Y-110673386D01*
X141546144Y-110649500D01*
X141546143Y-110649500D01*
X140479386Y-110649500D01*
X140412347Y-110629815D01*
X140391705Y-110613181D01*
X140338017Y-110559493D01*
X140338011Y-110559488D01*
X140212488Y-110487017D01*
X140212489Y-110487017D01*
X140201006Y-110483940D01*
X140072475Y-110449500D01*
X139927525Y-110449500D01*
X139798993Y-110483940D01*
X139787511Y-110487017D01*
X139661988Y-110559488D01*
X139661982Y-110559493D01*
X139559493Y-110661982D01*
X139559491Y-110661985D01*
X139483185Y-110794150D01*
X139432617Y-110842365D01*
X139364010Y-110855587D01*
X139299146Y-110829619D01*
X139288117Y-110819830D01*
X135810310Y-107342023D01*
X135776825Y-107280700D01*
X135781809Y-107211008D01*
X135823681Y-107155075D01*
X135889145Y-107130658D01*
X135897991Y-107130342D01*
X146221085Y-107130342D01*
X146221087Y-107130342D01*
X146310231Y-107106456D01*
X146390155Y-107060312D01*
X147437819Y-106012646D01*
X147499142Y-105979162D01*
X147568834Y-105984146D01*
X147624767Y-106026018D01*
X147649184Y-106091482D01*
X147649500Y-106100328D01*
X147649500Y-106896086D01*
X147654602Y-106915125D01*
X147654603Y-106915131D01*
X147673384Y-106985228D01*
X147673385Y-106985229D01*
X147719527Y-107065151D01*
X147719529Y-107065154D01*
X147719530Y-107065155D01*
X157535845Y-116881470D01*
X157615769Y-116927614D01*
X157704913Y-116951500D01*
X157704915Y-116951500D01*
X158295085Y-116951500D01*
X158295087Y-116951500D01*
X158384231Y-116927614D01*
X158464155Y-116881470D01*
X164280470Y-111065155D01*
X164326614Y-110985231D01*
X164350500Y-110896087D01*
X164350500Y-110803799D01*
X164350500Y-98459786D01*
X164370185Y-98392747D01*
X164386819Y-98372105D01*
X164440509Y-98318415D01*
X164512984Y-98192885D01*
X164550500Y-98052875D01*
X164550500Y-97907925D01*
X164512984Y-97767915D01*
X164440509Y-97642385D01*
X164338015Y-97539891D01*
X164338013Y-97539890D01*
X164338011Y-97539888D01*
X164212488Y-97467417D01*
X164212489Y-97467417D01*
X164201006Y-97464340D01*
X164072475Y-97429900D01*
X163927525Y-97429900D01*
X163798993Y-97464340D01*
X163787511Y-97467417D01*
X163661988Y-97539888D01*
X163661982Y-97539893D01*
X163559493Y-97642382D01*
X163559488Y-97642388D01*
X163487017Y-97767911D01*
X163487016Y-97767915D01*
X163449500Y-97907925D01*
X163449500Y-98052875D01*
X163478737Y-98161988D01*
X163487017Y-98192888D01*
X163559488Y-98318411D01*
X163559493Y-98318417D01*
X163613181Y-98372105D01*
X163646666Y-98433428D01*
X163649500Y-98459786D01*
X163649500Y-110653399D01*
X163629815Y-110720438D01*
X163613181Y-110741080D01*
X158140080Y-116214181D01*
X158113152Y-116228884D01*
X158087334Y-116245477D01*
X158081133Y-116246368D01*
X158078757Y-116247666D01*
X158052399Y-116250500D01*
X157947601Y-116250500D01*
X157880562Y-116230815D01*
X157859920Y-116214181D01*
X148386819Y-106741080D01*
X148353334Y-106679757D01*
X148350500Y-106653399D01*
X148350500Y-105479386D01*
X148370185Y-105412347D01*
X148386819Y-105391705D01*
X148408339Y-105370185D01*
X148440509Y-105338015D01*
X148512984Y-105212485D01*
X148550500Y-105072475D01*
X148550500Y-104927525D01*
X148512984Y-104787515D01*
X148440509Y-104661985D01*
X148338015Y-104559491D01*
X148338013Y-104559490D01*
X148338011Y-104559488D01*
X148212488Y-104487017D01*
X148212489Y-104487017D01*
X148201006Y-104483940D01*
X148072475Y-104449500D01*
X148071725Y-104449500D01*
X148071116Y-104449321D01*
X148064415Y-104448439D01*
X148064552Y-104447393D01*
X148004686Y-104429815D01*
X147958931Y-104377011D01*
X147948987Y-104307853D01*
X147951310Y-104296524D01*
X147951500Y-104295085D01*
X147951500Y-100352203D01*
X147968112Y-100290204D01*
X148012984Y-100212485D01*
X148050500Y-100072475D01*
X148050500Y-99927525D01*
X149449500Y-99927525D01*
X149449500Y-100072475D01*
X149487016Y-100212485D01*
X149487017Y-100212488D01*
X149559488Y-100338011D01*
X149559493Y-100338017D01*
X149613181Y-100391705D01*
X149646666Y-100453028D01*
X149649500Y-100479386D01*
X149649500Y-105546145D01*
X149663199Y-105597272D01*
X149673384Y-105635283D01*
X149673387Y-105635290D01*
X149719527Y-105715208D01*
X149719531Y-105715213D01*
X151913181Y-107908863D01*
X151946666Y-107970186D01*
X151949500Y-107996544D01*
X151949500Y-108072475D01*
X151987016Y-108212485D01*
X151987017Y-108212488D01*
X152059488Y-108338011D01*
X152059490Y-108338013D01*
X152059491Y-108338015D01*
X152161985Y-108440509D01*
X152161986Y-108440510D01*
X152161988Y-108440511D01*
X152287511Y-108512982D01*
X152287512Y-108512982D01*
X152287515Y-108512984D01*
X152427525Y-108550500D01*
X152427528Y-108550500D01*
X152572472Y-108550500D01*
X152572475Y-108550500D01*
X152712485Y-108512984D01*
X152838015Y-108440509D01*
X152940509Y-108338015D01*
X153012984Y-108212485D01*
X153050500Y-108072475D01*
X153050500Y-107927525D01*
X153012984Y-107787515D01*
X152940509Y-107661985D01*
X152838015Y-107559491D01*
X152838013Y-107559490D01*
X152838011Y-107559488D01*
X152712488Y-107487017D01*
X152712489Y-107487017D01*
X152701006Y-107483940D01*
X152572475Y-107449500D01*
X152572472Y-107449500D01*
X152496544Y-107449500D01*
X152429505Y-107429815D01*
X152408863Y-107413181D01*
X150386819Y-105391137D01*
X150353334Y-105329814D01*
X150350500Y-105303456D01*
X150350500Y-100479386D01*
X150370185Y-100412347D01*
X150386819Y-100391705D01*
X150440509Y-100338015D01*
X150512984Y-100212485D01*
X150550500Y-100072475D01*
X150550500Y-99927525D01*
X150512984Y-99787515D01*
X150440509Y-99661985D01*
X150338015Y-99559491D01*
X150338013Y-99559490D01*
X150338011Y-99559488D01*
X150212488Y-99487017D01*
X150212485Y-99487016D01*
X150072475Y-99449500D01*
X149927525Y-99449500D01*
X149798993Y-99483940D01*
X149787511Y-99487017D01*
X149661988Y-99559488D01*
X149661982Y-99559493D01*
X149559493Y-99661982D01*
X149559488Y-99661988D01*
X149487017Y-99787511D01*
X149487016Y-99787515D01*
X149449500Y-99927525D01*
X148050500Y-99927525D01*
X148012984Y-99787515D01*
X147940509Y-99661985D01*
X147838015Y-99559491D01*
X147838013Y-99559490D01*
X147838011Y-99559488D01*
X147712488Y-99487017D01*
X147712485Y-99487016D01*
X147572475Y-99449500D01*
X147427525Y-99449500D01*
X147298993Y-99483940D01*
X147287511Y-99487017D01*
X147161988Y-99559488D01*
X147161982Y-99559493D01*
X147059493Y-99661982D01*
X147059488Y-99661988D01*
X146987017Y-99787511D01*
X146987016Y-99787515D01*
X146949500Y-99927525D01*
X146949500Y-99927527D01*
X146949500Y-100072474D01*
X146969307Y-100146395D01*
X146967644Y-100216245D01*
X146928481Y-100274107D01*
X146864253Y-100301611D01*
X146795351Y-100290024D01*
X146761851Y-100266169D01*
X145586819Y-99091137D01*
X145553334Y-99029814D01*
X145550500Y-99003456D01*
X145550500Y-98927527D01*
X145550500Y-98927525D01*
X145512984Y-98787515D01*
X145469665Y-98712485D01*
X145440511Y-98661988D01*
X145440506Y-98661982D01*
X145338017Y-98559493D01*
X145338011Y-98559488D01*
X145212488Y-98487017D01*
X145212489Y-98487017D01*
X145201006Y-98483940D01*
X145072475Y-98449500D01*
X144927525Y-98449500D01*
X144798993Y-98483940D01*
X144787511Y-98487017D01*
X144661988Y-98559488D01*
X144661982Y-98559493D01*
X144559493Y-98661982D01*
X144559488Y-98661988D01*
X144487017Y-98787511D01*
X144487016Y-98787515D01*
X144449500Y-98927525D01*
X144449500Y-99072475D01*
X144480124Y-99186764D01*
X144487017Y-99212488D01*
X144559488Y-99338011D01*
X144559490Y-99338013D01*
X144559491Y-99338015D01*
X144661985Y-99440509D01*
X144661986Y-99440510D01*
X144661988Y-99440511D01*
X144787511Y-99512982D01*
X144787512Y-99512982D01*
X144787515Y-99512984D01*
X144927525Y-99550500D01*
X145003456Y-99550500D01*
X145070495Y-99570185D01*
X145091137Y-99586819D01*
X146613181Y-101108863D01*
X146646666Y-101170186D01*
X146649500Y-101196544D01*
X146649500Y-102156463D01*
X146629815Y-102223502D01*
X146577011Y-102269257D01*
X146507853Y-102279201D01*
X146444297Y-102250176D01*
X146437819Y-102244144D01*
X146436667Y-102242992D01*
X146436661Y-102242987D01*
X146311138Y-102170516D01*
X146311139Y-102170516D01*
X146299656Y-102167439D01*
X146171125Y-102132999D01*
X146026175Y-102132999D01*
X145897643Y-102167439D01*
X145886161Y-102170516D01*
X145760638Y-102242987D01*
X145760632Y-102242992D01*
X145658143Y-102345481D01*
X145658138Y-102345487D01*
X145585667Y-102471010D01*
X145562467Y-102557594D01*
X145526101Y-102617254D01*
X145463254Y-102647783D01*
X145442692Y-102649500D01*
X144479386Y-102649500D01*
X144412347Y-102629815D01*
X144391705Y-102613181D01*
X144338017Y-102559493D01*
X144338011Y-102559488D01*
X144212488Y-102487017D01*
X144212489Y-102487017D01*
X144201006Y-102483940D01*
X144072475Y-102449500D01*
X143927525Y-102449500D01*
X143798993Y-102483940D01*
X143787511Y-102487017D01*
X143661988Y-102559488D01*
X143661982Y-102559493D01*
X143559493Y-102661982D01*
X143559488Y-102661988D01*
X143487017Y-102787511D01*
X143487016Y-102787515D01*
X143449500Y-102927525D01*
X143449500Y-103072475D01*
X143487016Y-103212485D01*
X143487017Y-103212488D01*
X143559488Y-103338011D01*
X143559490Y-103338013D01*
X143559491Y-103338015D01*
X143661985Y-103440509D01*
X143661986Y-103440510D01*
X143661988Y-103440511D01*
X143787511Y-103512982D01*
X143787512Y-103512982D01*
X143787515Y-103512984D01*
X143927525Y-103550500D01*
X143927528Y-103550500D01*
X144072472Y-103550500D01*
X144072475Y-103550500D01*
X144212485Y-103512984D01*
X144338015Y-103440509D01*
X144391705Y-103386819D01*
X144453028Y-103353334D01*
X144479386Y-103350500D01*
X145828291Y-103350500D01*
X145828293Y-103350500D01*
X145917437Y-103326614D01*
X145928061Y-103320480D01*
X145997361Y-103280470D01*
X146016262Y-103261568D01*
X146026562Y-103254724D01*
X146048592Y-103247886D01*
X146068836Y-103236833D01*
X146092357Y-103234303D01*
X146093292Y-103234014D01*
X146093784Y-103234150D01*
X146095194Y-103233999D01*
X146171122Y-103233999D01*
X146171125Y-103233999D01*
X146311135Y-103196483D01*
X146436665Y-103124008D01*
X146437819Y-103122854D01*
X146439029Y-103122193D01*
X146443111Y-103119061D01*
X146443599Y-103119697D01*
X146499142Y-103089369D01*
X146568834Y-103094353D01*
X146624767Y-103136225D01*
X146649184Y-103201689D01*
X146649500Y-103210535D01*
X146649500Y-103520614D01*
X146629815Y-103587653D01*
X146613181Y-103608295D01*
X146559493Y-103661982D01*
X146559488Y-103661988D01*
X146487017Y-103787511D01*
X146487016Y-103787515D01*
X146449500Y-103927525D01*
X146449500Y-104072475D01*
X146484421Y-104202799D01*
X146487017Y-104212488D01*
X146559488Y-104338011D01*
X146559490Y-104338013D01*
X146559491Y-104338015D01*
X146661985Y-104440509D01*
X146661986Y-104440510D01*
X146661988Y-104440511D01*
X146787511Y-104512982D01*
X146787513Y-104512983D01*
X146787515Y-104512984D01*
X146806536Y-104518080D01*
X146866196Y-104554444D01*
X146896726Y-104617291D01*
X146898443Y-104637855D01*
X146898443Y-105509298D01*
X146878758Y-105576337D01*
X146862124Y-105596979D01*
X146572930Y-105886172D01*
X146511607Y-105919657D01*
X146441915Y-105914673D01*
X146385982Y-105872801D01*
X146377862Y-105860491D01*
X146373730Y-105853334D01*
X146366509Y-105840827D01*
X146264015Y-105738333D01*
X146264013Y-105738332D01*
X146264011Y-105738330D01*
X146138488Y-105665859D01*
X146138489Y-105665859D01*
X146127006Y-105662782D01*
X145998475Y-105628342D01*
X145853525Y-105628342D01*
X145724993Y-105662782D01*
X145713511Y-105665859D01*
X145587988Y-105738330D01*
X145587982Y-105738335D01*
X145485493Y-105840824D01*
X145485491Y-105840827D01*
X145413024Y-105966343D01*
X145362457Y-106014558D01*
X145305637Y-106028342D01*
X143629863Y-106028342D01*
X143562824Y-106008657D01*
X143517069Y-105955853D01*
X143507125Y-105886695D01*
X143511561Y-105870517D01*
X143510880Y-105870335D01*
X143512982Y-105862486D01*
X143512984Y-105862485D01*
X143550500Y-105722475D01*
X143550500Y-105577525D01*
X143512984Y-105437515D01*
X143509318Y-105431166D01*
X143440511Y-105311988D01*
X143440506Y-105311982D01*
X143338017Y-105209493D01*
X143338011Y-105209488D01*
X143212488Y-105137017D01*
X143212489Y-105137017D01*
X143201006Y-105133940D01*
X143072475Y-105099500D01*
X142927525Y-105099500D01*
X142798993Y-105133940D01*
X142787511Y-105137017D01*
X142661988Y-105209488D01*
X142661982Y-105209493D01*
X142608295Y-105263181D01*
X142546972Y-105296666D01*
X142520614Y-105299500D01*
X139846544Y-105299500D01*
X139779505Y-105279815D01*
X139758863Y-105263181D01*
X133086819Y-98591137D01*
X133053334Y-98529814D01*
X133050500Y-98503456D01*
X133050500Y-98427527D01*
X133050500Y-98427525D01*
X133012984Y-98287515D01*
X132940509Y-98161985D01*
X132838015Y-98059491D01*
X132838013Y-98059490D01*
X132838011Y-98059488D01*
X132712488Y-97987017D01*
X132712489Y-97987017D01*
X132701006Y-97983940D01*
X132572475Y-97949500D01*
X132427525Y-97949500D01*
X132298993Y-97983940D01*
X132287511Y-97987017D01*
X132161988Y-98059488D01*
X132161982Y-98059493D01*
X132059493Y-98161982D01*
X132059488Y-98161988D01*
X131987017Y-98287511D01*
X131987016Y-98287515D01*
X131949500Y-98427525D01*
X131949500Y-98427527D01*
X131949500Y-98572474D01*
X131969307Y-98646395D01*
X131967644Y-98716245D01*
X131928481Y-98774107D01*
X131864253Y-98801611D01*
X131795351Y-98790024D01*
X131761851Y-98766169D01*
X128586819Y-95591137D01*
X128553334Y-95529814D01*
X128550500Y-95503456D01*
X128550500Y-95427527D01*
X128550500Y-95427525D01*
X128512984Y-95287515D01*
X128469665Y-95212485D01*
X128440511Y-95161988D01*
X128440506Y-95161982D01*
X128340705Y-95062181D01*
X128307220Y-95000858D01*
X128312204Y-94931166D01*
X128354076Y-94875233D01*
X128419540Y-94850816D01*
X128428386Y-94850500D01*
X157153399Y-94850500D01*
X157220438Y-94870185D01*
X157241080Y-94886819D01*
X162113181Y-99758920D01*
X162127884Y-99785847D01*
X162144477Y-99811666D01*
X162145368Y-99817866D01*
X162146666Y-99820243D01*
X162149500Y-99846601D01*
X162149500Y-100020614D01*
X162129815Y-100087653D01*
X162113181Y-100108295D01*
X162059493Y-100161982D01*
X162059488Y-100161988D01*
X161987017Y-100287511D01*
X161987016Y-100287515D01*
X161949500Y-100427525D01*
X161949500Y-100572475D01*
X161987016Y-100712485D01*
X161987017Y-100712488D01*
X162059488Y-100838011D01*
X162059490Y-100838013D01*
X162059491Y-100838015D01*
X162161985Y-100940509D01*
X162161986Y-100940510D01*
X162161988Y-100940511D01*
X162287511Y-101012982D01*
X162287512Y-101012982D01*
X162287515Y-101012984D01*
X162427525Y-101050500D01*
X162427528Y-101050500D01*
X162572472Y-101050500D01*
X162572475Y-101050500D01*
X162712485Y-101012984D01*
X162838015Y-100940509D01*
X162940509Y-100838015D01*
X163012984Y-100712485D01*
X163050500Y-100572475D01*
X163050500Y-100427525D01*
X163012984Y-100287515D01*
X162969665Y-100212485D01*
X162940511Y-100161988D01*
X162940506Y-100161982D01*
X162886819Y-100108295D01*
X162853334Y-100046972D01*
X162850500Y-100020614D01*
X162850500Y-99603915D01*
X162850500Y-99603913D01*
X162826614Y-99514769D01*
X162810591Y-99487016D01*
X162780469Y-99434844D01*
X159392748Y-96047123D01*
X160449500Y-96047123D01*
X160449500Y-96192073D01*
X160487016Y-96332083D01*
X160487017Y-96332086D01*
X160559488Y-96457609D01*
X160559490Y-96457611D01*
X160559491Y-96457613D01*
X160661985Y-96560107D01*
X160661986Y-96560108D01*
X160661988Y-96560109D01*
X160787511Y-96632580D01*
X160787512Y-96632580D01*
X160787515Y-96632582D01*
X160927525Y-96670098D01*
X160927528Y-96670098D01*
X161072472Y-96670098D01*
X161072475Y-96670098D01*
X161212485Y-96632582D01*
X161338015Y-96560107D01*
X161440509Y-96457613D01*
X161512984Y-96332083D01*
X161550500Y-96192073D01*
X161550500Y-96116142D01*
X161570185Y-96049103D01*
X161586819Y-96028461D01*
X162228461Y-95386819D01*
X162289784Y-95353334D01*
X162316142Y-95350500D01*
X165020614Y-95350500D01*
X165087653Y-95370185D01*
X165108295Y-95386819D01*
X165161985Y-95440509D01*
X165161986Y-95440510D01*
X165161988Y-95440511D01*
X165287511Y-95512982D01*
X165287512Y-95512982D01*
X165287515Y-95512984D01*
X165427525Y-95550500D01*
X165427528Y-95550500D01*
X165572472Y-95550500D01*
X165572475Y-95550500D01*
X165712485Y-95512984D01*
X165838015Y-95440509D01*
X165940509Y-95338015D01*
X166012984Y-95212485D01*
X166050500Y-95072475D01*
X166050500Y-94927525D01*
X166012984Y-94787515D01*
X165973733Y-94719531D01*
X165940511Y-94661988D01*
X165940506Y-94661982D01*
X165838017Y-94559493D01*
X165838011Y-94559488D01*
X165712488Y-94487017D01*
X165712489Y-94487017D01*
X165701006Y-94483940D01*
X165572475Y-94449500D01*
X165427525Y-94449500D01*
X165298993Y-94483940D01*
X165287511Y-94487017D01*
X165161988Y-94559488D01*
X165161982Y-94559493D01*
X165108295Y-94613181D01*
X165046972Y-94646666D01*
X165020614Y-94649500D01*
X162073454Y-94649500D01*
X161984310Y-94673386D01*
X161984307Y-94673387D01*
X161904389Y-94719527D01*
X161904384Y-94719531D01*
X161091137Y-95532779D01*
X161029814Y-95566264D01*
X161003456Y-95569098D01*
X160927525Y-95569098D01*
X160798993Y-95603538D01*
X160787511Y-95606615D01*
X160661988Y-95679086D01*
X160661982Y-95679091D01*
X160559493Y-95781580D01*
X160559488Y-95781586D01*
X160487017Y-95907109D01*
X160487016Y-95907113D01*
X160449500Y-96047123D01*
X159392748Y-96047123D01*
X157565155Y-94219530D01*
X157565154Y-94219529D01*
X157565151Y-94219527D01*
X157485233Y-94173387D01*
X157485232Y-94173386D01*
X157485231Y-94173386D01*
X157396087Y-94149500D01*
X157396086Y-94149500D01*
X124479386Y-94149500D01*
X124412347Y-94129815D01*
X124391705Y-94113181D01*
X124338017Y-94059493D01*
X124338011Y-94059488D01*
X124212488Y-93987017D01*
X124212489Y-93987017D01*
X124201006Y-93983940D01*
X124072475Y-93949500D01*
X123927525Y-93949500D01*
X123798993Y-93983940D01*
X123787511Y-93987017D01*
X123661988Y-94059488D01*
X123661982Y-94059493D01*
X123559493Y-94161982D01*
X123559489Y-94161988D01*
X123547536Y-94182691D01*
X123496968Y-94230905D01*
X123428361Y-94244127D01*
X123373021Y-94222355D01*
X123372307Y-94223593D01*
X123285347Y-94173387D01*
X123285346Y-94173386D01*
X123285345Y-94173386D01*
X123196201Y-94149500D01*
X123196200Y-94149500D01*
X119479386Y-94149500D01*
X119412347Y-94129815D01*
X119391705Y-94113181D01*
X119338017Y-94059493D01*
X119338011Y-94059488D01*
X119212488Y-93987017D01*
X119212489Y-93987017D01*
X119201006Y-93983940D01*
X119072475Y-93949500D01*
X118927525Y-93949500D01*
X118798993Y-93983940D01*
X118787511Y-93987017D01*
X118661988Y-94059488D01*
X118661982Y-94059493D01*
X118559493Y-94161982D01*
X118559488Y-94161988D01*
X118487017Y-94287511D01*
X118487016Y-94287515D01*
X118449500Y-94427525D01*
X118449500Y-94572475D01*
X118476540Y-94673387D01*
X118487017Y-94712488D01*
X118559488Y-94838011D01*
X118559490Y-94838013D01*
X118559491Y-94838015D01*
X118661985Y-94940509D01*
X118661986Y-94940510D01*
X118661988Y-94940511D01*
X118787511Y-95012982D01*
X118787512Y-95012982D01*
X118787515Y-95012984D01*
X118927525Y-95050500D01*
X118927528Y-95050500D01*
X119072472Y-95050500D01*
X119072475Y-95050500D01*
X119212485Y-95012984D01*
X119338015Y-94940509D01*
X119391705Y-94886819D01*
X119453028Y-94853334D01*
X119479386Y-94850500D01*
X122953513Y-94850500D01*
X123020552Y-94870185D01*
X123041194Y-94886819D01*
X132592194Y-104437819D01*
X132625679Y-104499142D01*
X132620695Y-104568834D01*
X132578823Y-104624767D01*
X132513359Y-104649184D01*
X132504513Y-104649500D01*
X120928386Y-104649500D01*
X120861347Y-104629815D01*
X120815592Y-104577011D01*
X120805648Y-104507853D01*
X120834673Y-104444297D01*
X120840705Y-104437819D01*
X120848709Y-104429815D01*
X120940509Y-104338015D01*
X121012984Y-104212485D01*
X121050500Y-104072475D01*
X121050500Y-103927525D01*
X121012984Y-103787515D01*
X120973733Y-103719531D01*
X120940511Y-103661988D01*
X120940506Y-103661982D01*
X120838017Y-103559493D01*
X120838011Y-103559488D01*
X120712488Y-103487017D01*
X120712489Y-103487017D01*
X120701006Y-103483940D01*
X120572475Y-103449500D01*
X120427525Y-103449500D01*
X120298993Y-103483940D01*
X120287511Y-103487017D01*
X120161988Y-103559488D01*
X120161982Y-103559493D01*
X120108295Y-103613181D01*
X120046972Y-103646666D01*
X120020614Y-103649500D01*
X117603913Y-103649500D01*
X117514769Y-103673386D01*
X117514766Y-103673387D01*
X117434848Y-103719527D01*
X117434843Y-103719531D01*
X116618531Y-104535843D01*
X116618527Y-104535848D01*
X116588659Y-104587582D01*
X116588657Y-104587585D01*
X116581812Y-104599443D01*
X116572386Y-104615769D01*
X116548500Y-104704913D01*
X101500500Y-104704913D01*
X101500500Y-25624500D01*
X101520185Y-25557461D01*
X101572989Y-25511706D01*
X101624500Y-25500500D01*
X191375500Y-25500500D01*
X191442539Y-25520185D01*
G37*
%TD.AperFunction*%
%TD*%
M02*
