%TF.GenerationSoftware,KiCad,Pcbnew,9.0.0-rc3*%
%TF.CreationDate,2026-03-03T21:45:30+01:00*%
%TF.ProjectId,powerbank,706f7765-7262-4616-9e6b-2e6b69636164,rev?*%
%TF.SameCoordinates,Original*%
%TF.FileFunction,Copper,L1,Top*%
%TF.FilePolarity,Positive*%
%FSLAX46Y46*%
G04 Gerber Fmt 4.6, Leading zero omitted, Abs format (unit mm)*
G04 Created by KiCad (PCBNEW 9.0.0-rc3) date 2026-03-03 21:45:30*
%MOMM*%
%LPD*%
G01*
G04 APERTURE LIST*
G04 Aperture macros list*
%AMRoundRect*
0 Rectangle with rounded corners*
0 $1 Rounding radius*
0 $2 $3 $4 $5 $6 $7 $8 $9 X,Y pos of 4 corners*
0 Add a 4 corners polygon primitive as box body*
4,1,4,$2,$3,$4,$5,$6,$7,$8,$9,$2,$3,0*
0 Add four circle primitives for the rounded corners*
1,1,$1+$1,$2,$3*
1,1,$1+$1,$4,$5*
1,1,$1+$1,$6,$7*
1,1,$1+$1,$8,$9*
0 Add four rect primitives between the rounded corners*
20,1,$1+$1,$2,$3,$4,$5,0*
20,1,$1+$1,$4,$5,$6,$7,0*
20,1,$1+$1,$6,$7,$8,$9,0*
20,1,$1+$1,$8,$9,$2,$3,0*%
G04 Aperture macros list end*
%TA.AperFunction,SMDPad,CuDef*%
%ADD10RoundRect,0.250000X-0.262500X-0.450000X0.262500X-0.450000X0.262500X0.450000X-0.262500X0.450000X0*%
%TD*%
%TA.AperFunction,SMDPad,CuDef*%
%ADD11RoundRect,0.250000X-0.250000X-0.475000X0.250000X-0.475000X0.250000X0.475000X-0.250000X0.475000X0*%
%TD*%
%TA.AperFunction,SMDPad,CuDef*%
%ADD12RoundRect,0.250000X-1.000000X-0.650000X1.000000X-0.650000X1.000000X0.650000X-1.000000X0.650000X0*%
%TD*%
%TA.AperFunction,SMDPad,CuDef*%
%ADD13RoundRect,0.150000X-0.512500X-0.150000X0.512500X-0.150000X0.512500X0.150000X-0.512500X0.150000X0*%
%TD*%
%TA.AperFunction,ComponentPad*%
%ADD14R,1.600000X1.500000*%
%TD*%
%TA.AperFunction,ComponentPad*%
%ADD15C,1.600000*%
%TD*%
%TA.AperFunction,ComponentPad*%
%ADD16C,3.000000*%
%TD*%
%TA.AperFunction,SMDPad,CuDef*%
%ADD17R,1.500000X2.200000*%
%TD*%
%TA.AperFunction,SMDPad,CuDef*%
%ADD18RoundRect,1.500000X2.500000X-1.500000X2.500000X1.500000X-2.500000X1.500000X-2.500000X-1.500000X0*%
%TD*%
%TA.AperFunction,SMDPad,CuDef*%
%ADD19C,6.000000*%
%TD*%
%TA.AperFunction,SMDPad,CuDef*%
%ADD20R,0.977900X0.558800*%
%TD*%
%TA.AperFunction,SMDPad,CuDef*%
%ADD21R,0.600000X1.450000*%
%TD*%
%TA.AperFunction,SMDPad,CuDef*%
%ADD22R,0.300000X1.450000*%
%TD*%
%TA.AperFunction,HeatsinkPad*%
%ADD23O,1.000000X2.100000*%
%TD*%
%TA.AperFunction,HeatsinkPad*%
%ADD24O,1.000000X1.600000*%
%TD*%
%TA.AperFunction,ViaPad*%
%ADD25C,0.600000*%
%TD*%
%TA.AperFunction,Conductor*%
%ADD26C,0.200000*%
%TD*%
%TA.AperFunction,Conductor*%
%ADD27C,1.000000*%
%TD*%
G04 APERTURE END LIST*
D10*
%TO.P,R8,1*%
%TO.N,Net-(C5-Pad2)*%
X123343650Y-118000000D03*
%TO.P,R8,2*%
%TO.N,GND*%
X125168650Y-118000000D03*
%TD*%
%TO.P,R1,1*%
%TO.N,Net-(U1-PROG)*%
X123343650Y-96183499D03*
%TO.P,R1,2*%
%TO.N,GND*%
X125168650Y-96183499D03*
%TD*%
%TO.P,R3,1*%
%TO.N,Net-(U3-CS)*%
X123343650Y-99133499D03*
%TO.P,R3,2*%
%TO.N,GND*%
X125168650Y-99133499D03*
%TD*%
D11*
%TO.P,C1,1*%
%TO.N,GND*%
X118876150Y-96213499D03*
%TO.P,C1,2*%
%TO.N,Net-(BT1-+)*%
X120776150Y-96213499D03*
%TD*%
D12*
%TO.P,D4,1,K*%
%TO.N,5V_SYS*%
X111581150Y-110633499D03*
%TO.P,D4,2,A*%
%TO.N,Net-(D4-A)*%
X115581150Y-110633499D03*
%TD*%
%TO.P,D3,1,K*%
%TO.N,Net-(BT1-+)*%
X111581150Y-106083499D03*
%TO.P,D3,2,A*%
%TO.N,Net-(D3-A)*%
X115581150Y-106083499D03*
%TD*%
D13*
%TO.P,U1,1,~{CHRG}*%
%TO.N,unconnected-(U1-~{CHRG}-Pad1)*%
X161362500Y-101550000D03*
%TO.P,U1,2,GND*%
%TO.N,GND*%
X161362500Y-102500000D03*
%TO.P,U1,3,BAT*%
%TO.N,Net-(U1-BAT)*%
X161362500Y-103450000D03*
%TO.P,U1,4,V_{CC}*%
%TO.N,Net-(U1-V_{CC})*%
X163637500Y-103450000D03*
%TO.P,U1,5,STDBY*%
%TO.N,unconnected-(U1-STDBY-Pad5)*%
X163637500Y-102500000D03*
%TO.P,U1,6,PROG*%
%TO.N,Net-(U1-PROG)*%
X163637500Y-101550000D03*
%TD*%
D11*
%TO.P,C4,1*%
%TO.N,Net-(D4-A)*%
X151550000Y-106000000D03*
%TO.P,C4,2*%
%TO.N,Net-(U1-V_{CC})*%
X153450000Y-106000000D03*
%TD*%
%TO.P,C3,1*%
%TO.N,Net-(D1-K)*%
X118876150Y-102233499D03*
%TO.P,C3,2*%
%TO.N,GND*%
X120776150Y-102233499D03*
%TD*%
D10*
%TO.P,R6,1*%
%TO.N,Net-(U2-FB)*%
X123343650Y-107983499D03*
%TO.P,R6,2*%
%TO.N,Net-(D1-K)*%
X125168650Y-107983499D03*
%TD*%
D12*
%TO.P,D5,1,K*%
%TO.N,5V_SYS*%
X111581150Y-115183499D03*
%TO.P,D5,2,A*%
%TO.N,Net-(BT1-+)*%
X115581150Y-115183499D03*
%TD*%
D11*
%TO.P,C6,1*%
%TO.N,GND*%
X118600000Y-106500000D03*
%TO.P,C6,2*%
X120500000Y-106500000D03*
%TD*%
%TO.P,C7,1*%
%TO.N,Net-(D3-A)*%
X118876150Y-117500000D03*
%TO.P,C7,2*%
%TO.N,Net-(U1-BAT)*%
X120776150Y-117500000D03*
%TD*%
D14*
%TO.P,J2,1,VBUS*%
%TO.N,GND*%
X131500000Y-120500000D03*
D15*
%TO.P,J2,2,D-*%
%TO.N,Net-(J2-D+)*%
X134000000Y-120500000D03*
%TO.P,J2,3,D+*%
X136000000Y-120500000D03*
%TO.P,J2,4,GND*%
%TO.N,GND*%
X138500000Y-120500000D03*
D16*
%TO.P,J2,5,Shield*%
%TO.N,unconnected-(J2-Shield-Pad5)*%
X128430000Y-123210000D03*
X141570000Y-123210000D03*
%TD*%
D10*
%TO.P,R7,1*%
%TO.N,GND*%
X123343650Y-110000000D03*
%TO.P,R7,2*%
%TO.N,Net-(U2-FB)*%
X125168650Y-110000000D03*
%TD*%
%TO.P,R4,1*%
%TO.N,Net-(J1-CC1)*%
X123343650Y-102083499D03*
%TO.P,R4,2*%
%TO.N,GND*%
X125168650Y-102083499D03*
%TD*%
D17*
%TO.P,L1,1,1*%
%TO.N,Net-(D1-A)*%
X151800000Y-111000000D03*
%TO.P,L1,2,2*%
%TO.N,5V_SYS*%
X158200000Y-111000000D03*
%TD*%
D18*
%TO.P,BT1,1,+*%
%TO.N,Net-(BT1-+)*%
X117261150Y-59958499D03*
D19*
%TO.P,BT1,2,-*%
%TO.N,Net-(BT1--)*%
X117261150Y-70958499D03*
%TD*%
D12*
%TO.P,D1,1,K*%
%TO.N,Net-(D1-K)*%
X111581150Y-96983499D03*
%TO.P,D1,2,A*%
%TO.N,Net-(D1-A)*%
X115581150Y-96983499D03*
%TD*%
D13*
%TO.P,U3,1,OD*%
%TO.N,Net-(U3-OD)*%
X144362500Y-105050000D03*
%TO.P,U3,2,CS*%
%TO.N,Net-(U3-CS)*%
X144362500Y-106000000D03*
%TO.P,U3,3,OC*%
%TO.N,Net-(U3-OC)*%
X144362500Y-106950000D03*
%TO.P,U3,4,TD*%
%TO.N,unconnected-(U3-TD-Pad4)*%
X146637500Y-106950000D03*
%TO.P,U3,5,VCC*%
%TO.N,Net-(BT1-+)*%
X146637500Y-106000000D03*
%TO.P,U3,6,GND*%
%TO.N,Net-(BT1--)*%
X146637500Y-105050000D03*
%TD*%
D11*
%TO.P,C5,1*%
%TO.N,Net-(J1-SHIELD)*%
X118876150Y-104500000D03*
%TO.P,C5,2*%
%TO.N,Net-(C5-Pad2)*%
X120776150Y-104500000D03*
%TD*%
D12*
%TO.P,D2,1,K*%
%TO.N,GND*%
X111581150Y-101533499D03*
%TO.P,D2,2,A*%
%TO.N,Net-(D1-K)*%
X115581150Y-101533499D03*
%TD*%
D13*
%TO.P,U2,1,SW*%
%TO.N,Net-(D1-A)*%
X146098650Y-100783499D03*
%TO.P,U2,2,GND*%
%TO.N,unconnected-(U2-GND-Pad2)*%
X146098650Y-101733499D03*
%TO.P,U2,3,FB*%
%TO.N,Net-(U2-FB)*%
X146098650Y-102683499D03*
%TO.P,U2,4,EN*%
%TO.N,Net-(BT1-+)*%
X148373650Y-102683499D03*
%TO.P,U2,5,IN*%
X148373650Y-101733499D03*
%TO.P,U2,6,NC*%
%TO.N,unconnected-(U2-NC-Pad6)*%
X148373650Y-100783499D03*
%TD*%
D11*
%TO.P,C2,1*%
%TO.N,Net-(BT1-+)*%
X118876150Y-99223499D03*
%TO.P,C2,2*%
%TO.N,GND*%
X120776150Y-99223499D03*
%TD*%
D20*
%TO.P,Q1,1,1*%
%TO.N,GND*%
X162820300Y-96099998D03*
%TO.P,Q1,2,2*%
%TO.N,Net-(Q1-Pad2)*%
X162820300Y-97049999D03*
%TO.P,Q1,3,3*%
%TO.N,Net-(BT1--)*%
X162820300Y-98000000D03*
%TO.P,Q1,4,4*%
%TO.N,Net-(U3-OC)*%
X165500000Y-98000000D03*
%TO.P,Q1,5,5*%
%TO.N,Net-(Q1-Pad2)*%
X165500000Y-97049999D03*
%TO.P,Q1,6,6*%
%TO.N,Net-(U3-OD)*%
X165500000Y-96099998D03*
%TD*%
D10*
%TO.P,R5,1*%
%TO.N,Net-(J1-CC2)*%
X123343650Y-105033499D03*
%TO.P,R5,2*%
%TO.N,GND*%
X125168650Y-105033499D03*
%TD*%
D21*
%TO.P,J1,A1*%
%TO.N,GND*%
X155750000Y-125455000D03*
%TO.P,J1,A4*%
%TO.N,Net-(D4-A)*%
X156550000Y-125455000D03*
D22*
%TO.P,J1,A5,CC1*%
%TO.N,Net-(J1-CC1)*%
X157750000Y-125455000D03*
%TO.P,J1,A6*%
%TO.N,N/C*%
X158750000Y-125455000D03*
%TO.P,J1,A7*%
X159250000Y-125455000D03*
%TO.P,J1,A8*%
X160250000Y-125455000D03*
D21*
%TO.P,J1,A9,VBUS*%
%TO.N,Net-(D4-A)*%
X161450000Y-125455000D03*
%TO.P,J1,A12,GND*%
%TO.N,GND*%
X162250000Y-125455000D03*
%TO.P,J1,B1*%
X162250000Y-125455000D03*
%TO.P,J1,B4*%
%TO.N,Net-(D4-A)*%
X161450000Y-125455000D03*
D22*
%TO.P,J1,B5,CC2*%
%TO.N,Net-(J1-CC2)*%
X160750000Y-125455000D03*
%TO.P,J1,B6*%
%TO.N,N/C*%
X159750000Y-125455000D03*
%TO.P,J1,B7*%
X158250000Y-125455000D03*
%TO.P,J1,B8*%
X157250000Y-125455000D03*
D21*
%TO.P,J1,B9,VBUS*%
%TO.N,Net-(D4-A)*%
X156550000Y-125455000D03*
%TO.P,J1,B12,GND*%
%TO.N,GND*%
X155750000Y-125455000D03*
D23*
%TO.P,J1,S1,SHIELD*%
%TO.N,Net-(J1-SHIELD)*%
X154680000Y-126370000D03*
D24*
X154680000Y-130550000D03*
D23*
X163320000Y-126370000D03*
D24*
X163320000Y-130550000D03*
%TD*%
D25*
%TO.N,GND*%
X118000000Y-103400000D03*
X126000000Y-104400000D03*
X124500000Y-102000000D03*
X126500000Y-102484499D03*
X117500000Y-100000000D03*
X118000000Y-100500000D03*
X160500000Y-98500000D03*
X121990784Y-101135498D03*
X119000000Y-101000000D03*
X120776150Y-99223499D03*
X121980227Y-103008628D03*
X117000000Y-95000000D03*
X118000000Y-96500000D03*
X125000000Y-116000000D03*
X122000000Y-99500000D03*
X135500000Y-78500000D03*
X116000000Y-95000000D03*
X158000000Y-116000000D03*
X122500000Y-110500000D03*
X160000000Y-103000000D03*
X118000000Y-97500000D03*
X138500000Y-78500000D03*
X125168650Y-99133499D03*
X137000000Y-78500000D03*
%TO.N,Net-(U1-PROG)*%
X124000000Y-94500000D03*
X162500000Y-100500000D03*
%TO.N,Net-(BT1-+)*%
X145926000Y-106178842D03*
X128000000Y-95500000D03*
%TO.N,Net-(J1-CC1)*%
X157500000Y-127000000D03*
X140000000Y-111000000D03*
%TO.N,Net-(J1-CC2)*%
X125000000Y-106500000D03*
X157500000Y-128000000D03*
%TO.N,Net-(D1-A)*%
X150000000Y-100000000D03*
X147500000Y-100000000D03*
X119000000Y-94500000D03*
X152500000Y-108000000D03*
%TO.N,Net-(U2-FB)*%
X146098650Y-102683499D03*
X144000000Y-103000000D03*
%TO.N,Net-(C5-Pad2)*%
X123000000Y-116000000D03*
X120500000Y-104000000D03*
%TO.N,Net-(BT1--)*%
X145000000Y-99000000D03*
X147000000Y-104000000D03*
X148000000Y-105000000D03*
X164000000Y-97980400D03*
%TO.N,Net-(U3-OD)*%
X161000000Y-96119598D03*
X165500000Y-95000000D03*
%TO.N,Net-(J1-SHIELD)*%
X162000000Y-128000000D03*
X156000000Y-129600000D03*
X155486189Y-127513584D03*
X117500000Y-105000000D03*
%TO.N,Net-(U3-CS)*%
X132500000Y-98500000D03*
X143000000Y-105650000D03*
%TD*%
D26*
%TO.N,GND*%
X131500000Y-120500000D02*
X127668650Y-120500000D01*
X125802149Y-104400000D02*
X125168650Y-105033499D01*
X155122662Y-128000000D02*
X154627215Y-128000000D01*
X163651785Y-125019000D02*
X164121000Y-125488215D01*
X150795000Y-120500000D02*
X155750000Y-125455000D01*
X153500000Y-120500000D02*
X158000000Y-116000000D01*
X163651785Y-127721000D02*
X162988215Y-127721000D01*
X162917157Y-127649943D02*
X162601000Y-127966100D01*
X125168650Y-102083499D02*
X126099000Y-102083499D01*
X161399000Y-128000000D02*
X159749100Y-128000000D01*
X153879000Y-125488215D02*
X154348215Y-125019000D01*
X124167650Y-100134499D02*
X125168650Y-99133499D01*
X154348215Y-127721000D02*
X153879000Y-127251785D01*
X162601000Y-127966100D02*
X162601000Y-128248943D01*
X120892783Y-102233499D02*
X121990784Y-101135498D01*
X159015900Y-128401000D02*
X157948943Y-128401000D01*
X124583499Y-102083499D02*
X124500000Y-102000000D01*
X162988215Y-125019000D02*
X163651785Y-125019000D01*
X156899000Y-128248943D02*
X156899000Y-128000000D01*
X154348215Y-125019000D02*
X155011785Y-125019000D01*
X156899000Y-128000000D02*
X155849716Y-128000000D01*
X132601000Y-121601000D02*
X131500000Y-120500000D01*
X155849716Y-128000000D02*
X155735132Y-128114584D01*
X164121000Y-125488215D02*
X164121000Y-127251785D01*
X155314000Y-125019000D02*
X155750000Y-125455000D01*
X157948943Y-128401000D02*
X157748943Y-128601000D01*
X120776150Y-102233499D02*
X121205098Y-102233499D01*
X120776150Y-102233499D02*
X120892783Y-102233499D01*
X138500000Y-120500000D02*
X137399000Y-121601000D01*
X125168650Y-99133499D02*
X125168650Y-96183499D01*
X122500000Y-100134499D02*
X124167650Y-100134499D01*
X122000000Y-99634499D02*
X122500000Y-100134499D01*
X157748943Y-128601000D02*
X157251057Y-128601000D01*
X160500000Y-98000000D02*
X160500000Y-98500000D01*
X155011785Y-125019000D02*
X155314000Y-125019000D01*
X162400002Y-96099998D02*
X160500000Y-98000000D01*
X127668650Y-120500000D02*
X125168650Y-118000000D01*
X122843650Y-110500000D02*
X123343650Y-110000000D01*
X154627215Y-128000000D02*
X154348215Y-127721000D01*
X111581150Y-101533499D02*
X113521651Y-103474000D01*
X162988215Y-127721000D02*
X162917157Y-127649943D01*
X138500000Y-120500000D02*
X150795000Y-120500000D01*
X119361310Y-103474000D02*
X119677150Y-103789840D01*
X157251057Y-128601000D02*
X156899000Y-128248943D01*
X159749100Y-128000000D02*
X159583000Y-128166100D01*
X162250000Y-125455000D02*
X162686000Y-125019000D01*
X125168650Y-118000000D02*
X125500000Y-117668650D01*
X159583000Y-128166100D02*
X159348100Y-128401000D01*
X150795000Y-120500000D02*
X153500000Y-120500000D01*
X119677150Y-103789840D02*
X119677150Y-105422850D01*
X161399000Y-128248943D02*
X161399000Y-128000000D01*
X155237246Y-128114584D02*
X155122662Y-128000000D01*
X120500000Y-108500000D02*
X120500000Y-106500000D01*
X119677150Y-105422850D02*
X118600000Y-106500000D01*
X122500000Y-110500000D02*
X122843650Y-110500000D01*
X160000000Y-103000000D02*
X160500000Y-102500000D01*
X125500000Y-116500000D02*
X125000000Y-116000000D01*
X155735132Y-128114584D02*
X155237246Y-128114584D01*
X125168650Y-102083499D02*
X124583499Y-102083499D01*
X125500000Y-117668650D02*
X125500000Y-116500000D01*
X113521651Y-103474000D02*
X119361310Y-103474000D01*
X153879000Y-127251785D02*
X153879000Y-125488215D01*
X122000000Y-99500000D02*
X122000000Y-99634499D01*
X162686000Y-125019000D02*
X162988215Y-125019000D01*
X161751057Y-128601000D02*
X161399000Y-128248943D01*
X118876150Y-96213499D02*
X118876150Y-96623850D01*
X119677150Y-105677150D02*
X119677150Y-105422850D01*
X121205098Y-102233499D02*
X121980227Y-103008628D01*
X162248943Y-128601000D02*
X161751057Y-128601000D01*
X126099000Y-102083499D02*
X126500000Y-102484499D01*
X162820300Y-96099998D02*
X162400002Y-96099998D01*
X121687150Y-100134499D02*
X122500000Y-100134499D01*
X120776150Y-99223499D02*
X121687150Y-100134499D01*
X122500000Y-110500000D02*
X120500000Y-108500000D01*
X162601000Y-128248943D02*
X162248943Y-128601000D01*
X118876150Y-96623850D02*
X118000000Y-97500000D01*
X137399000Y-121601000D02*
X132601000Y-121601000D01*
X159348100Y-128401000D02*
X159015900Y-128401000D01*
X164121000Y-127251785D02*
X163651785Y-127721000D01*
X160500000Y-102500000D02*
X161362500Y-102500000D01*
X120500000Y-106500000D02*
X119677150Y-105677150D01*
X126000000Y-104400000D02*
X125802149Y-104400000D01*
%TO.N,Net-(U1-PROG)*%
X163637500Y-101550000D02*
X163550000Y-101550000D01*
X124000000Y-94500000D02*
X124000000Y-95527149D01*
X163550000Y-101550000D02*
X162500000Y-100500000D01*
X124000000Y-95527149D02*
X123343650Y-96183499D01*
%TO.N,Net-(BT1-+)*%
X113980150Y-97889369D02*
X115314280Y-99223499D01*
X147849943Y-106000000D02*
X148673649Y-105176294D01*
X148673649Y-105176294D02*
X148673649Y-102983498D01*
X113980150Y-96875629D02*
X113980150Y-97889369D01*
X118876150Y-99223499D02*
X118876150Y-98113499D01*
X111581150Y-106083499D02*
X109000000Y-108664649D01*
X119727150Y-116769130D02*
X118141519Y-115183499D01*
X109980150Y-104482499D02*
X109980150Y-96077629D01*
D27*
X113000000Y-72002065D02*
X113000000Y-64219649D01*
D26*
X115314280Y-99223499D02*
X118876150Y-99223499D01*
X120877150Y-93899000D02*
X120776150Y-94000000D01*
X118876150Y-98113499D02*
X120776150Y-96213499D01*
D27*
X120776150Y-79778215D02*
X113000000Y-72002065D01*
D26*
X118141519Y-115183499D02*
X115581150Y-115183499D01*
D27*
X120776150Y-94000000D02*
X120776150Y-79778215D01*
D26*
X110325280Y-95732499D02*
X112837020Y-95732499D01*
X148673649Y-102983498D02*
X148373650Y-102683499D01*
X146637500Y-106000000D02*
X147849943Y-106000000D01*
X112837020Y-95732499D02*
X113980150Y-96875629D01*
X148373650Y-102683499D02*
X148373650Y-101834499D01*
D27*
X113000000Y-64219649D02*
X117261150Y-59958499D01*
D26*
X146637500Y-106000000D02*
X146104842Y-106000000D01*
X111581150Y-106083499D02*
X109980150Y-104482499D01*
X119382020Y-118576000D02*
X119727150Y-118230870D01*
X119727150Y-118230870D02*
X119727150Y-116769130D01*
D27*
X120776150Y-96213499D02*
X120776150Y-94000000D01*
D26*
X109980150Y-96077629D02*
X110325280Y-95732499D01*
X128000000Y-95500000D02*
X126399000Y-93899000D01*
X146104842Y-106000000D02*
X145926000Y-106178842D01*
X109000000Y-108664649D02*
X109000000Y-118000000D01*
X109000000Y-118000000D02*
X109576000Y-118576000D01*
X126399000Y-93899000D02*
X120877150Y-93899000D01*
X109576000Y-118576000D02*
X119382020Y-118576000D01*
%TO.N,Net-(J1-CC1)*%
X157750000Y-126750000D02*
X157750000Y-125455000D01*
X132084499Y-103084499D02*
X140000000Y-111000000D01*
X157500000Y-127000000D02*
X157750000Y-126750000D01*
X124344650Y-103084499D02*
X132084499Y-103084499D01*
X123343650Y-102083499D02*
X124344650Y-103084499D01*
%TO.N,Net-(J1-CC2)*%
X124000000Y-106500000D02*
X123343650Y-105843650D01*
X125000000Y-106500000D02*
X124000000Y-106500000D01*
X123343650Y-105843650D02*
X123343650Y-105033499D01*
X159182000Y-128000000D02*
X157500000Y-128000000D01*
X160750000Y-125455000D02*
X160750000Y-126432000D01*
X160750000Y-126432000D02*
X159182000Y-128000000D01*
%TO.N,Net-(D1-A)*%
X150000000Y-100000000D02*
X147500000Y-100000000D01*
X147500000Y-100000000D02*
X146882149Y-100000000D01*
X116516501Y-96983499D02*
X119000000Y-94500000D01*
X115581150Y-96983499D02*
X116516501Y-96983499D01*
X151800000Y-111000000D02*
X151800000Y-108700000D01*
X151800000Y-108700000D02*
X152500000Y-108000000D01*
X146882149Y-100000000D02*
X146098650Y-100783499D01*
%TO.N,Net-(U2-FB)*%
X137716450Y-109283550D02*
X131918399Y-103485499D01*
X142082499Y-101082499D02*
X144000000Y-103000000D01*
X125168650Y-110000000D02*
X137000000Y-110000000D01*
X122530150Y-101398339D02*
X122845990Y-101082499D01*
X122530150Y-102768659D02*
X122530150Y-101398339D01*
X123343650Y-108175000D02*
X125168650Y-110000000D01*
X122845990Y-101082499D02*
X142082499Y-101082499D01*
X137000000Y-110000000D02*
X137716450Y-109283550D01*
X131918399Y-103485499D02*
X123246990Y-103485499D01*
X123343650Y-107983499D02*
X123343650Y-108175000D01*
X123246990Y-103485499D02*
X122530150Y-102768659D01*
%TO.N,Net-(C5-Pad2)*%
X123343650Y-116343650D02*
X123000000Y-116000000D01*
X123343650Y-118000000D02*
X123343650Y-116343650D01*
%TO.N,Net-(U1-V_{CC})*%
X162975001Y-103450000D02*
X163637500Y-103450000D01*
X162674000Y-103148999D02*
X162975001Y-103450000D01*
X153450000Y-106000000D02*
X158501000Y-100949000D01*
X162065968Y-100949000D02*
X162674000Y-101557032D01*
X162674000Y-101557032D02*
X162674000Y-103148999D01*
X158501000Y-100949000D02*
X162065968Y-100949000D01*
%TO.N,Net-(D1-K)*%
X115581150Y-101533499D02*
X111581150Y-97533499D01*
X117533499Y-101533499D02*
X115581150Y-101533499D01*
X123482499Y-106982499D02*
X121577150Y-105077150D01*
X121259499Y-103259499D02*
X119902150Y-103259499D01*
X118233499Y-102233499D02*
X117533499Y-101533499D01*
X125168650Y-107983499D02*
X124167650Y-106982499D01*
X118876150Y-102233499D02*
X118233499Y-102233499D01*
X111581150Y-97533499D02*
X111581150Y-96983499D01*
X121577150Y-103577150D02*
X121259499Y-103259499D01*
X119902150Y-103259499D02*
X118876150Y-102233499D01*
X121577150Y-105077150D02*
X121577150Y-103577150D01*
X124167650Y-106982499D02*
X123482499Y-106982499D01*
%TO.N,Net-(BT1--)*%
X163980400Y-98000000D02*
X164000000Y-97980400D01*
X144500000Y-98197349D02*
X144500000Y-98500000D01*
X147000000Y-104687500D02*
X146637500Y-105050000D01*
X146687500Y-105000000D02*
X146637500Y-105050000D01*
X162820300Y-98000000D02*
X163980400Y-98000000D01*
X144500000Y-98500000D02*
X145000000Y-99000000D01*
X147000000Y-104000000D02*
X147000000Y-104687500D01*
X148000000Y-105000000D02*
X146687500Y-105000000D01*
X117261150Y-70958499D02*
X144500000Y-98197349D01*
%TO.N,Net-(U3-OD)*%
X144362500Y-105050000D02*
X141950000Y-105050000D01*
X142051000Y-107551000D02*
X148487840Y-107551000D01*
X148487840Y-107551000D02*
X159919242Y-96119598D01*
X141500000Y-107000000D02*
X142051000Y-107551000D01*
X165500000Y-95000000D02*
X165500000Y-96099998D01*
X159919242Y-96119598D02*
X161000000Y-96119598D01*
X141500000Y-105500000D02*
X141500000Y-107000000D01*
X141950000Y-105050000D02*
X141500000Y-105500000D01*
%TO.N,Net-(U3-OC)*%
X165000000Y-97630399D02*
X164710050Y-97630399D01*
X145808032Y-105525000D02*
X145755190Y-105577842D01*
X145325000Y-106427785D02*
X145436107Y-106538892D01*
X145674000Y-104709032D02*
X145674000Y-105390968D01*
X149823933Y-95519598D02*
X144901000Y-100442531D01*
X145325000Y-105929899D02*
X145325000Y-106427785D01*
X145674000Y-105390968D02*
X145808032Y-105525000D01*
X144901000Y-100442531D02*
X144901000Y-103207032D01*
X145436107Y-106538892D02*
X145024999Y-106950000D01*
X144901000Y-103207032D02*
X146142968Y-104449000D01*
X145024999Y-106950000D02*
X144362500Y-106950000D01*
X164710050Y-97630399D02*
X164710050Y-95519598D01*
X145934032Y-104449000D02*
X145674000Y-104709032D01*
X164710050Y-95519598D02*
X149823933Y-95519598D01*
X146142968Y-104449000D02*
X145934032Y-104449000D01*
X145677057Y-105577842D02*
X145325000Y-105929899D01*
X145755190Y-105577842D02*
X145677057Y-105577842D01*
X165000000Y-98000000D02*
X165000000Y-97630399D01*
X165500000Y-98000000D02*
X165000000Y-98000000D01*
%TO.N,Net-(Q1-Pad2)*%
X162030350Y-98580400D02*
X166289950Y-98580400D01*
X162399951Y-97049999D02*
X162030350Y-97419600D01*
X162030350Y-97419600D02*
X162030350Y-98580400D01*
X165920349Y-97049999D02*
X165500000Y-97049999D01*
X162820300Y-97049999D02*
X162399951Y-97049999D01*
X166289950Y-97419600D02*
X165920349Y-97049999D01*
X166289950Y-98580400D02*
X166289950Y-97419600D01*
%TO.N,Net-(J1-SHIELD)*%
X154680000Y-126707395D02*
X155486189Y-127513584D01*
X154680000Y-126370000D02*
X154680000Y-126707395D01*
X163320000Y-126680000D02*
X162000000Y-128000000D01*
X118376150Y-105000000D02*
X118876150Y-104500000D01*
X155050000Y-130550000D02*
X156000000Y-129600000D01*
X117500000Y-105000000D02*
X118376150Y-105000000D01*
X154680000Y-130550000D02*
X155050000Y-130550000D01*
X163320000Y-126370000D02*
X163320000Y-126680000D01*
D27*
%TO.N,Net-(D4-A)*%
X162545000Y-122455000D02*
X161450000Y-122455000D01*
D26*
X161349000Y-124429000D02*
X161450000Y-124530000D01*
D27*
X145260501Y-112289499D02*
X117237150Y-112289499D01*
X171022000Y-106322115D02*
X171022000Y-113978000D01*
D26*
X161450000Y-124530000D02*
X161450000Y-125455000D01*
D27*
X151550000Y-105823156D02*
X157873156Y-99500000D01*
D26*
X156550000Y-125455000D02*
X156550000Y-124678000D01*
X161450000Y-125455000D02*
X161450000Y-122455000D01*
X156550000Y-124678000D02*
X156799000Y-124429000D01*
D27*
X151550000Y-106000000D02*
X145260501Y-112289499D01*
X117237150Y-112289499D02*
X115581150Y-110633499D01*
X171022000Y-113978000D02*
X162545000Y-122455000D01*
D26*
X156799000Y-124429000D02*
X161349000Y-124429000D01*
D27*
X164199885Y-99500000D02*
X171022000Y-106322115D01*
X157873156Y-99500000D02*
X164199885Y-99500000D01*
X151550000Y-106000000D02*
X151550000Y-105823156D01*
D26*
%TO.N,unconnected-(J2-Shield-Pad5)*%
X128430000Y-123210000D02*
X141570000Y-123210000D01*
%TO.N,Net-(J2-D+)*%
X136000000Y-120500000D02*
X134000000Y-120500000D01*
D27*
%TO.N,Net-(U1-BAT)*%
X160799001Y-114700999D02*
X163872785Y-111627215D01*
X163872785Y-111627215D02*
X163872785Y-105960285D01*
D26*
X120776150Y-115500000D02*
X121276150Y-115000000D01*
D27*
X156197471Y-114700999D02*
X160799001Y-114700999D01*
X120776150Y-115500000D02*
X120776150Y-117500000D01*
X155202529Y-114700999D02*
X156197470Y-114701000D01*
D26*
X163872785Y-105960285D02*
X161413500Y-103501000D01*
D27*
X121575150Y-114701000D02*
X155202529Y-114700999D01*
X156197470Y-114701000D02*
X156197471Y-114700999D01*
D26*
X161362500Y-103450000D02*
X161537100Y-103450000D01*
D27*
X121276150Y-115000000D02*
X121575150Y-114701000D01*
D26*
%TO.N,Net-(U3-CS)*%
X122407650Y-98197499D02*
X123343650Y-99133499D01*
X119975150Y-98513339D02*
X120290990Y-98197499D01*
X130464501Y-100535499D02*
X120576990Y-100535499D01*
X132500000Y-98500000D02*
X130464501Y-100535499D01*
X143350000Y-106000000D02*
X143000000Y-105650000D01*
X120290990Y-98197499D02*
X122407650Y-98197499D01*
X120576990Y-100535499D02*
X119975150Y-99933659D01*
X144362500Y-106000000D02*
X143350000Y-106000000D01*
X119975150Y-99933659D02*
X119975150Y-98513339D01*
%TO.N,Net-(D3-A)*%
X114330150Y-107334499D02*
X115581150Y-106083499D01*
X118876150Y-117500000D02*
X111461491Y-117500000D01*
X110030150Y-109748339D02*
X112443990Y-107334499D01*
X110030150Y-116068659D02*
X110030150Y-109748339D01*
X111461491Y-117500000D02*
X110030150Y-116068659D01*
X112443990Y-107334499D02*
X114330150Y-107334499D01*
%TO.N,5V_SYS*%
X113264649Y-113500000D02*
X111581150Y-111816501D01*
D27*
X158200000Y-111000000D02*
X155700000Y-113500000D01*
D26*
X113264649Y-113500000D02*
X111581150Y-115183499D01*
D27*
X155700000Y-113500000D02*
X113264649Y-113500000D01*
D26*
X111581150Y-111816501D02*
X111581150Y-110633499D01*
%TD*%
%TA.AperFunction,Conductor*%
%TO.N,GND*%
G36*
X160392539Y-101319185D02*
G01*
X160438294Y-101371989D01*
X160449500Y-101423500D01*
X160449500Y-101731522D01*
X160453254Y-101755224D01*
X160444296Y-101824517D01*
X160418462Y-101862298D01*
X160332318Y-101948442D01*
X160332314Y-101948447D01*
X160248718Y-102089801D01*
X160202899Y-102247513D01*
X160202704Y-102249998D01*
X160202705Y-102250000D01*
X161238500Y-102250000D01*
X161305539Y-102269685D01*
X161351294Y-102322489D01*
X161362500Y-102374000D01*
X161362500Y-102626000D01*
X161342815Y-102693039D01*
X161290011Y-102738794D01*
X161238500Y-102750000D01*
X160202705Y-102750000D01*
X160202704Y-102750001D01*
X160202899Y-102752486D01*
X160248718Y-102910198D01*
X160332314Y-103051552D01*
X160332321Y-103051561D01*
X160418460Y-103137700D01*
X160451945Y-103199023D01*
X160453253Y-103244773D01*
X160449500Y-103268475D01*
X160449500Y-103631517D01*
X160455192Y-103667452D01*
X160464354Y-103725304D01*
X160521950Y-103838342D01*
X160521952Y-103838344D01*
X160521954Y-103838347D01*
X160611652Y-103928045D01*
X160611654Y-103928046D01*
X160611658Y-103928050D01*
X160724694Y-103985645D01*
X160724698Y-103985647D01*
X160818475Y-104000499D01*
X160818481Y-104000500D01*
X161365955Y-104000499D01*
X161432994Y-104020183D01*
X161453636Y-104036818D01*
X163105431Y-105688613D01*
X163138916Y-105749936D01*
X163139367Y-105800485D01*
X163122285Y-105886362D01*
X163122285Y-111264985D01*
X163102600Y-111332024D01*
X163085966Y-111352666D01*
X160524452Y-113914180D01*
X160463129Y-113947665D01*
X160436771Y-113950499D01*
X156610231Y-113950499D01*
X156543192Y-113930814D01*
X156497437Y-113878010D01*
X156487493Y-113808852D01*
X156516518Y-113745296D01*
X156522550Y-113738818D01*
X157874549Y-112386819D01*
X157935872Y-112353334D01*
X157962230Y-112350500D01*
X158974676Y-112350500D01*
X158974677Y-112350499D01*
X159047740Y-112335966D01*
X159130601Y-112280601D01*
X159185966Y-112197740D01*
X159200500Y-112124674D01*
X159200500Y-109875326D01*
X159200500Y-109875323D01*
X159200499Y-109875321D01*
X159185967Y-109802264D01*
X159185966Y-109802260D01*
X159164200Y-109769685D01*
X159130601Y-109719399D01*
X159047740Y-109664034D01*
X159047739Y-109664033D01*
X159047735Y-109664032D01*
X158974677Y-109649500D01*
X158974674Y-109649500D01*
X157425326Y-109649500D01*
X157425323Y-109649500D01*
X157352264Y-109664032D01*
X157352260Y-109664033D01*
X157269399Y-109719399D01*
X157214033Y-109802260D01*
X157214032Y-109802264D01*
X157199500Y-109875321D01*
X157199500Y-110887770D01*
X157179815Y-110954809D01*
X157163181Y-110975451D01*
X155425451Y-112713181D01*
X155364128Y-112746666D01*
X155337770Y-112749500D01*
X146161230Y-112749500D01*
X146094191Y-112729815D01*
X146048436Y-112677011D01*
X146038492Y-112607853D01*
X146067517Y-112544297D01*
X146073549Y-112537819D01*
X148736047Y-109875321D01*
X150799500Y-109875321D01*
X150799500Y-112124678D01*
X150814032Y-112197735D01*
X150814033Y-112197739D01*
X150814034Y-112197740D01*
X150869399Y-112280601D01*
X150952260Y-112335966D01*
X150952264Y-112335967D01*
X151025321Y-112350499D01*
X151025324Y-112350500D01*
X151025326Y-112350500D01*
X152574676Y-112350500D01*
X152574677Y-112350499D01*
X152647740Y-112335966D01*
X152730601Y-112280601D01*
X152785966Y-112197740D01*
X152800500Y-112124674D01*
X152800500Y-109875326D01*
X152800500Y-109875323D01*
X152800499Y-109875321D01*
X152785967Y-109802264D01*
X152785966Y-109802260D01*
X152764200Y-109769685D01*
X152730601Y-109719399D01*
X152647740Y-109664034D01*
X152647739Y-109664033D01*
X152647735Y-109664032D01*
X152574677Y-109649500D01*
X152574674Y-109649500D01*
X152274500Y-109649500D01*
X152207461Y-109629815D01*
X152161706Y-109577011D01*
X152150500Y-109525500D01*
X152150500Y-108896544D01*
X152170185Y-108829505D01*
X152186819Y-108808863D01*
X152408863Y-108586819D01*
X152470186Y-108553334D01*
X152496544Y-108550500D01*
X152572472Y-108550500D01*
X152572475Y-108550500D01*
X152712485Y-108512984D01*
X152838015Y-108440509D01*
X152940509Y-108338015D01*
X153012984Y-108212485D01*
X153050500Y-108072475D01*
X153050500Y-107927525D01*
X153012984Y-107787515D01*
X152986235Y-107741185D01*
X152940511Y-107661988D01*
X152940506Y-107661982D01*
X152838017Y-107559493D01*
X152838011Y-107559488D01*
X152712488Y-107487017D01*
X152712489Y-107487017D01*
X152701006Y-107483940D01*
X152572475Y-107449500D01*
X152427525Y-107449500D01*
X152298993Y-107483940D01*
X152287511Y-107487017D01*
X152161988Y-107559488D01*
X152161982Y-107559493D01*
X152059493Y-107661982D01*
X152059488Y-107661988D01*
X151987017Y-107787511D01*
X151987016Y-107787515D01*
X151949500Y-107927525D01*
X151949500Y-107927527D01*
X151949500Y-108003456D01*
X151929815Y-108070495D01*
X151913181Y-108091137D01*
X151519532Y-108484785D01*
X151519530Y-108484788D01*
X151509816Y-108501614D01*
X151481590Y-108550502D01*
X151473388Y-108564708D01*
X151473386Y-108564711D01*
X151473386Y-108564712D01*
X151449500Y-108653856D01*
X151449500Y-108653858D01*
X151449500Y-109525500D01*
X151429815Y-109592539D01*
X151377011Y-109638294D01*
X151325500Y-109649500D01*
X151025323Y-109649500D01*
X150952264Y-109664032D01*
X150952260Y-109664033D01*
X150869399Y-109719399D01*
X150814033Y-109802260D01*
X150814032Y-109802264D01*
X150799500Y-109875321D01*
X148736047Y-109875321D01*
X148829815Y-109781553D01*
X151599549Y-107011818D01*
X151660872Y-106978333D01*
X151687230Y-106975499D01*
X151847871Y-106975499D01*
X151847872Y-106975499D01*
X151907483Y-106969091D01*
X152042331Y-106918796D01*
X152157546Y-106832546D01*
X152243796Y-106717331D01*
X152294091Y-106582483D01*
X152300500Y-106522873D01*
X152300499Y-106185384D01*
X152309145Y-106155938D01*
X152315667Y-106125958D01*
X152319419Y-106120944D01*
X152320183Y-106118346D01*
X152336813Y-106097709D01*
X152487821Y-105946701D01*
X152549142Y-105913218D01*
X152618834Y-105918202D01*
X152674767Y-105960074D01*
X152699184Y-106025538D01*
X152699500Y-106034384D01*
X152699500Y-106522870D01*
X152699501Y-106522876D01*
X152705908Y-106582483D01*
X152756202Y-106717328D01*
X152756206Y-106717335D01*
X152842452Y-106832544D01*
X152842455Y-106832547D01*
X152957664Y-106918793D01*
X152957671Y-106918797D01*
X153002618Y-106935561D01*
X153092517Y-106969091D01*
X153152127Y-106975500D01*
X153747872Y-106975499D01*
X153807483Y-106969091D01*
X153942331Y-106918796D01*
X154057546Y-106832546D01*
X154143796Y-106717331D01*
X154194091Y-106582483D01*
X154200500Y-106522873D01*
X154200499Y-105796542D01*
X154220183Y-105729504D01*
X154236813Y-105708867D01*
X158609863Y-101335819D01*
X158671186Y-101302334D01*
X158697544Y-101299500D01*
X160325500Y-101299500D01*
X160392539Y-101319185D01*
G37*
%TD.AperFunction*%
%TA.AperFunction,Conductor*%
G36*
X117267652Y-105501516D02*
G01*
X117287511Y-105512982D01*
X117287512Y-105512982D01*
X117287515Y-105512984D01*
X117427525Y-105550500D01*
X117427528Y-105550500D01*
X117545409Y-105550500D01*
X117612448Y-105570185D01*
X117658203Y-105622989D01*
X117668147Y-105692147D01*
X117663115Y-105713504D01*
X117610494Y-105872302D01*
X117610493Y-105872309D01*
X117600000Y-105975013D01*
X117600000Y-106250000D01*
X121499999Y-106250000D01*
X121499999Y-105975028D01*
X121499998Y-105975013D01*
X121489506Y-105872304D01*
X121462226Y-105789981D01*
X121459824Y-105720153D01*
X121495555Y-105660110D01*
X121558075Y-105628917D01*
X121627535Y-105636477D01*
X121667613Y-105663295D01*
X122888259Y-106883940D01*
X122921744Y-106945263D01*
X122916760Y-107014955D01*
X122874888Y-107070888D01*
X122843914Y-107087802D01*
X122838822Y-107089701D01*
X122838814Y-107089705D01*
X122723605Y-107175951D01*
X122723602Y-107175954D01*
X122637356Y-107291163D01*
X122637352Y-107291170D01*
X122587058Y-107426016D01*
X122580651Y-107485615D01*
X122580651Y-107485622D01*
X122580650Y-107485634D01*
X122580650Y-108481369D01*
X122580651Y-108481375D01*
X122587058Y-108540982D01*
X122637352Y-108675827D01*
X122637354Y-108675830D01*
X122692632Y-108749672D01*
X122717049Y-108815136D01*
X122702197Y-108883409D01*
X122658463Y-108929521D01*
X122612806Y-108957682D01*
X122488834Y-109081654D01*
X122396793Y-109230875D01*
X122396791Y-109230880D01*
X122341644Y-109397302D01*
X122341643Y-109397309D01*
X122331150Y-109500013D01*
X122331150Y-109750000D01*
X123219650Y-109750000D01*
X123286689Y-109769685D01*
X123332444Y-109822489D01*
X123343650Y-109874000D01*
X123343650Y-110000000D01*
X123469650Y-110000000D01*
X123536689Y-110019685D01*
X123582444Y-110072489D01*
X123593650Y-110124000D01*
X123593650Y-111199999D01*
X123656122Y-111199999D01*
X123656136Y-111199998D01*
X123758847Y-111189505D01*
X123925269Y-111134358D01*
X123925274Y-111134356D01*
X124074495Y-111042315D01*
X124198465Y-110918345D01*
X124290504Y-110769126D01*
X124290992Y-110768081D01*
X124291518Y-110767482D01*
X124294299Y-110762975D01*
X124295068Y-110763449D01*
X124337157Y-110715635D01*
X124404348Y-110696473D01*
X124471232Y-110716679D01*
X124502648Y-110746157D01*
X124548605Y-110807547D01*
X124663814Y-110893793D01*
X124663821Y-110893797D01*
X124704216Y-110908863D01*
X124798667Y-110944091D01*
X124858277Y-110950500D01*
X125479022Y-110950499D01*
X125538633Y-110944091D01*
X125673481Y-110893796D01*
X125788696Y-110807546D01*
X125874946Y-110692331D01*
X125925241Y-110557483D01*
X125931650Y-110497873D01*
X125931650Y-110474500D01*
X125951335Y-110407461D01*
X126004139Y-110361706D01*
X126055650Y-110350500D01*
X137046142Y-110350500D01*
X137046144Y-110350500D01*
X137135288Y-110326614D01*
X137215212Y-110280470D01*
X137583705Y-109911975D01*
X137912319Y-109583363D01*
X137973642Y-109549878D01*
X138043334Y-109554862D01*
X138087681Y-109583363D01*
X139413181Y-110908863D01*
X139446666Y-110970186D01*
X139449500Y-110996544D01*
X139449500Y-111072475D01*
X139487016Y-111212485D01*
X139487017Y-111212488D01*
X139517327Y-111264985D01*
X139559491Y-111338015D01*
X139559493Y-111338017D01*
X139560637Y-111339508D01*
X139561212Y-111340997D01*
X139563555Y-111345054D01*
X139562922Y-111345419D01*
X139585835Y-111404676D01*
X139571799Y-111473122D01*
X139522988Y-111523114D01*
X139462265Y-111538999D01*
X117599379Y-111538999D01*
X117532340Y-111519314D01*
X117511698Y-111502680D01*
X117117968Y-111108950D01*
X117084483Y-111047627D01*
X117081649Y-111021269D01*
X117081649Y-110499986D01*
X122331151Y-110499986D01*
X122341644Y-110602697D01*
X122396791Y-110769119D01*
X122396793Y-110769124D01*
X122488834Y-110918345D01*
X122612804Y-111042315D01*
X122762025Y-111134356D01*
X122762030Y-111134358D01*
X122928452Y-111189505D01*
X122928459Y-111189506D01*
X123031169Y-111199999D01*
X123093649Y-111199998D01*
X123093650Y-111199998D01*
X123093650Y-110250000D01*
X122331151Y-110250000D01*
X122331151Y-110499986D01*
X117081649Y-110499986D01*
X117081649Y-109935628D01*
X117081648Y-109935622D01*
X117081647Y-109935615D01*
X117075241Y-109876016D01*
X117047733Y-109802264D01*
X117024947Y-109741170D01*
X117024943Y-109741163D01*
X116938697Y-109625954D01*
X116938694Y-109625951D01*
X116823485Y-109539705D01*
X116823478Y-109539701D01*
X116688632Y-109489407D01*
X116688633Y-109489407D01*
X116629033Y-109483000D01*
X116629031Y-109482999D01*
X116629023Y-109482999D01*
X116629014Y-109482999D01*
X114533279Y-109482999D01*
X114533273Y-109483000D01*
X114473666Y-109489407D01*
X114338821Y-109539701D01*
X114338814Y-109539705D01*
X114223605Y-109625951D01*
X114223602Y-109625954D01*
X114137356Y-109741163D01*
X114137352Y-109741170D01*
X114087058Y-109876016D01*
X114080651Y-109935615D01*
X114080651Y-109935622D01*
X114080650Y-109935634D01*
X114080650Y-111331369D01*
X114080651Y-111331375D01*
X114087058Y-111390982D01*
X114137352Y-111525827D01*
X114137356Y-111525834D01*
X114223602Y-111641043D01*
X114223605Y-111641046D01*
X114338814Y-111727292D01*
X114338821Y-111727296D01*
X114473667Y-111777590D01*
X114473666Y-111777590D01*
X114480594Y-111778334D01*
X114533277Y-111783999D01*
X115618919Y-111783998D01*
X115685958Y-111803683D01*
X115706600Y-111820317D01*
X116084023Y-112197740D01*
X116424103Y-112537819D01*
X116457588Y-112599142D01*
X116452604Y-112668833D01*
X116410732Y-112724767D01*
X116345268Y-112749184D01*
X116336422Y-112749500D01*
X113190726Y-112749500D01*
X113104849Y-112766582D01*
X113035257Y-112760355D01*
X112992977Y-112732646D01*
X112256010Y-111995679D01*
X112222525Y-111934356D01*
X112227509Y-111864664D01*
X112269381Y-111808731D01*
X112334845Y-111784314D01*
X112343691Y-111783998D01*
X112629021Y-111783998D01*
X112629022Y-111783998D01*
X112688633Y-111777590D01*
X112823481Y-111727295D01*
X112938696Y-111641045D01*
X113024946Y-111525830D01*
X113075241Y-111390982D01*
X113081650Y-111331372D01*
X113081649Y-109935627D01*
X113075241Y-109876016D01*
X113047733Y-109802264D01*
X113024947Y-109741170D01*
X113024943Y-109741163D01*
X112938697Y-109625954D01*
X112938694Y-109625951D01*
X112823485Y-109539705D01*
X112823478Y-109539701D01*
X112688632Y-109489407D01*
X112688633Y-109489407D01*
X112629033Y-109483000D01*
X112629031Y-109482999D01*
X112629023Y-109482999D01*
X112629015Y-109482999D01*
X111090532Y-109482999D01*
X111023493Y-109463314D01*
X110977738Y-109410510D01*
X110967794Y-109341352D01*
X110996819Y-109277796D01*
X111002851Y-109271318D01*
X111708530Y-108565640D01*
X112552852Y-107721318D01*
X112614175Y-107687833D01*
X112640533Y-107684999D01*
X114376292Y-107684999D01*
X114376294Y-107684999D01*
X114465438Y-107661113D01*
X114472761Y-107656885D01*
X114545362Y-107614969D01*
X114890013Y-107270316D01*
X114951336Y-107236832D01*
X114977694Y-107233998D01*
X116629021Y-107233998D01*
X116629022Y-107233998D01*
X116688633Y-107227590D01*
X116823481Y-107177295D01*
X116938696Y-107091045D01*
X116988148Y-107024986D01*
X117600001Y-107024986D01*
X117610494Y-107127697D01*
X117665641Y-107294119D01*
X117665643Y-107294124D01*
X117757684Y-107443345D01*
X117881654Y-107567315D01*
X118030875Y-107659356D01*
X118030880Y-107659358D01*
X118197302Y-107714505D01*
X118197309Y-107714506D01*
X118300019Y-107724999D01*
X118850000Y-107724999D01*
X118899972Y-107724999D01*
X118899986Y-107724998D01*
X119002697Y-107714505D01*
X119169119Y-107659358D01*
X119169124Y-107659356D01*
X119318345Y-107567315D01*
X119442317Y-107443343D01*
X119444461Y-107439868D01*
X119446554Y-107437984D01*
X119446798Y-107437677D01*
X119446850Y-107437718D01*
X119496408Y-107393143D01*
X119565371Y-107381920D01*
X119629453Y-107409763D01*
X119655539Y-107439868D01*
X119657682Y-107443343D01*
X119781654Y-107567315D01*
X119930875Y-107659356D01*
X119930880Y-107659358D01*
X120097302Y-107714505D01*
X120097309Y-107714506D01*
X120200019Y-107724999D01*
X120750000Y-107724999D01*
X120799972Y-107724999D01*
X120799986Y-107724998D01*
X120902697Y-107714505D01*
X121069119Y-107659358D01*
X121069124Y-107659356D01*
X121218345Y-107567315D01*
X121342315Y-107443345D01*
X121434356Y-107294124D01*
X121434358Y-107294119D01*
X121489505Y-107127697D01*
X121489506Y-107127690D01*
X121499999Y-107024986D01*
X121500000Y-107024973D01*
X121500000Y-106750000D01*
X120750000Y-106750000D01*
X120750000Y-107724999D01*
X120200019Y-107724999D01*
X120249999Y-107724998D01*
X120250000Y-107724998D01*
X120250000Y-106750000D01*
X118850000Y-106750000D01*
X118850000Y-107724999D01*
X118300019Y-107724999D01*
X118349999Y-107724998D01*
X118350000Y-107724998D01*
X118350000Y-106750000D01*
X117600001Y-106750000D01*
X117600001Y-107024986D01*
X116988148Y-107024986D01*
X117024946Y-106975830D01*
X117075241Y-106840982D01*
X117081650Y-106781372D01*
X117081649Y-105608900D01*
X117101334Y-105541862D01*
X117154137Y-105496107D01*
X117223296Y-105486163D01*
X117267652Y-105501516D01*
G37*
%TD.AperFunction*%
%TA.AperFunction,Conductor*%
G36*
X141952994Y-101452684D02*
G01*
X141973636Y-101469318D01*
X143413181Y-102908863D01*
X143446666Y-102970186D01*
X143449500Y-102996544D01*
X143449500Y-103072475D01*
X143486082Y-103208998D01*
X143487017Y-103212488D01*
X143559488Y-103338011D01*
X143559490Y-103338013D01*
X143559491Y-103338015D01*
X143661985Y-103440509D01*
X143661986Y-103440510D01*
X143661988Y-103440511D01*
X143787511Y-103512982D01*
X143787512Y-103512982D01*
X143787515Y-103512984D01*
X143927525Y-103550500D01*
X143927528Y-103550500D01*
X144072472Y-103550500D01*
X144072475Y-103550500D01*
X144212485Y-103512984D01*
X144338015Y-103440509D01*
X144409542Y-103368981D01*
X144470861Y-103335499D01*
X144540553Y-103340483D01*
X144596487Y-103382354D01*
X144604607Y-103394665D01*
X144620527Y-103422240D01*
X144620531Y-103422245D01*
X145455137Y-104256851D01*
X145455738Y-104257953D01*
X145456830Y-104258577D01*
X145472436Y-104288531D01*
X145488622Y-104318174D01*
X145488532Y-104319427D01*
X145489113Y-104320542D01*
X145486047Y-104354180D01*
X145483638Y-104387866D01*
X145482847Y-104389280D01*
X145482771Y-104390123D01*
X145480123Y-104394155D01*
X145465255Y-104420764D01*
X145460550Y-104426799D01*
X145393530Y-104493820D01*
X145355615Y-104559491D01*
X145351317Y-104566934D01*
X145351314Y-104566939D01*
X145343321Y-104580784D01*
X145340321Y-104579052D01*
X145306351Y-104621049D01*
X145240016Y-104642992D01*
X145172348Y-104625588D01*
X145148137Y-104606744D01*
X145113347Y-104571954D01*
X145113344Y-104571952D01*
X145113342Y-104571950D01*
X145028348Y-104528643D01*
X145000301Y-104514352D01*
X144906524Y-104499500D01*
X143818482Y-104499500D01*
X143737519Y-104512323D01*
X143724696Y-104514354D01*
X143611658Y-104571950D01*
X143611657Y-104571951D01*
X143611652Y-104571954D01*
X143520426Y-104663181D01*
X143459103Y-104696666D01*
X143432745Y-104699500D01*
X141903856Y-104699500D01*
X141814712Y-104723386D01*
X141814709Y-104723387D01*
X141734791Y-104769527D01*
X141734786Y-104769531D01*
X141219531Y-105284786D01*
X141219527Y-105284791D01*
X141181592Y-105350498D01*
X141181592Y-105350499D01*
X141173386Y-105364710D01*
X141149500Y-105453856D01*
X141149500Y-107046143D01*
X141168697Y-107117788D01*
X141168697Y-107117789D01*
X141173385Y-107135286D01*
X141219527Y-107215208D01*
X141219529Y-107215211D01*
X141219530Y-107215212D01*
X141835788Y-107831470D01*
X141893365Y-107864712D01*
X141915712Y-107877614D01*
X142004856Y-107901500D01*
X142004857Y-107901500D01*
X142004858Y-107901500D01*
X148287769Y-107901500D01*
X148354808Y-107921185D01*
X148400563Y-107973989D01*
X148410507Y-108043147D01*
X148381482Y-108106703D01*
X148375450Y-108113181D01*
X144985952Y-111502680D01*
X144924629Y-111536165D01*
X144898271Y-111538999D01*
X140537735Y-111538999D01*
X140470696Y-111519314D01*
X140424941Y-111466510D01*
X140414997Y-111397352D01*
X140436913Y-111345324D01*
X140436445Y-111345054D01*
X140438597Y-111341326D01*
X140439363Y-111339508D01*
X140440502Y-111338021D01*
X140440509Y-111338015D01*
X140512984Y-111212485D01*
X140550500Y-111072475D01*
X140550500Y-110927525D01*
X140512984Y-110787515D01*
X140499089Y-110763449D01*
X140440511Y-110661988D01*
X140440506Y-110661982D01*
X140338017Y-110559493D01*
X140338011Y-110559488D01*
X140212488Y-110487017D01*
X140212489Y-110487017D01*
X140201006Y-110483940D01*
X140072475Y-110449500D01*
X140072472Y-110449500D01*
X139996544Y-110449500D01*
X139929505Y-110429815D01*
X139908863Y-110413181D01*
X132299712Y-102804030D01*
X132299707Y-102804026D01*
X132220826Y-102758485D01*
X132219787Y-102757885D01*
X132219786Y-102757884D01*
X132219787Y-102757884D01*
X132214141Y-102756372D01*
X132148538Y-102738794D01*
X132130643Y-102733999D01*
X132130642Y-102733999D01*
X126303086Y-102733999D01*
X126236047Y-102714314D01*
X126190292Y-102661510D01*
X126179728Y-102597395D01*
X126181149Y-102583482D01*
X126181150Y-102583472D01*
X126181150Y-102333499D01*
X125292650Y-102333499D01*
X125225611Y-102313814D01*
X125179856Y-102261010D01*
X125168650Y-102209499D01*
X125168650Y-101957499D01*
X125188335Y-101890460D01*
X125241139Y-101844705D01*
X125292650Y-101833499D01*
X126181149Y-101833499D01*
X126181149Y-101583527D01*
X126181148Y-101583514D01*
X126179727Y-101569602D01*
X126192496Y-101500909D01*
X126240377Y-101450024D01*
X126303085Y-101432999D01*
X141885955Y-101432999D01*
X141952994Y-101452684D01*
G37*
%TD.AperFunction*%
%TA.AperFunction,Conductor*%
G36*
X131788894Y-103855684D02*
G01*
X131809536Y-103872318D01*
X134490977Y-106553759D01*
X137133087Y-109195868D01*
X137166572Y-109257191D01*
X137161588Y-109326883D01*
X137133087Y-109371230D01*
X136891137Y-109613181D01*
X136829814Y-109646666D01*
X136803456Y-109649500D01*
X126055649Y-109649500D01*
X125988610Y-109629815D01*
X125942855Y-109577011D01*
X125931649Y-109525500D01*
X125931649Y-109502129D01*
X125931648Y-109502123D01*
X125931421Y-109500013D01*
X125925241Y-109442517D01*
X125913303Y-109410510D01*
X125874947Y-109307671D01*
X125874943Y-109307664D01*
X125788697Y-109192455D01*
X125788694Y-109192452D01*
X125673485Y-109106206D01*
X125665696Y-109101953D01*
X125666981Y-109099598D01*
X125622176Y-109066055D01*
X125597762Y-109000590D01*
X125612616Y-108932318D01*
X125662024Y-108882914D01*
X125669139Y-108879665D01*
X125673476Y-108877296D01*
X125673481Y-108877295D01*
X125788696Y-108791045D01*
X125874946Y-108675830D01*
X125925241Y-108540982D01*
X125931650Y-108481372D01*
X125931649Y-107485627D01*
X125925241Y-107426016D01*
X125916173Y-107401704D01*
X125874947Y-107291170D01*
X125874943Y-107291163D01*
X125788697Y-107175954D01*
X125788694Y-107175951D01*
X125673485Y-107089705D01*
X125673478Y-107089701D01*
X125538633Y-107039408D01*
X125524760Y-107037916D01*
X125460210Y-107011176D01*
X125420364Y-106953782D01*
X125417873Y-106883957D01*
X125436701Y-106845202D01*
X125436445Y-106845054D01*
X125438519Y-106841460D01*
X125439651Y-106839132D01*
X125440504Y-106838019D01*
X125440509Y-106838015D01*
X125512984Y-106712485D01*
X125550500Y-106572475D01*
X125550500Y-106427525D01*
X125533165Y-106362830D01*
X125534828Y-106292984D01*
X125573990Y-106235122D01*
X125613936Y-106213034D01*
X125750269Y-106167857D01*
X125750274Y-106167855D01*
X125899495Y-106075814D01*
X126023465Y-105951844D01*
X126115506Y-105802623D01*
X126115508Y-105802618D01*
X126170655Y-105636196D01*
X126170656Y-105636189D01*
X126181149Y-105533485D01*
X126181150Y-105533472D01*
X126181150Y-105283499D01*
X125292650Y-105283499D01*
X125225611Y-105263814D01*
X125179856Y-105211010D01*
X125168650Y-105159499D01*
X125168650Y-104907499D01*
X125188335Y-104840460D01*
X125241139Y-104794705D01*
X125292650Y-104783499D01*
X126181149Y-104783499D01*
X126181149Y-104533527D01*
X126181148Y-104533512D01*
X126170655Y-104430801D01*
X126115508Y-104264379D01*
X126115506Y-104264374D01*
X126023465Y-104115153D01*
X125955992Y-104047680D01*
X125922507Y-103986357D01*
X125927491Y-103916665D01*
X125969363Y-103860732D01*
X126034827Y-103836315D01*
X126043673Y-103835999D01*
X131721855Y-103835999D01*
X131788894Y-103855684D01*
G37*
%TD.AperFunction*%
%TA.AperFunction,Conductor*%
G36*
X110473664Y-98127588D02*
G01*
X110473667Y-98127590D01*
X110533277Y-98133999D01*
X111634605Y-98133998D01*
X111701644Y-98153683D01*
X111722286Y-98170317D01*
X114096158Y-100544189D01*
X114129643Y-100605512D01*
X114124659Y-100675202D01*
X114087059Y-100776013D01*
X114087058Y-100776015D01*
X114080651Y-100835615D01*
X114080651Y-100835622D01*
X114080650Y-100835634D01*
X114080650Y-102231369D01*
X114080651Y-102231375D01*
X114087058Y-102290982D01*
X114137352Y-102425827D01*
X114137356Y-102425834D01*
X114223602Y-102541043D01*
X114223605Y-102541046D01*
X114338814Y-102627292D01*
X114338821Y-102627296D01*
X114473667Y-102677590D01*
X114473666Y-102677590D01*
X114480594Y-102678334D01*
X114533277Y-102683999D01*
X116629022Y-102683998D01*
X116688633Y-102677590D01*
X116823481Y-102627295D01*
X116938696Y-102541045D01*
X117024946Y-102425830D01*
X117075241Y-102290982D01*
X117081650Y-102231372D01*
X117081650Y-102007999D01*
X117084200Y-101999313D01*
X117082912Y-101990352D01*
X117093890Y-101966311D01*
X117101335Y-101940960D01*
X117108175Y-101935032D01*
X117111937Y-101926796D01*
X117134171Y-101912506D01*
X117154139Y-101895205D01*
X117164653Y-101892917D01*
X117170715Y-101889022D01*
X117205650Y-101883999D01*
X117336955Y-101883999D01*
X117403994Y-101903684D01*
X117424636Y-101920318D01*
X118018286Y-102513968D01*
X118063650Y-102540159D01*
X118111866Y-102590726D01*
X118125650Y-102647545D01*
X118125650Y-102756368D01*
X118125651Y-102756372D01*
X118132058Y-102815982D01*
X118182352Y-102950827D01*
X118182356Y-102950834D01*
X118268602Y-103066043D01*
X118268605Y-103066046D01*
X118383814Y-103152292D01*
X118383821Y-103152296D01*
X118408617Y-103161544D01*
X118518667Y-103202590D01*
X118578277Y-103208999D01*
X119174022Y-103208998D01*
X119233633Y-103202590D01*
X119243400Y-103198946D01*
X119313090Y-103193961D01*
X119374411Y-103227442D01*
X119686938Y-103539969D01*
X119697622Y-103546137D01*
X119697623Y-103546138D01*
X119765434Y-103585289D01*
X119766857Y-103586111D01*
X119766859Y-103586111D01*
X119766862Y-103586113D01*
X119856006Y-103609999D01*
X119874966Y-103609999D01*
X119942005Y-103629684D01*
X119987760Y-103682488D01*
X119997704Y-103751646D01*
X119989529Y-103781447D01*
X119987017Y-103787510D01*
X119973966Y-103836219D01*
X119949500Y-103927525D01*
X119949500Y-104072475D01*
X119987016Y-104212485D01*
X119987017Y-104212487D01*
X120009036Y-104250624D01*
X120025650Y-104312626D01*
X120025650Y-105022870D01*
X120025651Y-105022876D01*
X120032058Y-105082483D01*
X120061657Y-105161841D01*
X120066641Y-105231533D01*
X120033156Y-105292856D01*
X119984480Y-105322879D01*
X119930886Y-105340638D01*
X119930875Y-105340643D01*
X119781654Y-105432684D01*
X119657683Y-105556655D01*
X119657681Y-105556658D01*
X119655536Y-105560136D01*
X119653442Y-105562018D01*
X119653202Y-105562323D01*
X119653150Y-105562281D01*
X119634083Y-105579429D01*
X119614715Y-105600808D01*
X119608428Y-105602503D01*
X119603587Y-105606858D01*
X119575114Y-105611490D01*
X119547257Y-105619005D01*
X119541050Y-105617032D01*
X119534624Y-105618078D01*
X119508168Y-105606581D01*
X119480669Y-105597842D01*
X119475380Y-105592334D01*
X119470543Y-105590232D01*
X119454514Y-105574145D01*
X119425250Y-105538823D01*
X119413644Y-105511846D01*
X119399570Y-105486071D01*
X119399995Y-105480120D01*
X119397638Y-105474640D01*
X119402458Y-105445674D01*
X119404554Y-105416379D01*
X119408129Y-105411602D01*
X119409109Y-105405719D01*
X119428825Y-105383957D01*
X119446426Y-105360446D01*
X119483696Y-105332546D01*
X119569946Y-105217331D01*
X119620241Y-105082483D01*
X119626650Y-105022873D01*
X119626649Y-103977128D01*
X119620241Y-103917517D01*
X119619923Y-103916665D01*
X119569947Y-103782671D01*
X119569945Y-103782668D01*
X119569031Y-103781447D01*
X119483696Y-103667454D01*
X119368481Y-103581204D01*
X119368480Y-103581203D01*
X119368478Y-103581202D01*
X119233636Y-103530910D01*
X119233635Y-103530909D01*
X119233633Y-103530909D01*
X119174023Y-103524500D01*
X119174013Y-103524500D01*
X118578279Y-103524500D01*
X118578273Y-103524501D01*
X118518666Y-103530908D01*
X118383821Y-103581202D01*
X118383814Y-103581206D01*
X118268605Y-103667452D01*
X118268602Y-103667455D01*
X118182356Y-103782664D01*
X118182352Y-103782671D01*
X118132060Y-103917513D01*
X118132059Y-103917517D01*
X118125650Y-103977127D01*
X118125650Y-104312626D01*
X118125651Y-104525500D01*
X118123100Y-104534186D01*
X118124389Y-104543147D01*
X118113411Y-104567183D01*
X118105967Y-104592539D01*
X118099124Y-104598467D01*
X118095364Y-104606703D01*
X118073132Y-104620989D01*
X118053163Y-104638294D01*
X118042647Y-104640581D01*
X118036586Y-104644477D01*
X118001651Y-104649500D01*
X117979386Y-104649500D01*
X117912347Y-104629815D01*
X117891705Y-104613181D01*
X117838017Y-104559493D01*
X117838011Y-104559488D01*
X117712488Y-104487017D01*
X117712489Y-104487017D01*
X117701006Y-104483940D01*
X117572475Y-104449500D01*
X117427525Y-104449500D01*
X117298993Y-104483940D01*
X117287511Y-104487017D01*
X117161988Y-104559488D01*
X117161982Y-104559493D01*
X117059493Y-104661982D01*
X117059488Y-104661988D01*
X116987017Y-104787511D01*
X116987015Y-104787516D01*
X116958206Y-104895030D01*
X116921841Y-104954690D01*
X116858994Y-104985218D01*
X116795099Y-104979117D01*
X116688632Y-104939407D01*
X116688633Y-104939407D01*
X116629033Y-104933000D01*
X116629031Y-104932999D01*
X116629023Y-104932999D01*
X116629014Y-104932999D01*
X114533279Y-104932999D01*
X114533273Y-104933000D01*
X114473666Y-104939407D01*
X114338821Y-104989701D01*
X114338814Y-104989705D01*
X114223605Y-105075951D01*
X114223602Y-105075954D01*
X114137356Y-105191163D01*
X114137352Y-105191170D01*
X114087058Y-105326016D01*
X114081541Y-105377336D01*
X114080651Y-105385622D01*
X114080650Y-105385634D01*
X114080650Y-106781369D01*
X114080651Y-106781378D01*
X114087678Y-106846747D01*
X114075271Y-106915506D01*
X114027659Y-106966642D01*
X113964388Y-106983999D01*
X113197911Y-106983999D01*
X113130872Y-106964314D01*
X113085117Y-106911510D01*
X113074621Y-106846744D01*
X113075240Y-106840984D01*
X113075241Y-106840982D01*
X113081650Y-106781372D01*
X113081649Y-105385627D01*
X113075241Y-105326016D01*
X113074975Y-105325304D01*
X113024947Y-105191170D01*
X113024943Y-105191163D01*
X112938697Y-105075954D01*
X112938694Y-105075951D01*
X112823485Y-104989705D01*
X112823478Y-104989701D01*
X112688632Y-104939407D01*
X112688633Y-104939407D01*
X112629033Y-104933000D01*
X112629031Y-104932999D01*
X112629023Y-104932999D01*
X112629015Y-104932999D01*
X110977694Y-104932999D01*
X110910655Y-104913314D01*
X110890013Y-104896680D01*
X110366969Y-104373636D01*
X110333484Y-104312313D01*
X110330650Y-104285955D01*
X110330650Y-103050326D01*
X110350335Y-102983287D01*
X110403139Y-102937532D01*
X110467255Y-102926968D01*
X110531172Y-102933498D01*
X111331149Y-102933498D01*
X111831150Y-102933498D01*
X112631122Y-102933498D01*
X112631136Y-102933497D01*
X112733847Y-102923004D01*
X112900269Y-102867857D01*
X112900274Y-102867855D01*
X113049495Y-102775814D01*
X113173465Y-102651844D01*
X113265506Y-102502623D01*
X113265508Y-102502618D01*
X113320655Y-102336196D01*
X113320656Y-102336189D01*
X113331149Y-102233485D01*
X113331150Y-102233472D01*
X113331150Y-101783499D01*
X111831150Y-101783499D01*
X111831150Y-102933498D01*
X111331149Y-102933498D01*
X111331150Y-102933497D01*
X111331150Y-101283499D01*
X111831150Y-101283499D01*
X113331149Y-101283499D01*
X113331149Y-100833527D01*
X113331148Y-100833512D01*
X113320655Y-100730801D01*
X113265508Y-100564379D01*
X113265506Y-100564374D01*
X113173465Y-100415153D01*
X113049495Y-100291183D01*
X112900274Y-100199142D01*
X112900269Y-100199140D01*
X112733847Y-100143993D01*
X112733840Y-100143992D01*
X112631136Y-100133499D01*
X111831150Y-100133499D01*
X111831150Y-101283499D01*
X111331150Y-101283499D01*
X111331150Y-100133499D01*
X110531178Y-100133499D01*
X110531160Y-100133500D01*
X110467251Y-100140029D01*
X110398558Y-100127259D01*
X110347674Y-100079378D01*
X110330650Y-100016671D01*
X110330650Y-98250259D01*
X110350335Y-98183220D01*
X110403139Y-98137465D01*
X110467907Y-98126970D01*
X110473664Y-98127588D01*
G37*
%TD.AperFunction*%
%TA.AperFunction,Conductor*%
G36*
X122263935Y-100890840D02*
G01*
X122281119Y-100890659D01*
X122296762Y-100900480D01*
X122314485Y-100905684D01*
X122325738Y-100918670D01*
X122340294Y-100927809D01*
X122348144Y-100944529D01*
X122360240Y-100958488D01*
X122362685Y-100975497D01*
X122369990Y-100991054D01*
X122367555Y-101009362D01*
X122370184Y-101027646D01*
X122363044Y-101043279D01*
X122360779Y-101060313D01*
X122342013Y-101090205D01*
X122338723Y-101094083D01*
X122249680Y-101183127D01*
X122226437Y-101223386D01*
X122220851Y-101233059D01*
X122220849Y-101233063D01*
X122203536Y-101263050D01*
X122179650Y-101352195D01*
X122179650Y-102814802D01*
X122199355Y-102888343D01*
X122199355Y-102888344D01*
X122203535Y-102903945D01*
X122203536Y-102903947D01*
X122211979Y-102918571D01*
X122249677Y-102983867D01*
X122249679Y-102983870D01*
X122249680Y-102983871D01*
X123031778Y-103765969D01*
X123031779Y-103765970D01*
X123031781Y-103765971D01*
X123060703Y-103782669D01*
X123111702Y-103812113D01*
X123200846Y-103835999D01*
X123200858Y-103835999D01*
X123201308Y-103836059D01*
X123201671Y-103836219D01*
X123208696Y-103838102D01*
X123208402Y-103839197D01*
X123265206Y-103864322D01*
X123303680Y-103922644D01*
X123304515Y-103992509D01*
X123267446Y-104051735D01*
X123204242Y-104081517D01*
X123185130Y-104082999D01*
X123033280Y-104082999D01*
X123033273Y-104083000D01*
X122973666Y-104089407D01*
X122838821Y-104139701D01*
X122838814Y-104139705D01*
X122723605Y-104225951D01*
X122723602Y-104225954D01*
X122637356Y-104341163D01*
X122637352Y-104341170D01*
X122587058Y-104476016D01*
X122580651Y-104535615D01*
X122580650Y-104535634D01*
X122580650Y-105285606D01*
X122560965Y-105352645D01*
X122508161Y-105398400D01*
X122439003Y-105408344D01*
X122375447Y-105379319D01*
X122368969Y-105373287D01*
X121963969Y-104968287D01*
X121930484Y-104906964D01*
X121927650Y-104880606D01*
X121927650Y-103531008D01*
X121927650Y-103531006D01*
X121903764Y-103441862D01*
X121902983Y-103440509D01*
X121857623Y-103361944D01*
X121857620Y-103361941D01*
X121857619Y-103361938D01*
X121792362Y-103296681D01*
X121708417Y-103212736D01*
X121674933Y-103151414D01*
X121679917Y-103081722D01*
X121690563Y-103059955D01*
X121710506Y-103027623D01*
X121765655Y-102861196D01*
X121765656Y-102861189D01*
X121776149Y-102758485D01*
X121776150Y-102758472D01*
X121776150Y-102483499D01*
X120900150Y-102483499D01*
X120833111Y-102463814D01*
X120787356Y-102411010D01*
X120776150Y-102359499D01*
X120776150Y-102107499D01*
X120795835Y-102040460D01*
X120848639Y-101994705D01*
X120900150Y-101983499D01*
X121776149Y-101983499D01*
X121776149Y-101708527D01*
X121776148Y-101708512D01*
X121765655Y-101605801D01*
X121710508Y-101439379D01*
X121710506Y-101439374D01*
X121618465Y-101290153D01*
X121494495Y-101166183D01*
X121412386Y-101115538D01*
X121365662Y-101063590D01*
X121354439Y-100994627D01*
X121382283Y-100930545D01*
X121440351Y-100891689D01*
X121477483Y-100885999D01*
X122247446Y-100885999D01*
X122263935Y-100890840D01*
G37*
%TD.AperFunction*%
%TA.AperFunction,Conductor*%
G36*
X119344768Y-73547275D02*
G01*
X119377940Y-73570971D01*
X144113181Y-98306212D01*
X144125661Y-98329068D01*
X144141404Y-98349821D01*
X144143640Y-98361993D01*
X144146666Y-98367535D01*
X144149125Y-98384260D01*
X144149500Y-98389072D01*
X144149500Y-98546144D01*
X144163797Y-98599500D01*
X144166757Y-98610550D01*
X144166758Y-98610552D01*
X144173385Y-98635286D01*
X144219527Y-98715208D01*
X144219531Y-98715213D01*
X144413181Y-98908863D01*
X144446666Y-98970186D01*
X144449500Y-98996544D01*
X144449500Y-99072475D01*
X144487016Y-99212485D01*
X144487017Y-99212488D01*
X144559488Y-99338011D01*
X144559490Y-99338013D01*
X144559491Y-99338015D01*
X144661985Y-99440509D01*
X144661986Y-99440510D01*
X144661988Y-99440511D01*
X144787511Y-99512982D01*
X144787512Y-99512982D01*
X144787515Y-99512984D01*
X144927525Y-99550500D01*
X144927528Y-99550500D01*
X144997987Y-99550500D01*
X145065026Y-99570185D01*
X145110781Y-99622989D01*
X145120725Y-99692147D01*
X145091700Y-99755703D01*
X145085668Y-99762181D01*
X144620531Y-100227317D01*
X144620529Y-100227320D01*
X144606640Y-100251377D01*
X144589194Y-100281596D01*
X144585777Y-100287514D01*
X144585775Y-100287517D01*
X144574386Y-100307240D01*
X144550500Y-100396387D01*
X144550500Y-102472614D01*
X144530815Y-102539653D01*
X144478011Y-102585408D01*
X144408853Y-102595352D01*
X144345297Y-102566327D01*
X144338819Y-102560295D01*
X144338017Y-102559493D01*
X144338011Y-102559488D01*
X144212488Y-102487017D01*
X144212489Y-102487017D01*
X144201006Y-102483940D01*
X144072475Y-102449500D01*
X144072472Y-102449500D01*
X143996544Y-102449500D01*
X143929505Y-102429815D01*
X143908863Y-102413181D01*
X142297712Y-100802030D01*
X142297707Y-100802026D01*
X142217789Y-100755886D01*
X142217788Y-100755885D01*
X142217787Y-100755885D01*
X142198477Y-100750711D01*
X142198473Y-100750710D01*
X142198472Y-100750709D01*
X142148800Y-100737400D01*
X142128643Y-100731999D01*
X142128642Y-100731999D01*
X131063045Y-100731999D01*
X130996006Y-100712314D01*
X130950251Y-100659510D01*
X130940307Y-100590352D01*
X130969332Y-100526796D01*
X130975364Y-100520318D01*
X132408862Y-99086819D01*
X132470185Y-99053334D01*
X132496543Y-99050500D01*
X132572472Y-99050500D01*
X132572475Y-99050500D01*
X132712485Y-99012984D01*
X132838015Y-98940509D01*
X132940509Y-98838015D01*
X133012984Y-98712485D01*
X133050500Y-98572475D01*
X133050500Y-98427525D01*
X133012984Y-98287515D01*
X133009736Y-98281890D01*
X132940511Y-98161988D01*
X132940506Y-98161982D01*
X132838017Y-98059493D01*
X132838011Y-98059488D01*
X132712488Y-97987017D01*
X132712489Y-97987017D01*
X132694280Y-97982138D01*
X132572475Y-97949500D01*
X132427525Y-97949500D01*
X132305720Y-97982138D01*
X132287511Y-97987017D01*
X132161988Y-98059488D01*
X132161982Y-98059493D01*
X132059493Y-98161982D01*
X132059488Y-98161988D01*
X131987017Y-98287511D01*
X131987016Y-98287515D01*
X131949500Y-98427525D01*
X131949500Y-98427527D01*
X131949500Y-98503456D01*
X131929815Y-98570495D01*
X131913181Y-98591137D01*
X130355638Y-100148680D01*
X130294315Y-100182165D01*
X130267957Y-100184999D01*
X126163510Y-100184999D01*
X126096471Y-100165314D01*
X126050716Y-100112510D01*
X126040772Y-100043352D01*
X126057971Y-99995902D01*
X126115506Y-99902623D01*
X126115508Y-99902618D01*
X126170655Y-99736196D01*
X126170656Y-99736189D01*
X126181149Y-99633485D01*
X126181150Y-99633472D01*
X126181150Y-99383499D01*
X125292650Y-99383499D01*
X125225611Y-99363814D01*
X125179856Y-99311010D01*
X125168650Y-99259499D01*
X125168650Y-99133499D01*
X125042650Y-99133499D01*
X124975611Y-99113814D01*
X124929856Y-99061010D01*
X124918650Y-99009499D01*
X124918650Y-98883499D01*
X125418650Y-98883499D01*
X126181149Y-98883499D01*
X126181149Y-98633527D01*
X126181148Y-98633512D01*
X126170655Y-98530801D01*
X126115508Y-98364379D01*
X126115506Y-98364374D01*
X126023465Y-98215153D01*
X125899495Y-98091183D01*
X125750274Y-97999142D01*
X125750269Y-97999140D01*
X125583847Y-97943993D01*
X125583840Y-97943992D01*
X125481136Y-97933499D01*
X125418650Y-97933499D01*
X125418650Y-98883499D01*
X124918650Y-98883499D01*
X124918650Y-97933499D01*
X124918649Y-97933498D01*
X124856178Y-97933499D01*
X124856161Y-97933500D01*
X124753452Y-97943993D01*
X124587030Y-97999140D01*
X124587025Y-97999142D01*
X124437804Y-98091183D01*
X124313834Y-98215153D01*
X124221787Y-98364384D01*
X124221298Y-98365435D01*
X124220770Y-98366034D01*
X124218001Y-98370524D01*
X124217233Y-98370050D01*
X124175125Y-98417874D01*
X124107932Y-98437025D01*
X124041051Y-98416808D01*
X124009651Y-98387340D01*
X123963697Y-98325954D01*
X123963694Y-98325951D01*
X123848485Y-98239705D01*
X123848478Y-98239701D01*
X123713636Y-98189409D01*
X123713635Y-98189408D01*
X123713633Y-98189408D01*
X123654023Y-98182999D01*
X123654013Y-98182999D01*
X123033279Y-98182999D01*
X123033273Y-98183000D01*
X122965954Y-98190237D01*
X122965698Y-98187863D01*
X122907745Y-98184749D01*
X122861332Y-98155499D01*
X122622863Y-97917030D01*
X122622855Y-97917024D01*
X122542942Y-97870887D01*
X122542939Y-97870886D01*
X122542938Y-97870885D01*
X122542936Y-97870884D01*
X122542935Y-97870884D01*
X122542371Y-97870733D01*
X122542368Y-97870732D01*
X122494124Y-97857805D01*
X122453794Y-97846999D01*
X120244846Y-97846999D01*
X120156272Y-97870732D01*
X120156269Y-97870733D01*
X120155704Y-97870884D01*
X120155697Y-97870887D01*
X120075784Y-97917024D01*
X120075776Y-97917030D01*
X119694681Y-98298125D01*
X119694677Y-98298130D01*
X119663445Y-98352227D01*
X119612878Y-98400443D01*
X119544271Y-98413666D01*
X119481747Y-98389494D01*
X119455773Y-98370050D01*
X119375606Y-98310037D01*
X119333737Y-98254105D01*
X119328753Y-98184414D01*
X119362236Y-98123093D01*
X120277884Y-97207445D01*
X120339205Y-97173962D01*
X120408895Y-97178946D01*
X120418661Y-97182588D01*
X120418667Y-97182590D01*
X120478277Y-97188999D01*
X121074022Y-97188998D01*
X121133633Y-97182590D01*
X121268481Y-97132295D01*
X121383696Y-97046045D01*
X121469946Y-96930830D01*
X121520241Y-96795982D01*
X121526650Y-96736372D01*
X121526650Y-96226016D01*
X121526650Y-94373500D01*
X121546335Y-94306461D01*
X121599139Y-94260706D01*
X121650650Y-94249500D01*
X123335602Y-94249500D01*
X123402641Y-94269185D01*
X123448396Y-94321989D01*
X123458340Y-94391147D01*
X123455377Y-94405588D01*
X123449500Y-94427525D01*
X123449500Y-94572475D01*
X123487016Y-94712485D01*
X123487017Y-94712488D01*
X123559488Y-94838011D01*
X123559493Y-94838017D01*
X123613181Y-94891705D01*
X123627884Y-94918632D01*
X123644477Y-94944451D01*
X123645368Y-94950651D01*
X123646666Y-94953028D01*
X123649500Y-94979386D01*
X123649500Y-95108999D01*
X123629815Y-95176038D01*
X123577011Y-95221793D01*
X123525500Y-95232999D01*
X123033279Y-95232999D01*
X123033273Y-95233000D01*
X122973666Y-95239407D01*
X122838821Y-95289701D01*
X122838814Y-95289705D01*
X122723605Y-95375951D01*
X122723602Y-95375954D01*
X122637356Y-95491163D01*
X122637352Y-95491170D01*
X122587058Y-95626016D01*
X122580651Y-95685615D01*
X122580650Y-95685634D01*
X122580650Y-96681369D01*
X122580651Y-96681375D01*
X122587058Y-96740982D01*
X122637352Y-96875827D01*
X122637356Y-96875834D01*
X122723602Y-96991043D01*
X122723605Y-96991046D01*
X122838814Y-97077292D01*
X122838821Y-97077296D01*
X122883768Y-97094060D01*
X122973667Y-97127590D01*
X123033277Y-97133999D01*
X123654022Y-97133998D01*
X123713633Y-97127590D01*
X123848481Y-97077295D01*
X123963696Y-96991045D01*
X124009652Y-96929655D01*
X124065584Y-96887786D01*
X124135275Y-96882802D01*
X124196598Y-96916287D01*
X124217815Y-96946588D01*
X124218001Y-96946474D01*
X124219969Y-96949665D01*
X124221301Y-96951567D01*
X124221792Y-96952620D01*
X124313834Y-97101844D01*
X124437804Y-97225814D01*
X124587025Y-97317855D01*
X124587030Y-97317857D01*
X124753452Y-97373004D01*
X124753459Y-97373005D01*
X124856169Y-97383498D01*
X125418650Y-97383498D01*
X125481122Y-97383498D01*
X125481136Y-97383497D01*
X125583847Y-97373004D01*
X125750269Y-97317857D01*
X125750274Y-97317855D01*
X125899495Y-97225814D01*
X126023465Y-97101844D01*
X126115506Y-96952623D01*
X126115508Y-96952618D01*
X126170655Y-96786196D01*
X126170656Y-96786189D01*
X126181149Y-96683485D01*
X126181150Y-96683472D01*
X126181150Y-96433499D01*
X125418650Y-96433499D01*
X125418650Y-97383498D01*
X124856169Y-97383498D01*
X124918649Y-97383497D01*
X124918650Y-97383497D01*
X124918650Y-95933499D01*
X125418650Y-95933499D01*
X126181149Y-95933499D01*
X126181149Y-95683527D01*
X126181148Y-95683512D01*
X126170655Y-95580801D01*
X126115508Y-95414379D01*
X126115506Y-95414374D01*
X126023465Y-95265153D01*
X125899495Y-95141183D01*
X125750274Y-95049142D01*
X125750269Y-95049140D01*
X125583847Y-94993993D01*
X125583840Y-94993992D01*
X125481136Y-94983499D01*
X125418650Y-94983499D01*
X125418650Y-95933499D01*
X124918650Y-95933499D01*
X124918650Y-94983499D01*
X124918649Y-94983498D01*
X124856178Y-94983499D01*
X124856161Y-94983500D01*
X124753452Y-94993993D01*
X124587030Y-95049140D01*
X124587023Y-95049144D01*
X124556630Y-95067890D01*
X124489237Y-95086329D01*
X124422574Y-95065405D01*
X124377805Y-95011762D01*
X124369145Y-94942432D01*
X124399343Y-94879425D01*
X124403836Y-94874687D01*
X124440509Y-94838015D01*
X124512984Y-94712485D01*
X124550500Y-94572475D01*
X124550500Y-94427525D01*
X124544623Y-94405592D01*
X124546286Y-94335743D01*
X124585449Y-94277881D01*
X124649677Y-94250377D01*
X124664398Y-94249500D01*
X126202456Y-94249500D01*
X126269495Y-94269185D01*
X126290137Y-94285819D01*
X127413181Y-95408863D01*
X127446666Y-95470186D01*
X127449500Y-95496544D01*
X127449500Y-95572475D01*
X127487016Y-95712485D01*
X127487017Y-95712488D01*
X127559488Y-95838011D01*
X127559490Y-95838013D01*
X127559491Y-95838015D01*
X127661985Y-95940509D01*
X127661986Y-95940510D01*
X127661988Y-95940511D01*
X127787511Y-96012982D01*
X127787512Y-96012982D01*
X127787515Y-96012984D01*
X127927525Y-96050500D01*
X127927528Y-96050500D01*
X128072472Y-96050500D01*
X128072475Y-96050500D01*
X128212485Y-96012984D01*
X128338015Y-95940509D01*
X128440509Y-95838015D01*
X128512984Y-95712485D01*
X128550500Y-95572475D01*
X128550500Y-95427525D01*
X128512984Y-95287515D01*
X128500073Y-95265153D01*
X128440511Y-95161988D01*
X128440506Y-95161982D01*
X128338017Y-95059493D01*
X128338011Y-95059488D01*
X128212488Y-94987017D01*
X128212489Y-94987017D01*
X128199363Y-94983500D01*
X128072475Y-94949500D01*
X128072472Y-94949500D01*
X127996544Y-94949500D01*
X127929505Y-94929815D01*
X127908863Y-94913181D01*
X126614213Y-93618531D01*
X126614208Y-93618527D01*
X126534290Y-93572387D01*
X126534289Y-93572386D01*
X126534288Y-93572386D01*
X126445144Y-93548500D01*
X126445143Y-93548500D01*
X121650650Y-93548500D01*
X121583611Y-93528815D01*
X121537856Y-93476011D01*
X121526650Y-93424500D01*
X121526650Y-79704294D01*
X121497809Y-79559307D01*
X121497808Y-79559306D01*
X121497808Y-79559302D01*
X121441234Y-79422720D01*
X121408336Y-79373485D01*
X121408335Y-79373483D01*
X121359106Y-79299804D01*
X121359102Y-79299799D01*
X116390313Y-74331010D01*
X116356828Y-74269687D01*
X116361812Y-74199995D01*
X116403684Y-74144062D01*
X116469148Y-74119645D01*
X116502181Y-74121711D01*
X116783627Y-74177695D01*
X117101463Y-74208999D01*
X117101466Y-74208999D01*
X117420834Y-74208999D01*
X117420837Y-74208999D01*
X117738673Y-74177695D01*
X118051910Y-74115388D01*
X118357531Y-74022679D01*
X118652594Y-73900460D01*
X118934256Y-73749908D01*
X119199806Y-73572474D01*
X119211593Y-73562799D01*
X119275900Y-73535486D01*
X119344768Y-73547275D01*
G37*
%TD.AperFunction*%
%TA.AperFunction,Conductor*%
G36*
X113286852Y-96678459D02*
G01*
X113293330Y-96684491D01*
X113593331Y-96984492D01*
X113626816Y-97045815D01*
X113629650Y-97072173D01*
X113629650Y-97935512D01*
X113644530Y-97991046D01*
X113644530Y-97991047D01*
X113653534Y-98024654D01*
X113653535Y-98024655D01*
X113699677Y-98104577D01*
X113699679Y-98104580D01*
X113699680Y-98104581D01*
X115099068Y-99503969D01*
X115178992Y-99550113D01*
X115268136Y-99573999D01*
X115268137Y-99573999D01*
X115360424Y-99573999D01*
X118001651Y-99573999D01*
X118068690Y-99593684D01*
X118114445Y-99646488D01*
X118125651Y-99697999D01*
X118125651Y-99746375D01*
X118132058Y-99805982D01*
X118182352Y-99940827D01*
X118182356Y-99940834D01*
X118268602Y-100056043D01*
X118268605Y-100056046D01*
X118383814Y-100142292D01*
X118383821Y-100142296D01*
X118428768Y-100159060D01*
X118518667Y-100192590D01*
X118578277Y-100198999D01*
X119174022Y-100198998D01*
X119233633Y-100192590D01*
X119368481Y-100142295D01*
X119481749Y-100057502D01*
X119547209Y-100033086D01*
X119615482Y-100047937D01*
X119663444Y-100094769D01*
X119694569Y-100148680D01*
X119694680Y-100148871D01*
X120296521Y-100750711D01*
X120361778Y-100815968D01*
X120366165Y-100818501D01*
X120375432Y-100827523D01*
X120389145Y-100851856D01*
X120405620Y-100874417D01*
X120406064Y-100881879D01*
X120409735Y-100888392D01*
X120408115Y-100916278D01*
X120409777Y-100944163D01*
X120406116Y-100950681D01*
X120405683Y-100958144D01*
X120389246Y-100980724D01*
X120375567Y-101005085D01*
X120368290Y-101009514D01*
X120364564Y-101014633D01*
X120351625Y-101019657D01*
X120327937Y-101034075D01*
X120207028Y-101074141D01*
X120207025Y-101074142D01*
X120057804Y-101166183D01*
X119933834Y-101290153D01*
X119841793Y-101439374D01*
X119841792Y-101439377D01*
X119811219Y-101531640D01*
X119771446Y-101589084D01*
X119706930Y-101615907D01*
X119638154Y-101603592D01*
X119586954Y-101556048D01*
X119577331Y-101535967D01*
X119569948Y-101516172D01*
X119569943Y-101516163D01*
X119483697Y-101400954D01*
X119483694Y-101400951D01*
X119368485Y-101314705D01*
X119368478Y-101314701D01*
X119233636Y-101264409D01*
X119233635Y-101264408D01*
X119233633Y-101264408D01*
X119174023Y-101257999D01*
X119174013Y-101257999D01*
X118578279Y-101257999D01*
X118578273Y-101258000D01*
X118518666Y-101264407D01*
X118383821Y-101314701D01*
X118383814Y-101314705D01*
X118268605Y-101400951D01*
X118195116Y-101499118D01*
X118139181Y-101540989D01*
X118069490Y-101545972D01*
X118008169Y-101512487D01*
X117748712Y-101253030D01*
X117748707Y-101253026D01*
X117668787Y-101206885D01*
X117668786Y-101206884D01*
X117667463Y-101206530D01*
X117667463Y-101206529D01*
X117579644Y-101182999D01*
X117579643Y-101182999D01*
X117205649Y-101182999D01*
X117138610Y-101163314D01*
X117092855Y-101110510D01*
X117081649Y-101058999D01*
X117081649Y-100835628D01*
X117081648Y-100835622D01*
X117081647Y-100835615D01*
X117075241Y-100776016D01*
X117035151Y-100668530D01*
X117024947Y-100641170D01*
X117024943Y-100641163D01*
X116938697Y-100525954D01*
X116938694Y-100525951D01*
X116823485Y-100439705D01*
X116823478Y-100439701D01*
X116688632Y-100389407D01*
X116688633Y-100389407D01*
X116629033Y-100383000D01*
X116629031Y-100382999D01*
X116629023Y-100382999D01*
X116629015Y-100382999D01*
X114977694Y-100382999D01*
X114910655Y-100363314D01*
X114890013Y-100346680D01*
X113854343Y-99311010D01*
X112808659Y-98265327D01*
X112775175Y-98204005D01*
X112780159Y-98134313D01*
X112822030Y-98078380D01*
X112823477Y-98077296D01*
X112823481Y-98077295D01*
X112938696Y-97991045D01*
X113024946Y-97875830D01*
X113075241Y-97740982D01*
X113081650Y-97681372D01*
X113081649Y-96772171D01*
X113101333Y-96705133D01*
X113154137Y-96659378D01*
X113223296Y-96649434D01*
X113286852Y-96678459D01*
G37*
%TD.AperFunction*%
%TA.AperFunction,Conductor*%
G36*
X122278145Y-98567684D02*
G01*
X122298787Y-98584318D01*
X122544331Y-98829862D01*
X122577816Y-98891185D01*
X122580650Y-98917543D01*
X122580650Y-99631369D01*
X122580651Y-99631375D01*
X122587058Y-99690982D01*
X122637352Y-99825827D01*
X122637356Y-99825834D01*
X122723602Y-99941043D01*
X122723605Y-99941046D01*
X122751239Y-99961733D01*
X122793110Y-100017666D01*
X122798094Y-100087358D01*
X122764609Y-100148681D01*
X122703285Y-100182165D01*
X122676928Y-100184999D01*
X121826764Y-100184999D01*
X121759725Y-100165314D01*
X121713970Y-100112510D01*
X121704026Y-100043352D01*
X121709058Y-100021995D01*
X121765655Y-99851196D01*
X121765656Y-99851189D01*
X121776149Y-99748485D01*
X121776150Y-99748472D01*
X121776150Y-99473499D01*
X120900150Y-99473499D01*
X120833111Y-99453814D01*
X120787356Y-99401010D01*
X120776150Y-99349499D01*
X120776150Y-99097499D01*
X120795835Y-99030460D01*
X120848639Y-98984705D01*
X120900150Y-98973499D01*
X121776149Y-98973499D01*
X121776149Y-98698527D01*
X121776148Y-98698514D01*
X121774727Y-98684602D01*
X121787496Y-98615909D01*
X121835377Y-98565024D01*
X121898085Y-98547999D01*
X122211106Y-98547999D01*
X122278145Y-98567684D01*
G37*
%TD.AperFunction*%
%TA.AperFunction,Conductor*%
G36*
X119069189Y-96233184D02*
G01*
X119114944Y-96285988D01*
X119126150Y-96337499D01*
X119126150Y-97316454D01*
X119106465Y-97383493D01*
X119089831Y-97404135D01*
X118595681Y-97898285D01*
X118595675Y-97898293D01*
X118561774Y-97957012D01*
X118561775Y-97957013D01*
X118549536Y-97978211D01*
X118529530Y-98052875D01*
X118525650Y-98067355D01*
X118525650Y-98165708D01*
X118505965Y-98232747D01*
X118453161Y-98278502D01*
X118444983Y-98281890D01*
X118383821Y-98304701D01*
X118383814Y-98304705D01*
X118268605Y-98390951D01*
X118268602Y-98390954D01*
X118182356Y-98506163D01*
X118182352Y-98506170D01*
X118132058Y-98641016D01*
X118125651Y-98700615D01*
X118125650Y-98700634D01*
X118125650Y-98748999D01*
X118105965Y-98816038D01*
X118053161Y-98861793D01*
X118001650Y-98872999D01*
X115510824Y-98872999D01*
X115443785Y-98853314D01*
X115423143Y-98836680D01*
X114932142Y-98345679D01*
X114898657Y-98284356D01*
X114903641Y-98214664D01*
X114945513Y-98158731D01*
X115010977Y-98134314D01*
X115019823Y-98133998D01*
X116629021Y-98133998D01*
X116629022Y-98133998D01*
X116688633Y-98127590D01*
X116823481Y-98077295D01*
X116938696Y-97991045D01*
X117024946Y-97875830D01*
X117075241Y-97740982D01*
X117081650Y-97681372D01*
X117081649Y-96965392D01*
X117101333Y-96898354D01*
X117117963Y-96877717D01*
X117664471Y-96331209D01*
X117725792Y-96297726D01*
X117795484Y-96302710D01*
X117851417Y-96344582D01*
X117875834Y-96410046D01*
X117876150Y-96418892D01*
X117876150Y-96738469D01*
X117876151Y-96738486D01*
X117886644Y-96841196D01*
X117941791Y-97007618D01*
X117941793Y-97007623D01*
X118033834Y-97156844D01*
X118157804Y-97280814D01*
X118307025Y-97372855D01*
X118307030Y-97372857D01*
X118473452Y-97428004D01*
X118473459Y-97428005D01*
X118576169Y-97438498D01*
X118626149Y-97438497D01*
X118626150Y-97438497D01*
X118626150Y-96337499D01*
X118645835Y-96270460D01*
X118698639Y-96224705D01*
X118750150Y-96213499D01*
X119002150Y-96213499D01*
X119069189Y-96233184D01*
G37*
%TD.AperFunction*%
%TA.AperFunction,Conductor*%
G36*
X164302589Y-95889783D02*
G01*
X164348344Y-95942587D01*
X164359550Y-95994098D01*
X164359550Y-97345222D01*
X164339865Y-97412261D01*
X164287061Y-97458016D01*
X164217903Y-97467960D01*
X164203461Y-97464998D01*
X164072475Y-97429900D01*
X163927525Y-97429900D01*
X163829108Y-97456270D01*
X163787510Y-97467417D01*
X163787507Y-97467418D01*
X163741736Y-97493845D01*
X163673836Y-97510318D01*
X163607809Y-97487465D01*
X163564619Y-97432544D01*
X163557978Y-97362990D01*
X163558121Y-97362260D01*
X163559750Y-97354072D01*
X163559750Y-96878523D01*
X163579435Y-96811484D01*
X163609439Y-96779256D01*
X163666439Y-96736585D01*
X163666440Y-96736584D01*
X163752602Y-96621486D01*
X163752604Y-96621484D01*
X163802846Y-96486777D01*
X163802848Y-96486770D01*
X163809249Y-96427242D01*
X163809250Y-96427225D01*
X163809250Y-96349998D01*
X161831350Y-96349998D01*
X161831350Y-96427242D01*
X161837751Y-96486770D01*
X161837753Y-96486777D01*
X161887995Y-96621484D01*
X161887997Y-96621486D01*
X161974159Y-96736584D01*
X161974158Y-96736584D01*
X161998869Y-96755083D01*
X162040739Y-96811018D01*
X162045722Y-96880710D01*
X162012237Y-96942030D01*
X161749879Y-97204388D01*
X161715484Y-97263965D01*
X161715482Y-97263967D01*
X161703737Y-97284309D01*
X161679850Y-97373456D01*
X161679850Y-98625500D01*
X161660165Y-98692539D01*
X161607361Y-98738294D01*
X161555850Y-98749500D01*
X158084383Y-98749500D01*
X158017344Y-98729815D01*
X157971589Y-98677011D01*
X157961645Y-98607853D01*
X157990670Y-98544297D01*
X157996702Y-98537819D01*
X158973096Y-97561426D01*
X160028105Y-96506417D01*
X160089428Y-96472932D01*
X160115786Y-96470098D01*
X160520614Y-96470098D01*
X160587653Y-96489783D01*
X160608295Y-96506417D01*
X160661985Y-96560107D01*
X160661986Y-96560108D01*
X160661988Y-96560109D01*
X160787511Y-96632580D01*
X160787512Y-96632580D01*
X160787515Y-96632582D01*
X160927525Y-96670098D01*
X160927528Y-96670098D01*
X161072472Y-96670098D01*
X161072475Y-96670098D01*
X161212485Y-96632582D01*
X161338015Y-96560107D01*
X161440509Y-96457613D01*
X161512984Y-96332083D01*
X161550500Y-96192073D01*
X161550500Y-96047123D01*
X161544891Y-96026190D01*
X161546554Y-95956341D01*
X161585717Y-95898479D01*
X161649945Y-95870975D01*
X161664666Y-95870098D01*
X164235550Y-95870098D01*
X164302589Y-95889783D01*
G37*
%TD.AperFunction*%
%TA.AperFunction,Conductor*%
G36*
X191442539Y-25520185D02*
G01*
X191488294Y-25572989D01*
X191499500Y-25624500D01*
X191499500Y-132875500D01*
X191479815Y-132942539D01*
X191427011Y-132988294D01*
X191375500Y-132999500D01*
X101624500Y-132999500D01*
X101557461Y-132979815D01*
X101511706Y-132927011D01*
X101500500Y-132875500D01*
X101500500Y-130923920D01*
X153929499Y-130923920D01*
X153958340Y-131068907D01*
X153958343Y-131068917D01*
X154014912Y-131205488D01*
X154014919Y-131205501D01*
X154097048Y-131328415D01*
X154097051Y-131328419D01*
X154201580Y-131432948D01*
X154201584Y-131432951D01*
X154324498Y-131515080D01*
X154324511Y-131515087D01*
X154461082Y-131571656D01*
X154461087Y-131571658D01*
X154461091Y-131571658D01*
X154461092Y-131571659D01*
X154606079Y-131600500D01*
X154606082Y-131600500D01*
X154753920Y-131600500D01*
X154851462Y-131581096D01*
X154898913Y-131571658D01*
X155035495Y-131515084D01*
X155158416Y-131432951D01*
X155262951Y-131328416D01*
X155345084Y-131205495D01*
X155401658Y-131068913D01*
X155430500Y-130923920D01*
X162569499Y-130923920D01*
X162598340Y-131068907D01*
X162598343Y-131068917D01*
X162654912Y-131205488D01*
X162654919Y-131205501D01*
X162737048Y-131328415D01*
X162737051Y-131328419D01*
X162841580Y-131432948D01*
X162841584Y-131432951D01*
X162964498Y-131515080D01*
X162964511Y-131515087D01*
X163101082Y-131571656D01*
X163101087Y-131571658D01*
X163101091Y-131571658D01*
X163101092Y-131571659D01*
X163246079Y-131600500D01*
X163246082Y-131600500D01*
X163393920Y-131600500D01*
X163491462Y-131581096D01*
X163538913Y-131571658D01*
X163675495Y-131515084D01*
X163798416Y-131432951D01*
X163902951Y-131328416D01*
X163985084Y-131205495D01*
X164041658Y-131068913D01*
X164070500Y-130923918D01*
X164070500Y-130176082D01*
X164070500Y-130176079D01*
X164041659Y-130031092D01*
X164041658Y-130031091D01*
X164041658Y-130031087D01*
X164041656Y-130031082D01*
X163985087Y-129894511D01*
X163985080Y-129894498D01*
X163902951Y-129771584D01*
X163902948Y-129771580D01*
X163798419Y-129667051D01*
X163798415Y-129667048D01*
X163675501Y-129584919D01*
X163675488Y-129584912D01*
X163538917Y-129528343D01*
X163538907Y-129528340D01*
X163393920Y-129499500D01*
X163393918Y-129499500D01*
X163246082Y-129499500D01*
X163246080Y-129499500D01*
X163101092Y-129528340D01*
X163101082Y-129528343D01*
X162964511Y-129584912D01*
X162964498Y-129584919D01*
X162841584Y-129667048D01*
X162841580Y-129667051D01*
X162737051Y-129771580D01*
X162737048Y-129771584D01*
X162654919Y-129894498D01*
X162654912Y-129894511D01*
X162598343Y-130031082D01*
X162598340Y-130031092D01*
X162569500Y-130176079D01*
X162569500Y-130176082D01*
X162569500Y-130923918D01*
X162569500Y-130923920D01*
X162569499Y-130923920D01*
X155430500Y-130923920D01*
X155430500Y-130923918D01*
X155430500Y-130716544D01*
X155450185Y-130649505D01*
X155466819Y-130628863D01*
X155908863Y-130186819D01*
X155970186Y-130153334D01*
X155996544Y-130150500D01*
X156072472Y-130150500D01*
X156072475Y-130150500D01*
X156212485Y-130112984D01*
X156338015Y-130040509D01*
X156440509Y-129938015D01*
X156512984Y-129812485D01*
X156550500Y-129672475D01*
X156550500Y-129527525D01*
X156512984Y-129387515D01*
X156440509Y-129261985D01*
X156338015Y-129159491D01*
X156338013Y-129159490D01*
X156338011Y-129159488D01*
X156212488Y-129087017D01*
X156212489Y-129087017D01*
X156201006Y-129083940D01*
X156072475Y-129049500D01*
X155927525Y-129049500D01*
X155798993Y-129083940D01*
X155787511Y-129087017D01*
X155661988Y-129159488D01*
X155661982Y-129159493D01*
X155559493Y-129261982D01*
X155559488Y-129261988D01*
X155487017Y-129387511D01*
X155487016Y-129387515D01*
X155449500Y-129527525D01*
X155449500Y-129527527D01*
X155449500Y-129603454D01*
X155440855Y-129632894D01*
X155434332Y-129662881D01*
X155430577Y-129667896D01*
X155429815Y-129670493D01*
X155413181Y-129691135D01*
X155385523Y-129718793D01*
X155324200Y-129752278D01*
X155254508Y-129747294D01*
X155210161Y-129718793D01*
X155158419Y-129667051D01*
X155158415Y-129667048D01*
X155035501Y-129584919D01*
X155035488Y-129584912D01*
X154898917Y-129528343D01*
X154898907Y-129528340D01*
X154753920Y-129499500D01*
X154753918Y-129499500D01*
X154606082Y-129499500D01*
X154606080Y-129499500D01*
X154461092Y-129528340D01*
X154461082Y-129528343D01*
X154324511Y-129584912D01*
X154324498Y-129584919D01*
X154201584Y-129667048D01*
X154201580Y-129667051D01*
X154097051Y-129771580D01*
X154097048Y-129771584D01*
X154014919Y-129894498D01*
X154014912Y-129894511D01*
X153958343Y-130031082D01*
X153958340Y-130031092D01*
X153929500Y-130176079D01*
X153929500Y-130176082D01*
X153929500Y-130923918D01*
X153929500Y-130923920D01*
X153929499Y-130923920D01*
X101500500Y-130923920D01*
X101500500Y-123095258D01*
X126679500Y-123095258D01*
X126679500Y-123324741D01*
X126680127Y-123329500D01*
X126709452Y-123552238D01*
X126720306Y-123592746D01*
X126768842Y-123773887D01*
X126856650Y-123985876D01*
X126856657Y-123985890D01*
X126971392Y-124184617D01*
X127111081Y-124366661D01*
X127111089Y-124366670D01*
X127273330Y-124528911D01*
X127273338Y-124528918D01*
X127455382Y-124668607D01*
X127455385Y-124668608D01*
X127455388Y-124668611D01*
X127654112Y-124783344D01*
X127654117Y-124783346D01*
X127654123Y-124783349D01*
X127745480Y-124821190D01*
X127866113Y-124871158D01*
X128087762Y-124930548D01*
X128315266Y-124960500D01*
X128315273Y-124960500D01*
X128544727Y-124960500D01*
X128544734Y-124960500D01*
X128772238Y-124930548D01*
X128993887Y-124871158D01*
X129205888Y-124783344D01*
X129404612Y-124668611D01*
X129586661Y-124528919D01*
X129586665Y-124528914D01*
X129586670Y-124528911D01*
X129748911Y-124366670D01*
X129748914Y-124366665D01*
X129748919Y-124366661D01*
X129888611Y-124184612D01*
X130003344Y-123985888D01*
X130091158Y-123773887D01*
X130123708Y-123652407D01*
X130160073Y-123592746D01*
X130222920Y-123562217D01*
X130243483Y-123560500D01*
X139756517Y-123560500D01*
X139823556Y-123580185D01*
X139869311Y-123632989D01*
X139876292Y-123652407D01*
X139908842Y-123773887D01*
X139908843Y-123773890D01*
X139908845Y-123773896D01*
X139996652Y-123985881D01*
X139996657Y-123985890D01*
X140111392Y-124184617D01*
X140251081Y-124366661D01*
X140251089Y-124366670D01*
X140413330Y-124528911D01*
X140413338Y-124528918D01*
X140595382Y-124668607D01*
X140595385Y-124668608D01*
X140595388Y-124668611D01*
X140794112Y-124783344D01*
X140794117Y-124783346D01*
X140794123Y-124783349D01*
X140885480Y-124821190D01*
X141006113Y-124871158D01*
X141227762Y-124930548D01*
X141455266Y-124960500D01*
X141455273Y-124960500D01*
X141684727Y-124960500D01*
X141684734Y-124960500D01*
X141912238Y-124930548D01*
X142133887Y-124871158D01*
X142345888Y-124783344D01*
X142544612Y-124668611D01*
X142726661Y-124528919D01*
X142726665Y-124528914D01*
X142726670Y-124528911D01*
X142888911Y-124366670D01*
X142888914Y-124366665D01*
X142888919Y-124366661D01*
X143028611Y-124184612D01*
X143143344Y-123985888D01*
X143231158Y-123773887D01*
X143290548Y-123552238D01*
X143320500Y-123324734D01*
X143320500Y-123095266D01*
X143290548Y-122867762D01*
X143231158Y-122646113D01*
X143143346Y-122434118D01*
X143143346Y-122434117D01*
X143143344Y-122434112D01*
X143028611Y-122235388D01*
X143028608Y-122235385D01*
X143028607Y-122235382D01*
X142888918Y-122053338D01*
X142888911Y-122053330D01*
X142726670Y-121891089D01*
X142726661Y-121891081D01*
X142544617Y-121751392D01*
X142531117Y-121743598D01*
X142345888Y-121636656D01*
X142345876Y-121636650D01*
X142133887Y-121548842D01*
X141912238Y-121489452D01*
X141874215Y-121484446D01*
X141684741Y-121459500D01*
X141684734Y-121459500D01*
X141455266Y-121459500D01*
X141455258Y-121459500D01*
X141238715Y-121488009D01*
X141227762Y-121489452D01*
X141217932Y-121492086D01*
X141006112Y-121548842D01*
X140794123Y-121636650D01*
X140794109Y-121636657D01*
X140595382Y-121751392D01*
X140413338Y-121891081D01*
X140251081Y-122053338D01*
X140111392Y-122235382D01*
X139996657Y-122434109D01*
X139996652Y-122434118D01*
X139908845Y-122646103D01*
X139908842Y-122646111D01*
X139908843Y-122646112D01*
X139908842Y-122646114D01*
X139876292Y-122767593D01*
X139839927Y-122827254D01*
X139777080Y-122857783D01*
X139756517Y-122859500D01*
X130243483Y-122859500D01*
X130176444Y-122839815D01*
X130130689Y-122787011D01*
X130123708Y-122767593D01*
X130122959Y-122764798D01*
X130091158Y-122646113D01*
X130003349Y-122434123D01*
X130003347Y-122434118D01*
X130003342Y-122434109D01*
X129889017Y-122236092D01*
X129888611Y-122235388D01*
X129888608Y-122235385D01*
X129888607Y-122235382D01*
X129748918Y-122053338D01*
X129748911Y-122053330D01*
X129586670Y-121891089D01*
X129586661Y-121891081D01*
X129404617Y-121751392D01*
X129391117Y-121743598D01*
X129205888Y-121636656D01*
X129205876Y-121636650D01*
X128993887Y-121548842D01*
X128772238Y-121489452D01*
X128734215Y-121484446D01*
X128544741Y-121459500D01*
X128544734Y-121459500D01*
X128315266Y-121459500D01*
X128315258Y-121459500D01*
X128098715Y-121488009D01*
X128087762Y-121489452D01*
X128077932Y-121492086D01*
X127866112Y-121548842D01*
X127654123Y-121636650D01*
X127654109Y-121636657D01*
X127455382Y-121751392D01*
X127273338Y-121891081D01*
X127111081Y-122053338D01*
X126971392Y-122235382D01*
X126856657Y-122434109D01*
X126856650Y-122434123D01*
X126768842Y-122646112D01*
X126761393Y-122673913D01*
X126724797Y-122810495D01*
X126709453Y-122867759D01*
X126709451Y-122867770D01*
X126679500Y-123095258D01*
X101500500Y-123095258D01*
X101500500Y-119702155D01*
X130200000Y-119702155D01*
X130200000Y-120250000D01*
X131095854Y-120250000D01*
X131057370Y-120316657D01*
X131025000Y-120437465D01*
X131025000Y-120562535D01*
X131057370Y-120683343D01*
X131095854Y-120750000D01*
X130200000Y-120750000D01*
X130200000Y-121297844D01*
X130206401Y-121357372D01*
X130206403Y-121357379D01*
X130256645Y-121492086D01*
X130256649Y-121492093D01*
X130342809Y-121607187D01*
X130342812Y-121607190D01*
X130457906Y-121693350D01*
X130457913Y-121693354D01*
X130592620Y-121743596D01*
X130592627Y-121743598D01*
X130652155Y-121749999D01*
X130652172Y-121750000D01*
X131250000Y-121750000D01*
X131250000Y-120904145D01*
X131316657Y-120942630D01*
X131437465Y-120975000D01*
X131562535Y-120975000D01*
X131683343Y-120942630D01*
X131750000Y-120904145D01*
X131750000Y-121750000D01*
X132347828Y-121750000D01*
X132347844Y-121749999D01*
X132407372Y-121743598D01*
X132407379Y-121743596D01*
X132542086Y-121693354D01*
X132542093Y-121693350D01*
X132657187Y-121607190D01*
X132657190Y-121607187D01*
X132743350Y-121492093D01*
X132743354Y-121492086D01*
X132793596Y-121357379D01*
X132793598Y-121357372D01*
X132799999Y-121297844D01*
X132800000Y-121297827D01*
X132800000Y-120971422D01*
X132819685Y-120904383D01*
X132872489Y-120858628D01*
X132941647Y-120848684D01*
X133005203Y-120877709D01*
X133038561Y-120923970D01*
X133069056Y-120997594D01*
X133184024Y-121169657D01*
X133330342Y-121315975D01*
X133330345Y-121315977D01*
X133502402Y-121430941D01*
X133693580Y-121510130D01*
X133888200Y-121548842D01*
X133896530Y-121550499D01*
X133896534Y-121550500D01*
X133896535Y-121550500D01*
X134103466Y-121550500D01*
X134103467Y-121550499D01*
X134306420Y-121510130D01*
X134497598Y-121430941D01*
X134669655Y-121315977D01*
X134815977Y-121169655D01*
X134896898Y-121048546D01*
X134950509Y-121003742D01*
X135019834Y-120995035D01*
X135082862Y-121025189D01*
X135103100Y-121048545D01*
X135152924Y-121123112D01*
X135184024Y-121169657D01*
X135330342Y-121315975D01*
X135330345Y-121315977D01*
X135502402Y-121430941D01*
X135693580Y-121510130D01*
X135888200Y-121548842D01*
X135896530Y-121550499D01*
X135896534Y-121550500D01*
X135896535Y-121550500D01*
X136103466Y-121550500D01*
X136103467Y-121550499D01*
X136306420Y-121510130D01*
X136497598Y-121430941D01*
X136669655Y-121315977D01*
X136815977Y-121169655D01*
X136930941Y-120997598D01*
X136940302Y-120975000D01*
X136969552Y-120904383D01*
X137006211Y-120815880D01*
X137050051Y-120761478D01*
X137116345Y-120739413D01*
X137184044Y-120756692D01*
X137231655Y-120807829D01*
X137238702Y-120825015D01*
X137295244Y-120999031D01*
X137388141Y-121181350D01*
X137388147Y-121181359D01*
X137420523Y-121225921D01*
X137420524Y-121225922D01*
X138037449Y-120608997D01*
X138057370Y-120683343D01*
X138119905Y-120791657D01*
X138208343Y-120880095D01*
X138316657Y-120942630D01*
X138391002Y-120962550D01*
X137774076Y-121579474D01*
X137818650Y-121611859D01*
X138000968Y-121704755D01*
X138195582Y-121767990D01*
X138397683Y-121800000D01*
X138602317Y-121800000D01*
X138804417Y-121767990D01*
X138999031Y-121704755D01*
X139181349Y-121611859D01*
X139225921Y-121579474D01*
X138608997Y-120962550D01*
X138683343Y-120942630D01*
X138791657Y-120880095D01*
X138880095Y-120791657D01*
X138942630Y-120683343D01*
X138962550Y-120608997D01*
X139579474Y-121225921D01*
X139611859Y-121181349D01*
X139704755Y-120999031D01*
X139767990Y-120804417D01*
X139800000Y-120602317D01*
X139800000Y-120397682D01*
X139767990Y-120195582D01*
X139704755Y-120000968D01*
X139611859Y-119818650D01*
X139579474Y-119774077D01*
X139579474Y-119774076D01*
X138962550Y-120391001D01*
X138942630Y-120316657D01*
X138880095Y-120208343D01*
X138791657Y-120119905D01*
X138683343Y-120057370D01*
X138608996Y-120037449D01*
X139225922Y-119420524D01*
X139225921Y-119420523D01*
X139181359Y-119388147D01*
X139181350Y-119388141D01*
X138999031Y-119295244D01*
X138804417Y-119232009D01*
X138602317Y-119200000D01*
X138397683Y-119200000D01*
X138195582Y-119232009D01*
X138000968Y-119295244D01*
X137818644Y-119388143D01*
X137774077Y-119420523D01*
X137774077Y-119420524D01*
X138391003Y-120037449D01*
X138316657Y-120057370D01*
X138208343Y-120119905D01*
X138119905Y-120208343D01*
X138057370Y-120316657D01*
X138037449Y-120391002D01*
X137420524Y-119774077D01*
X137420523Y-119774077D01*
X137388143Y-119818644D01*
X137295244Y-120000968D01*
X137238702Y-120174984D01*
X137199264Y-120232659D01*
X137134905Y-120259857D01*
X137066058Y-120247942D01*
X137014583Y-120200697D01*
X137006213Y-120184125D01*
X136930941Y-120002402D01*
X136815977Y-119830345D01*
X136815975Y-119830342D01*
X136669657Y-119684024D01*
X136500332Y-119570886D01*
X136497598Y-119569059D01*
X136349962Y-119507906D01*
X136306420Y-119489870D01*
X136306412Y-119489868D01*
X136103469Y-119449500D01*
X136103465Y-119449500D01*
X135896535Y-119449500D01*
X135896530Y-119449500D01*
X135693587Y-119489868D01*
X135693579Y-119489870D01*
X135502403Y-119569058D01*
X135330342Y-119684024D01*
X135184025Y-119830341D01*
X135184019Y-119830349D01*
X135103102Y-119951451D01*
X135049490Y-119996257D01*
X134980165Y-120004964D01*
X134917138Y-119974810D01*
X134896898Y-119951451D01*
X134815980Y-119830349D01*
X134815974Y-119830341D01*
X134669657Y-119684024D01*
X134500332Y-119570886D01*
X134497598Y-119569059D01*
X134349962Y-119507906D01*
X134306420Y-119489870D01*
X134306412Y-119489868D01*
X134103469Y-119449500D01*
X134103465Y-119449500D01*
X133896535Y-119449500D01*
X133896530Y-119449500D01*
X133693587Y-119489868D01*
X133693579Y-119489870D01*
X133502403Y-119569058D01*
X133330342Y-119684024D01*
X133184024Y-119830342D01*
X133069057Y-120002403D01*
X133038561Y-120076030D01*
X132994720Y-120130433D01*
X132928426Y-120152498D01*
X132860726Y-120135219D01*
X132813116Y-120084081D01*
X132800000Y-120028577D01*
X132800000Y-119702172D01*
X132799999Y-119702155D01*
X132793598Y-119642627D01*
X132793596Y-119642620D01*
X132743354Y-119507913D01*
X132743350Y-119507906D01*
X132657190Y-119392812D01*
X132657187Y-119392809D01*
X132542093Y-119306649D01*
X132542086Y-119306645D01*
X132407379Y-119256403D01*
X132407372Y-119256401D01*
X132347844Y-119250000D01*
X131750000Y-119250000D01*
X131750000Y-120095854D01*
X131683343Y-120057370D01*
X131562535Y-120025000D01*
X131437465Y-120025000D01*
X131316657Y-120057370D01*
X131250000Y-120095854D01*
X131250000Y-119250000D01*
X130652155Y-119250000D01*
X130592627Y-119256401D01*
X130592620Y-119256403D01*
X130457913Y-119306645D01*
X130457906Y-119306649D01*
X130342812Y-119392809D01*
X130342809Y-119392812D01*
X130256649Y-119507906D01*
X130256645Y-119507913D01*
X130206403Y-119642620D01*
X130206401Y-119642627D01*
X130200000Y-119702155D01*
X101500500Y-119702155D01*
X101500500Y-108618505D01*
X108649500Y-108618505D01*
X108649500Y-108630365D01*
X108649500Y-118046143D01*
X108662746Y-118095581D01*
X108662747Y-118095581D01*
X108673387Y-118135290D01*
X108719527Y-118215208D01*
X108719529Y-118215211D01*
X108719530Y-118215212D01*
X109360788Y-118856470D01*
X109425439Y-118893796D01*
X109440712Y-118902614D01*
X109529856Y-118926500D01*
X109529858Y-118926500D01*
X119428162Y-118926500D01*
X119428164Y-118926500D01*
X119517308Y-118902614D01*
X119532581Y-118893796D01*
X119597232Y-118856470D01*
X120007620Y-118446082D01*
X120032115Y-118403656D01*
X120082682Y-118355440D01*
X120151289Y-118342217D01*
X120213813Y-118366390D01*
X120283814Y-118418793D01*
X120283821Y-118418797D01*
X120328768Y-118435561D01*
X120418667Y-118469091D01*
X120478277Y-118475500D01*
X121074022Y-118475499D01*
X121133633Y-118469091D01*
X121268481Y-118418796D01*
X121383696Y-118332546D01*
X121469946Y-118217331D01*
X121520241Y-118082483D01*
X121526650Y-118022873D01*
X121526650Y-117502127D01*
X121526650Y-115791427D01*
X121546335Y-115724388D01*
X121599139Y-115678633D01*
X121603169Y-115676878D01*
X121631644Y-115665084D01*
X121754566Y-115582952D01*
X121849699Y-115487817D01*
X121911022Y-115454333D01*
X121937381Y-115451499D01*
X122470615Y-115451499D01*
X122537654Y-115471184D01*
X122583409Y-115523988D01*
X122593353Y-115593146D01*
X122564328Y-115656702D01*
X122559880Y-115661478D01*
X122559488Y-115661988D01*
X122487017Y-115787511D01*
X122487016Y-115787515D01*
X122449500Y-115927525D01*
X122449500Y-116072475D01*
X122481270Y-116191041D01*
X122487017Y-116212488D01*
X122559488Y-116338011D01*
X122559490Y-116338013D01*
X122559491Y-116338015D01*
X122661985Y-116440509D01*
X122661986Y-116440510D01*
X122661988Y-116440511D01*
X122787511Y-116512982D01*
X122787512Y-116512982D01*
X122787515Y-116512984D01*
X122901246Y-116543458D01*
X122960904Y-116579822D01*
X122991433Y-116642669D01*
X122993150Y-116663232D01*
X122993150Y-116962547D01*
X122973465Y-117029586D01*
X122920661Y-117075341D01*
X122912483Y-117078729D01*
X122838821Y-117106202D01*
X122838814Y-117106206D01*
X122723605Y-117192452D01*
X122723602Y-117192455D01*
X122637356Y-117307664D01*
X122637352Y-117307671D01*
X122587058Y-117442517D01*
X122580651Y-117502116D01*
X122580650Y-117502135D01*
X122580650Y-118497870D01*
X122580651Y-118497876D01*
X122587058Y-118557483D01*
X122637352Y-118692328D01*
X122637356Y-118692335D01*
X122723602Y-118807544D01*
X122723605Y-118807547D01*
X122838814Y-118893793D01*
X122838821Y-118893797D01*
X122862461Y-118902614D01*
X122973667Y-118944091D01*
X123033277Y-118950500D01*
X123654022Y-118950499D01*
X123713633Y-118944091D01*
X123848481Y-118893796D01*
X123963696Y-118807546D01*
X124009652Y-118746156D01*
X124065584Y-118704287D01*
X124135275Y-118699303D01*
X124196598Y-118732788D01*
X124217815Y-118763089D01*
X124218001Y-118762975D01*
X124219969Y-118766166D01*
X124221301Y-118768068D01*
X124221792Y-118769121D01*
X124313834Y-118918345D01*
X124437804Y-119042315D01*
X124587025Y-119134356D01*
X124587030Y-119134358D01*
X124753452Y-119189505D01*
X124753459Y-119189506D01*
X124856169Y-119199999D01*
X125418650Y-119199999D01*
X125481122Y-119199999D01*
X125481136Y-119199998D01*
X125583847Y-119189505D01*
X125750269Y-119134358D01*
X125750274Y-119134356D01*
X125899495Y-119042315D01*
X126023465Y-118918345D01*
X126115506Y-118769124D01*
X126115508Y-118769119D01*
X126170655Y-118602697D01*
X126170656Y-118602690D01*
X126181149Y-118499986D01*
X126181150Y-118499973D01*
X126181150Y-118250000D01*
X125418650Y-118250000D01*
X125418650Y-119199999D01*
X124856169Y-119199999D01*
X124918649Y-119199998D01*
X124918650Y-119199998D01*
X124918650Y-117750000D01*
X125418650Y-117750000D01*
X126181149Y-117750000D01*
X126181149Y-117500028D01*
X126181148Y-117500013D01*
X126170655Y-117397302D01*
X126115508Y-117230880D01*
X126115506Y-117230875D01*
X126023465Y-117081654D01*
X125899495Y-116957684D01*
X125750274Y-116865643D01*
X125750269Y-116865641D01*
X125583847Y-116810494D01*
X125583840Y-116810493D01*
X125481136Y-116800000D01*
X125418650Y-116800000D01*
X125418650Y-117750000D01*
X124918650Y-117750000D01*
X124918650Y-116800000D01*
X124918649Y-116799999D01*
X124856178Y-116800000D01*
X124856161Y-116800001D01*
X124753452Y-116810494D01*
X124587030Y-116865641D01*
X124587025Y-116865643D01*
X124437804Y-116957684D01*
X124313834Y-117081654D01*
X124221787Y-117230885D01*
X124221298Y-117231936D01*
X124220770Y-117232535D01*
X124218001Y-117237025D01*
X124217233Y-117236551D01*
X124175125Y-117284375D01*
X124107932Y-117303526D01*
X124041051Y-117283309D01*
X124009651Y-117253841D01*
X123963697Y-117192455D01*
X123963694Y-117192452D01*
X123848485Y-117106206D01*
X123848478Y-117106202D01*
X123774817Y-117078729D01*
X123718883Y-117036858D01*
X123694466Y-116971394D01*
X123694150Y-116962547D01*
X123694150Y-116297508D01*
X123694150Y-116297506D01*
X123670264Y-116208362D01*
X123660266Y-116191045D01*
X123624119Y-116128437D01*
X123580351Y-116084669D01*
X123574906Y-116077328D01*
X123565870Y-116052773D01*
X123553334Y-116029814D01*
X123551646Y-116014115D01*
X123550778Y-116011756D01*
X123551192Y-116009892D01*
X123550500Y-116003456D01*
X123550500Y-115927527D01*
X123550500Y-115927525D01*
X123512984Y-115787515D01*
X123476537Y-115724388D01*
X123440511Y-115661988D01*
X123435562Y-115655539D01*
X123436950Y-115654473D01*
X123408219Y-115601857D01*
X123413203Y-115532165D01*
X123455075Y-115476232D01*
X123520539Y-115451815D01*
X123529385Y-115451499D01*
X155133448Y-115451499D01*
X156123552Y-115451499D01*
X156123553Y-115451500D01*
X156271387Y-115451500D01*
X156271392Y-115451499D01*
X160725084Y-115451499D01*
X160872918Y-115451499D01*
X160872919Y-115451499D01*
X160872921Y-115451499D01*
X160970463Y-115432095D01*
X161017914Y-115422657D01*
X161154496Y-115366083D01*
X161225280Y-115318787D01*
X161277417Y-115283951D01*
X164455737Y-112105631D01*
X164505126Y-112031713D01*
X164537869Y-111982710D01*
X164594443Y-111846128D01*
X164623285Y-111701133D01*
X164623285Y-105886367D01*
X164623285Y-105886364D01*
X164594444Y-105741377D01*
X164594443Y-105741376D01*
X164594443Y-105741372D01*
X164586616Y-105722475D01*
X164537872Y-105604796D01*
X164537865Y-105604783D01*
X164455736Y-105481869D01*
X164455733Y-105481865D01*
X164351204Y-105377336D01*
X164351200Y-105377333D01*
X164228286Y-105295204D01*
X164228273Y-105295197D01*
X164091702Y-105238628D01*
X164091692Y-105238625D01*
X163946705Y-105209785D01*
X163946703Y-105209785D01*
X163798867Y-105209785D01*
X163798862Y-105209785D01*
X163712985Y-105226867D01*
X163643393Y-105220640D01*
X163601113Y-105192931D01*
X162281428Y-103873246D01*
X162247943Y-103811923D01*
X162246091Y-103769989D01*
X162248806Y-103748539D01*
X162260646Y-103725304D01*
X162275500Y-103631519D01*
X162275499Y-103537716D01*
X162276481Y-103529966D01*
X162287455Y-103504823D01*
X162295183Y-103478504D01*
X162301229Y-103473264D01*
X162304431Y-103465930D01*
X162327253Y-103450713D01*
X162347986Y-103432748D01*
X162355907Y-103431608D01*
X162362564Y-103427171D01*
X162389989Y-103426708D01*
X162417145Y-103422804D01*
X162424423Y-103426127D01*
X162432423Y-103425993D01*
X162455745Y-103440431D01*
X162480701Y-103451828D01*
X162487180Y-103457861D01*
X162710954Y-103681635D01*
X162732991Y-103717593D01*
X162734924Y-103716609D01*
X162739353Y-103725302D01*
X162739354Y-103725304D01*
X162796950Y-103838342D01*
X162796952Y-103838344D01*
X162796954Y-103838347D01*
X162886652Y-103928045D01*
X162886654Y-103928046D01*
X162886658Y-103928050D01*
X162999694Y-103985645D01*
X162999698Y-103985647D01*
X163093475Y-104000499D01*
X163093481Y-104000500D01*
X164181518Y-104000499D01*
X164275304Y-103985646D01*
X164388342Y-103928050D01*
X164478050Y-103838342D01*
X164535646Y-103725304D01*
X164535646Y-103725302D01*
X164535647Y-103725301D01*
X164550499Y-103631524D01*
X164550500Y-103631519D01*
X164550499Y-103268482D01*
X164535646Y-103174696D01*
X164478050Y-103061658D01*
X164478045Y-103061653D01*
X164472311Y-103053759D01*
X164473665Y-103052774D01*
X164445590Y-103001368D01*
X164450569Y-102931676D01*
X164473013Y-102896751D01*
X164472311Y-102896241D01*
X164478042Y-102888349D01*
X164478050Y-102888342D01*
X164535646Y-102775304D01*
X164535646Y-102775302D01*
X164535647Y-102775301D01*
X164550107Y-102683998D01*
X164550500Y-102681519D01*
X164550499Y-102318482D01*
X164535646Y-102224696D01*
X164478050Y-102111658D01*
X164478045Y-102111653D01*
X164472311Y-102103759D01*
X164473665Y-102102774D01*
X164445590Y-102051368D01*
X164450569Y-101981676D01*
X164473013Y-101946751D01*
X164472311Y-101946241D01*
X164478042Y-101938349D01*
X164478050Y-101938342D01*
X164535646Y-101825304D01*
X164535646Y-101825302D01*
X164535647Y-101825301D01*
X164546282Y-101758147D01*
X164550500Y-101731519D01*
X164550499Y-101368482D01*
X164535646Y-101274696D01*
X164505318Y-101215175D01*
X164498843Y-101202466D01*
X164485947Y-101133797D01*
X164512224Y-101069057D01*
X164569330Y-101028800D01*
X164639136Y-101025808D01*
X164697006Y-101058489D01*
X167080374Y-103441856D01*
X170235181Y-106596663D01*
X170268666Y-106657986D01*
X170271500Y-106684344D01*
X170271500Y-113615770D01*
X170251815Y-113682809D01*
X170235181Y-113703451D01*
X162270451Y-121668181D01*
X162209128Y-121701666D01*
X162182770Y-121704500D01*
X161376080Y-121704500D01*
X161231092Y-121733340D01*
X161231082Y-121733343D01*
X161094511Y-121789912D01*
X161094498Y-121789919D01*
X160971584Y-121872048D01*
X160971580Y-121872051D01*
X160867051Y-121976580D01*
X160867048Y-121976584D01*
X160784919Y-122099498D01*
X160784912Y-122099511D01*
X160728343Y-122236082D01*
X160728340Y-122236092D01*
X160699500Y-122381079D01*
X160699500Y-122381082D01*
X160699500Y-122528918D01*
X160699500Y-122528920D01*
X160699499Y-122528920D01*
X160728340Y-122673907D01*
X160728343Y-122673917D01*
X160784912Y-122810488D01*
X160784919Y-122810501D01*
X160867048Y-122933415D01*
X160867051Y-122933419D01*
X160971580Y-123037948D01*
X160971588Y-123037954D01*
X161044390Y-123086599D01*
X161089196Y-123140211D01*
X161099500Y-123189701D01*
X161099500Y-123954500D01*
X161079815Y-124021539D01*
X161027011Y-124067294D01*
X160975500Y-124078500D01*
X156752856Y-124078500D01*
X156663712Y-124102386D01*
X156663709Y-124102387D01*
X156583791Y-124148527D01*
X156583790Y-124148528D01*
X156455896Y-124276421D01*
X156394572Y-124309905D01*
X156324881Y-124304920D01*
X156293902Y-124288004D01*
X156292090Y-124286647D01*
X156292086Y-124286645D01*
X156157379Y-124236403D01*
X156157372Y-124236401D01*
X156097844Y-124230000D01*
X156000000Y-124230000D01*
X156000000Y-124694158D01*
X155999500Y-124704336D01*
X155999500Y-126205673D01*
X156000000Y-126215841D01*
X156000000Y-126238523D01*
X155980315Y-126305562D01*
X155927511Y-126351317D01*
X155908099Y-126358296D01*
X155887867Y-126363717D01*
X155887865Y-126363718D01*
X155756635Y-126439485D01*
X155756632Y-126439487D01*
X155711681Y-126484439D01*
X155650358Y-126517924D01*
X155580666Y-126512940D01*
X155524733Y-126471068D01*
X155500316Y-126405604D01*
X155500000Y-126396758D01*
X155500000Y-125705000D01*
X155489984Y-125694984D01*
X155457053Y-125685315D01*
X155411298Y-125632511D01*
X155402475Y-125605193D01*
X155401659Y-125601091D01*
X155401656Y-125601082D01*
X155345087Y-125464511D01*
X155345077Y-125464493D01*
X155300575Y-125397890D01*
X155279697Y-125331213D01*
X155298182Y-125263833D01*
X155350161Y-125217143D01*
X155403677Y-125205000D01*
X155500000Y-125205000D01*
X155500000Y-124230000D01*
X155402155Y-124230000D01*
X155342627Y-124236401D01*
X155342620Y-124236403D01*
X155207913Y-124286645D01*
X155207906Y-124286649D01*
X155092812Y-124372809D01*
X155092809Y-124372812D01*
X155006649Y-124487906D01*
X155006645Y-124487913D01*
X154956403Y-124622620D01*
X154956401Y-124622627D01*
X154950000Y-124682155D01*
X154950000Y-124957408D01*
X154930315Y-125024447D01*
X154877511Y-125070202D01*
X154808353Y-125080146D01*
X154801810Y-125079026D01*
X154753918Y-125069500D01*
X154606082Y-125069500D01*
X154606080Y-125069500D01*
X154461092Y-125098340D01*
X154461082Y-125098343D01*
X154324511Y-125154912D01*
X154324498Y-125154919D01*
X154201584Y-125237048D01*
X154201580Y-125237051D01*
X154097051Y-125341580D01*
X154097048Y-125341584D01*
X154014919Y-125464498D01*
X154014912Y-125464511D01*
X153958343Y-125601082D01*
X153958340Y-125601092D01*
X153929500Y-125746079D01*
X153929500Y-125746082D01*
X153929500Y-126993918D01*
X153929500Y-126993920D01*
X153929499Y-126993920D01*
X153958340Y-127138907D01*
X153958343Y-127138917D01*
X154014912Y-127275488D01*
X154014919Y-127275501D01*
X154097048Y-127398415D01*
X154097051Y-127398419D01*
X154201580Y-127502948D01*
X154201584Y-127502951D01*
X154324498Y-127585080D01*
X154324511Y-127585087D01*
X154427826Y-127627881D01*
X154461087Y-127641658D01*
X154461091Y-127641658D01*
X154461092Y-127641659D01*
X154606079Y-127670500D01*
X154606082Y-127670500D01*
X154753919Y-127670500D01*
X154772637Y-127666776D01*
X154835438Y-127654284D01*
X154905028Y-127660511D01*
X154960206Y-127703373D01*
X154968987Y-127719119D01*
X154969141Y-127719031D01*
X155045677Y-127851595D01*
X155045679Y-127851597D01*
X155045680Y-127851599D01*
X155148174Y-127954093D01*
X155148175Y-127954094D01*
X155148177Y-127954095D01*
X155273700Y-128026566D01*
X155273701Y-128026566D01*
X155273704Y-128026568D01*
X155413714Y-128064084D01*
X155413717Y-128064084D01*
X155558661Y-128064084D01*
X155558664Y-128064084D01*
X155698674Y-128026568D01*
X155824204Y-127954093D01*
X155926698Y-127851599D01*
X155999173Y-127726069D01*
X156036689Y-127586059D01*
X156036689Y-127586054D01*
X156037050Y-127583316D01*
X156037996Y-127581175D01*
X156038792Y-127578208D01*
X156039254Y-127578331D01*
X156065316Y-127519419D01*
X156123640Y-127480947D01*
X156159989Y-127475500D01*
X156185764Y-127475500D01*
X156185766Y-127475500D01*
X156332135Y-127436281D01*
X156463365Y-127360515D01*
X156570515Y-127253365D01*
X156646281Y-127122135D01*
X156685500Y-126975766D01*
X156685500Y-126824234D01*
X156646281Y-126677865D01*
X156610851Y-126616500D01*
X156594379Y-126548601D01*
X156617231Y-126482574D01*
X156672152Y-126439383D01*
X156718239Y-126430500D01*
X156874676Y-126430500D01*
X156950808Y-126415356D01*
X156959146Y-126415355D01*
X156963947Y-126413467D01*
X156999190Y-126415355D01*
X157002259Y-126415965D01*
X157002260Y-126415966D01*
X157027668Y-126421020D01*
X157089578Y-126453404D01*
X157124152Y-126514119D01*
X157120413Y-126583889D01*
X157091158Y-126630317D01*
X157059494Y-126661981D01*
X157059488Y-126661988D01*
X156987017Y-126787511D01*
X156987016Y-126787515D01*
X156949500Y-126927525D01*
X156949500Y-127072475D01*
X156987016Y-127212485D01*
X156987017Y-127212488D01*
X157059488Y-127338011D01*
X157059493Y-127338017D01*
X157133795Y-127412319D01*
X157167280Y-127473642D01*
X157162296Y-127543334D01*
X157133795Y-127587681D01*
X157059493Y-127661982D01*
X157059488Y-127661988D01*
X156987017Y-127787511D01*
X156987016Y-127787515D01*
X156949500Y-127927525D01*
X156949500Y-128072475D01*
X156987016Y-128212485D01*
X156987017Y-128212488D01*
X157059488Y-128338011D01*
X157059490Y-128338013D01*
X157059491Y-128338015D01*
X157161985Y-128440509D01*
X157161986Y-128440510D01*
X157161988Y-128440511D01*
X157287511Y-128512982D01*
X157287512Y-128512982D01*
X157287515Y-128512984D01*
X157427525Y-128550500D01*
X157427528Y-128550500D01*
X157572472Y-128550500D01*
X157572475Y-128550500D01*
X157712485Y-128512984D01*
X157838015Y-128440509D01*
X157891705Y-128386819D01*
X157953028Y-128353334D01*
X157979386Y-128350500D01*
X159228142Y-128350500D01*
X159228144Y-128350500D01*
X159317288Y-128326614D01*
X159327912Y-128320480D01*
X159397212Y-128280470D01*
X161030470Y-126647212D01*
X161076614Y-126567288D01*
X161085322Y-126534788D01*
X161087034Y-126528396D01*
X161088644Y-126522393D01*
X161108106Y-126490471D01*
X161125007Y-126462744D01*
X161125012Y-126462741D01*
X161125016Y-126462736D01*
X161151979Y-126449642D01*
X161187854Y-126432216D01*
X161208415Y-126430500D01*
X161281761Y-126430500D01*
X161348800Y-126450185D01*
X161394555Y-126502989D01*
X161404499Y-126572147D01*
X161389148Y-126616501D01*
X161353719Y-126677863D01*
X161314500Y-126824234D01*
X161314500Y-126975765D01*
X161353719Y-127122136D01*
X161363408Y-127138917D01*
X161429485Y-127253365D01*
X161536635Y-127360515D01*
X161594624Y-127393995D01*
X161602300Y-127398427D01*
X161650515Y-127448995D01*
X161663737Y-127517602D01*
X161637769Y-127582467D01*
X161627981Y-127593495D01*
X161559488Y-127661988D01*
X161487017Y-127787511D01*
X161487016Y-127787515D01*
X161449500Y-127927525D01*
X161449500Y-128072475D01*
X161487016Y-128212485D01*
X161487017Y-128212488D01*
X161559488Y-128338011D01*
X161559490Y-128338013D01*
X161559491Y-128338015D01*
X161661985Y-128440509D01*
X161661986Y-128440510D01*
X161661988Y-128440511D01*
X161787511Y-128512982D01*
X161787512Y-128512982D01*
X161787515Y-128512984D01*
X161927525Y-128550500D01*
X161927528Y-128550500D01*
X162072472Y-128550500D01*
X162072475Y-128550500D01*
X162212485Y-128512984D01*
X162338015Y-128440509D01*
X162440509Y-128338015D01*
X162512984Y-128212485D01*
X162550500Y-128072475D01*
X162550500Y-127996543D01*
X162570185Y-127929504D01*
X162586815Y-127908866D01*
X162867801Y-127627879D01*
X162929122Y-127594396D01*
X162998813Y-127599380D01*
X163002915Y-127600994D01*
X163101087Y-127641658D01*
X163101091Y-127641658D01*
X163101092Y-127641659D01*
X163246079Y-127670500D01*
X163246082Y-127670500D01*
X163393920Y-127670500D01*
X163491462Y-127651096D01*
X163538913Y-127641658D01*
X163675495Y-127585084D01*
X163798416Y-127502951D01*
X163902951Y-127398416D01*
X163985084Y-127275495D01*
X164041658Y-127138913D01*
X164070500Y-126993918D01*
X164070500Y-125746082D01*
X164070500Y-125746079D01*
X164041659Y-125601092D01*
X164041658Y-125601091D01*
X164041658Y-125601087D01*
X164041656Y-125601082D01*
X163985087Y-125464511D01*
X163985080Y-125464498D01*
X163902951Y-125341584D01*
X163902948Y-125341580D01*
X163798419Y-125237051D01*
X163798415Y-125237048D01*
X163675501Y-125154919D01*
X163675488Y-125154912D01*
X163538917Y-125098343D01*
X163538907Y-125098340D01*
X163393920Y-125069500D01*
X163393918Y-125069500D01*
X163246082Y-125069500D01*
X163198190Y-125079026D01*
X163128599Y-125072797D01*
X163073422Y-125029934D01*
X163050178Y-124964044D01*
X163050000Y-124957408D01*
X163050000Y-124682172D01*
X163049999Y-124682155D01*
X163043598Y-124622627D01*
X163043596Y-124622620D01*
X162993354Y-124487913D01*
X162993350Y-124487906D01*
X162907190Y-124372812D01*
X162907187Y-124372809D01*
X162792093Y-124286649D01*
X162792086Y-124286645D01*
X162657379Y-124236403D01*
X162657372Y-124236401D01*
X162597844Y-124230000D01*
X162500000Y-124230000D01*
X162500000Y-126396758D01*
X162480315Y-126463797D01*
X162427511Y-126509552D01*
X162358353Y-126519496D01*
X162294797Y-126490471D01*
X162288319Y-126484439D01*
X162243367Y-126439487D01*
X162243365Y-126439485D01*
X162167598Y-126395740D01*
X162112134Y-126363718D01*
X162112132Y-126363717D01*
X162091901Y-126358296D01*
X162068128Y-126343804D01*
X162042797Y-126332236D01*
X162038704Y-126325867D01*
X162032243Y-126321929D01*
X162020078Y-126296884D01*
X162005023Y-126273458D01*
X162003477Y-126262706D01*
X162001716Y-126259081D01*
X162000000Y-126238523D01*
X162000000Y-126215841D01*
X162000500Y-126205673D01*
X162000500Y-124704336D01*
X162000000Y-124694158D01*
X162000000Y-124230000D01*
X161924500Y-124230000D01*
X161857461Y-124210315D01*
X161811706Y-124157511D01*
X161800500Y-124106000D01*
X161800500Y-123329500D01*
X161820185Y-123262461D01*
X161872989Y-123216706D01*
X161924500Y-123205500D01*
X162618920Y-123205500D01*
X162716462Y-123186096D01*
X162763913Y-123176658D01*
X162900495Y-123120084D01*
X162949729Y-123087186D01*
X163023416Y-123037952D01*
X171604951Y-114456416D01*
X171687084Y-114333495D01*
X171743658Y-114196913D01*
X171753096Y-114149462D01*
X171772500Y-114051920D01*
X171772500Y-106248196D01*
X171772499Y-106248195D01*
X171759237Y-106181519D01*
X171743659Y-106103203D01*
X171695532Y-105987016D01*
X171690560Y-105975013D01*
X171687087Y-105966627D01*
X171687086Y-105966626D01*
X171687084Y-105966620D01*
X171621380Y-105868287D01*
X171621378Y-105868284D01*
X171604954Y-105843702D01*
X171604952Y-105843700D01*
X164903834Y-99142581D01*
X164870349Y-99081258D01*
X164875333Y-99011566D01*
X164917205Y-98955633D01*
X164982669Y-98931216D01*
X164991515Y-98930900D01*
X166336092Y-98930900D01*
X166336094Y-98930900D01*
X166425238Y-98907014D01*
X166505162Y-98860869D01*
X166570419Y-98795612D01*
X166616564Y-98715688D01*
X166640450Y-98626544D01*
X166640450Y-97373456D01*
X166616564Y-97284312D01*
X166612839Y-97277861D01*
X166604818Y-97263967D01*
X166604816Y-97263965D01*
X166570420Y-97204388D01*
X166275769Y-96909737D01*
X166242284Y-96848414D01*
X166239450Y-96822056D01*
X166239450Y-96745922D01*
X166239449Y-96745920D01*
X166224917Y-96672863D01*
X166224916Y-96672861D01*
X166224916Y-96672859D01*
X166224914Y-96672857D01*
X166224914Y-96672855D01*
X166205559Y-96643888D01*
X166184681Y-96577211D01*
X166203166Y-96509831D01*
X166205520Y-96506165D01*
X166224916Y-96477138D01*
X166239450Y-96404072D01*
X166239450Y-95795924D01*
X166239450Y-95795921D01*
X166239449Y-95795919D01*
X166224917Y-95722862D01*
X166224916Y-95722858D01*
X166200044Y-95685634D01*
X166169551Y-95639997D01*
X166086690Y-95584632D01*
X166086689Y-95584631D01*
X166086685Y-95584630D01*
X166013627Y-95570098D01*
X166013624Y-95570098D01*
X166007788Y-95570098D01*
X165940749Y-95550413D01*
X165894994Y-95497609D01*
X165885050Y-95428451D01*
X165914075Y-95364895D01*
X165920107Y-95358417D01*
X165940509Y-95338015D01*
X166012984Y-95212485D01*
X166050500Y-95072475D01*
X166050500Y-94927525D01*
X166012984Y-94787515D01*
X165969665Y-94712485D01*
X165940511Y-94661988D01*
X165940506Y-94661982D01*
X165838017Y-94559493D01*
X165838011Y-94559488D01*
X165712488Y-94487017D01*
X165712489Y-94487017D01*
X165701006Y-94483940D01*
X165572475Y-94449500D01*
X165427525Y-94449500D01*
X165298993Y-94483940D01*
X165287511Y-94487017D01*
X165161988Y-94559488D01*
X165161982Y-94559493D01*
X165059493Y-94661982D01*
X165059488Y-94661988D01*
X164987017Y-94787511D01*
X164987016Y-94787515D01*
X164949500Y-94927525D01*
X164949500Y-94927527D01*
X164949500Y-95059294D01*
X164929815Y-95126333D01*
X164877011Y-95172088D01*
X164807853Y-95182032D01*
X164793408Y-95179069D01*
X164756195Y-95169098D01*
X164756194Y-95169098D01*
X149777789Y-95169098D01*
X149688645Y-95192984D01*
X149688642Y-95192985D01*
X149608724Y-95239125D01*
X149608719Y-95239129D01*
X145762181Y-99085668D01*
X145700858Y-99119153D01*
X145631166Y-99114169D01*
X145575233Y-99072297D01*
X145550816Y-99006833D01*
X145550500Y-98997987D01*
X145550500Y-98927527D01*
X145550500Y-98927525D01*
X145512984Y-98787515D01*
X145493073Y-98753029D01*
X145440511Y-98661988D01*
X145440506Y-98661982D01*
X145338017Y-98559493D01*
X145338011Y-98559488D01*
X145212488Y-98487017D01*
X145212489Y-98487017D01*
X145201006Y-98483940D01*
X145072475Y-98449500D01*
X145072472Y-98449500D01*
X144996544Y-98449500D01*
X144967103Y-98440855D01*
X144937117Y-98434332D01*
X144932101Y-98430577D01*
X144929505Y-98429815D01*
X144908863Y-98413181D01*
X144886819Y-98391137D01*
X144853334Y-98329814D01*
X144850500Y-98303456D01*
X144850500Y-98151207D01*
X144850500Y-98151205D01*
X144826614Y-98062061D01*
X144809909Y-98033127D01*
X144780470Y-97982137D01*
X119873622Y-73075289D01*
X119840137Y-73013966D01*
X119845121Y-72944274D01*
X119865449Y-72908944D01*
X119875125Y-72897155D01*
X120052559Y-72631605D01*
X120203111Y-72349943D01*
X120325330Y-72054880D01*
X120418039Y-71749259D01*
X120480346Y-71436022D01*
X120511650Y-71118186D01*
X120511650Y-70798812D01*
X120480346Y-70480976D01*
X120418039Y-70167739D01*
X120325330Y-69862118D01*
X120203111Y-69567055D01*
X120052559Y-69285393D01*
X120052548Y-69285376D01*
X119875137Y-69019860D01*
X119875130Y-69019850D01*
X119875125Y-69019843D01*
X119672516Y-68772964D01*
X119672515Y-68772963D01*
X119672511Y-68772958D01*
X119446690Y-68547137D01*
X119199811Y-68344528D01*
X119199788Y-68344511D01*
X118934272Y-68167100D01*
X118934244Y-68167083D01*
X118652601Y-68016541D01*
X118652596Y-68016539D01*
X118357532Y-67894319D01*
X118051904Y-67801608D01*
X117738671Y-67739302D01*
X117738672Y-67739302D01*
X117499291Y-67715726D01*
X117420837Y-67707999D01*
X117101463Y-67707999D01*
X117028972Y-67715138D01*
X116783627Y-67739302D01*
X116470395Y-67801608D01*
X116164767Y-67894319D01*
X115869703Y-68016539D01*
X115869698Y-68016541D01*
X115588055Y-68167083D01*
X115588027Y-68167100D01*
X115322511Y-68344511D01*
X115322488Y-68344528D01*
X115075609Y-68547137D01*
X114849788Y-68772958D01*
X114647179Y-69019837D01*
X114647162Y-69019860D01*
X114469751Y-69285376D01*
X114469734Y-69285404D01*
X114319192Y-69567047D01*
X114319190Y-69567052D01*
X114196970Y-69862116D01*
X114104259Y-70167744D01*
X114041953Y-70480976D01*
X114010650Y-70798815D01*
X114010650Y-71118182D01*
X114041953Y-71436021D01*
X114097936Y-71717463D01*
X114091709Y-71787054D01*
X114048846Y-71842232D01*
X113982956Y-71865476D01*
X113914959Y-71849408D01*
X113888638Y-71829335D01*
X113786819Y-71727516D01*
X113753334Y-71666193D01*
X113750500Y-71639835D01*
X113750500Y-64581878D01*
X113770185Y-64514839D01*
X113786819Y-64494197D01*
X115035699Y-63245318D01*
X115097022Y-63211833D01*
X115123380Y-63208999D01*
X119848525Y-63208999D01*
X119848542Y-63208999D01*
X119957693Y-63202869D01*
X120215483Y-63154093D01*
X120463124Y-63067440D01*
X120695083Y-62944845D01*
X120906181Y-62789049D01*
X121091700Y-62603530D01*
X121247496Y-62392432D01*
X121370091Y-62160473D01*
X121456744Y-61912832D01*
X121505520Y-61655042D01*
X121511650Y-61545891D01*
X121511650Y-58371107D01*
X121505520Y-58261956D01*
X121456744Y-58004166D01*
X121370091Y-57756525D01*
X121247496Y-57524566D01*
X121091700Y-57313468D01*
X120906181Y-57127949D01*
X120695083Y-56972153D01*
X120695079Y-56972151D01*
X120695078Y-56972150D01*
X120463128Y-56849560D01*
X120463127Y-56849559D01*
X120463124Y-56849558D01*
X120215483Y-56762905D01*
X120215482Y-56762904D01*
X120215477Y-56762903D01*
X120215472Y-56762902D01*
X119957704Y-56714130D01*
X119957694Y-56714129D01*
X119957693Y-56714129D01*
X119848542Y-56707999D01*
X114673758Y-56707999D01*
X114564607Y-56714129D01*
X114564606Y-56714129D01*
X114564595Y-56714130D01*
X114306827Y-56762902D01*
X114306822Y-56762903D01*
X114182996Y-56806231D01*
X114059176Y-56849558D01*
X114059174Y-56849558D01*
X114059171Y-56849560D01*
X113827221Y-56972150D01*
X113616118Y-57127949D01*
X113430600Y-57313467D01*
X113274801Y-57524570D01*
X113152211Y-57756520D01*
X113065554Y-58004171D01*
X113065553Y-58004176D01*
X113016781Y-58261944D01*
X113016780Y-58261957D01*
X113010650Y-58371109D01*
X113010650Y-61545888D01*
X113016780Y-61655040D01*
X113016781Y-61655053D01*
X113065553Y-61912821D01*
X113065554Y-61912826D01*
X113065555Y-61912831D01*
X113065556Y-61912832D01*
X113152209Y-62160473D01*
X113274804Y-62392432D01*
X113359966Y-62507824D01*
X113419952Y-62589103D01*
X113443922Y-62654732D01*
X113428606Y-62722903D01*
X113407862Y-62750417D01*
X112417049Y-63741230D01*
X112367812Y-63814920D01*
X112334921Y-63864145D01*
X112334914Y-63864157D01*
X112278342Y-64000735D01*
X112278340Y-64000741D01*
X112249500Y-64145728D01*
X112249500Y-64145731D01*
X112249500Y-72075983D01*
X112249500Y-72075985D01*
X112249499Y-72075985D01*
X112278340Y-72220972D01*
X112278343Y-72220982D01*
X112334914Y-72357557D01*
X112367812Y-72406792D01*
X112367813Y-72406795D01*
X112417046Y-72480479D01*
X112417052Y-72480486D01*
X119989331Y-80052764D01*
X120022816Y-80114087D01*
X120025650Y-80140445D01*
X120025650Y-95330939D01*
X120005965Y-95397978D01*
X119953161Y-95443733D01*
X119884003Y-95453677D01*
X119820447Y-95424652D01*
X119796112Y-95396036D01*
X119718469Y-95270158D01*
X119718466Y-95270154D01*
X119594495Y-95146183D01*
X119442126Y-95052201D01*
X119395402Y-95000253D01*
X119384179Y-94931290D01*
X119412023Y-94867208D01*
X119419521Y-94859002D01*
X119440509Y-94838015D01*
X119512984Y-94712485D01*
X119550500Y-94572475D01*
X119550500Y-94427525D01*
X119512984Y-94287515D01*
X119491542Y-94250377D01*
X119440511Y-94161988D01*
X119440506Y-94161982D01*
X119338017Y-94059493D01*
X119338011Y-94059488D01*
X119212488Y-93987017D01*
X119212489Y-93987017D01*
X119201006Y-93983940D01*
X119072475Y-93949500D01*
X118927525Y-93949500D01*
X118798993Y-93983940D01*
X118787511Y-93987017D01*
X118661988Y-94059488D01*
X118661982Y-94059493D01*
X118559493Y-94161982D01*
X118559488Y-94161988D01*
X118487017Y-94287511D01*
X118487016Y-94287515D01*
X118449500Y-94427525D01*
X118449500Y-94427527D01*
X118449500Y-94503455D01*
X118429815Y-94570494D01*
X118413181Y-94591136D01*
X117065952Y-95938364D01*
X117004629Y-95971849D01*
X116934937Y-95966865D01*
X116903960Y-95949949D01*
X116823485Y-95889705D01*
X116823478Y-95889701D01*
X116688632Y-95839407D01*
X116688633Y-95839407D01*
X116629033Y-95833000D01*
X116629031Y-95832999D01*
X116629023Y-95832999D01*
X116629014Y-95832999D01*
X114533279Y-95832999D01*
X114533273Y-95833000D01*
X114473666Y-95839407D01*
X114338821Y-95889701D01*
X114338814Y-95889705D01*
X114223605Y-95975951D01*
X114223602Y-95975954D01*
X114137356Y-96091163D01*
X114137352Y-96091170D01*
X114084348Y-96233284D01*
X114081689Y-96232292D01*
X114053738Y-96281349D01*
X113991818Y-96313718D01*
X113922228Y-96307472D01*
X113879978Y-96279775D01*
X113052233Y-95452030D01*
X113052228Y-95452026D01*
X112972310Y-95405886D01*
X112972309Y-95405885D01*
X112972308Y-95405885D01*
X112883164Y-95381999D01*
X110279136Y-95381999D01*
X110279134Y-95381999D01*
X110210090Y-95400498D01*
X110210091Y-95400499D01*
X110189994Y-95405884D01*
X110189989Y-95405886D01*
X110110071Y-95452026D01*
X110110066Y-95452030D01*
X109699679Y-95862417D01*
X109673876Y-95907112D01*
X109673874Y-95907114D01*
X109653538Y-95942335D01*
X109653537Y-95942338D01*
X109653536Y-95942340D01*
X109653536Y-95942341D01*
X109639668Y-95994098D01*
X109629650Y-96031485D01*
X109629650Y-104528643D01*
X109641734Y-104573743D01*
X109653535Y-104617784D01*
X109653537Y-104617789D01*
X109699677Y-104697707D01*
X109699681Y-104697712D01*
X110096158Y-105094189D01*
X110129643Y-105155512D01*
X110124659Y-105225202D01*
X110087059Y-105326013D01*
X110087058Y-105326015D01*
X110081541Y-105377336D01*
X110080651Y-105385622D01*
X110080650Y-105385634D01*
X110080650Y-106781369D01*
X110080651Y-106781375D01*
X110087058Y-106840982D01*
X110124659Y-106941794D01*
X110129643Y-107011486D01*
X110096158Y-107072808D01*
X108719531Y-108449435D01*
X108719527Y-108449440D01*
X108695751Y-108490621D01*
X108695748Y-108490628D01*
X108689406Y-108501614D01*
X108673386Y-108529361D01*
X108649500Y-108618505D01*
X101500500Y-108618505D01*
X101500500Y-25624500D01*
X101520185Y-25557461D01*
X101572989Y-25511706D01*
X101624500Y-25500500D01*
X191375500Y-25500500D01*
X191442539Y-25520185D01*
G37*
%TD.AperFunction*%
%TD*%
M02*
