%TF.GenerationSoftware,KiCad,Pcbnew,9.0.0-rc3*%
%TF.CreationDate,2026-03-03T21:45:30+01:00*%
%TF.ProjectId,powerbank,706f7765-7262-4616-9e6b-2e6b69636164,rev?*%
%TF.SameCoordinates,Original*%
%TF.FileFunction,Legend,Top*%
%TF.FilePolarity,Positive*%
%FSLAX46Y46*%
G04 Gerber Fmt 4.6, Leading zero omitted, Abs format (unit mm)*
G04 Created by KiCad (PCBNEW 9.0.0-rc3) date 2026-03-03 21:45:30*
%MOMM*%
%LPD*%
G01*
G04 APERTURE LIST*
%ADD10C,0.150000*%
%ADD11C,0.100000*%
%ADD12C,0.120000*%
%ADD13C,0.152400*%
G04 APERTURE END LIST*
D10*
X124089483Y-116804819D02*
X123756150Y-116328628D01*
X123518055Y-116804819D02*
X123518055Y-115804819D01*
X123518055Y-115804819D02*
X123899007Y-115804819D01*
X123899007Y-115804819D02*
X123994245Y-115852438D01*
X123994245Y-115852438D02*
X124041864Y-115900057D01*
X124041864Y-115900057D02*
X124089483Y-115995295D01*
X124089483Y-115995295D02*
X124089483Y-116138152D01*
X124089483Y-116138152D02*
X124041864Y-116233390D01*
X124041864Y-116233390D02*
X123994245Y-116281009D01*
X123994245Y-116281009D02*
X123899007Y-116328628D01*
X123899007Y-116328628D02*
X123518055Y-116328628D01*
X124660912Y-116233390D02*
X124565674Y-116185771D01*
X124565674Y-116185771D02*
X124518055Y-116138152D01*
X124518055Y-116138152D02*
X124470436Y-116042914D01*
X124470436Y-116042914D02*
X124470436Y-115995295D01*
X124470436Y-115995295D02*
X124518055Y-115900057D01*
X124518055Y-115900057D02*
X124565674Y-115852438D01*
X124565674Y-115852438D02*
X124660912Y-115804819D01*
X124660912Y-115804819D02*
X124851388Y-115804819D01*
X124851388Y-115804819D02*
X124946626Y-115852438D01*
X124946626Y-115852438D02*
X124994245Y-115900057D01*
X124994245Y-115900057D02*
X125041864Y-115995295D01*
X125041864Y-115995295D02*
X125041864Y-116042914D01*
X125041864Y-116042914D02*
X124994245Y-116138152D01*
X124994245Y-116138152D02*
X124946626Y-116185771D01*
X124946626Y-116185771D02*
X124851388Y-116233390D01*
X124851388Y-116233390D02*
X124660912Y-116233390D01*
X124660912Y-116233390D02*
X124565674Y-116281009D01*
X124565674Y-116281009D02*
X124518055Y-116328628D01*
X124518055Y-116328628D02*
X124470436Y-116423866D01*
X124470436Y-116423866D02*
X124470436Y-116614342D01*
X124470436Y-116614342D02*
X124518055Y-116709580D01*
X124518055Y-116709580D02*
X124565674Y-116757200D01*
X124565674Y-116757200D02*
X124660912Y-116804819D01*
X124660912Y-116804819D02*
X124851388Y-116804819D01*
X124851388Y-116804819D02*
X124946626Y-116757200D01*
X124946626Y-116757200D02*
X124994245Y-116709580D01*
X124994245Y-116709580D02*
X125041864Y-116614342D01*
X125041864Y-116614342D02*
X125041864Y-116423866D01*
X125041864Y-116423866D02*
X124994245Y-116328628D01*
X124994245Y-116328628D02*
X124946626Y-116281009D01*
X124946626Y-116281009D02*
X124851388Y-116233390D01*
X124089483Y-94988318D02*
X123756150Y-94512127D01*
X123518055Y-94988318D02*
X123518055Y-93988318D01*
X123518055Y-93988318D02*
X123899007Y-93988318D01*
X123899007Y-93988318D02*
X123994245Y-94035937D01*
X123994245Y-94035937D02*
X124041864Y-94083556D01*
X124041864Y-94083556D02*
X124089483Y-94178794D01*
X124089483Y-94178794D02*
X124089483Y-94321651D01*
X124089483Y-94321651D02*
X124041864Y-94416889D01*
X124041864Y-94416889D02*
X123994245Y-94464508D01*
X123994245Y-94464508D02*
X123899007Y-94512127D01*
X123899007Y-94512127D02*
X123518055Y-94512127D01*
X125041864Y-94988318D02*
X124470436Y-94988318D01*
X124756150Y-94988318D02*
X124756150Y-93988318D01*
X124756150Y-93988318D02*
X124660912Y-94131175D01*
X124660912Y-94131175D02*
X124565674Y-94226413D01*
X124565674Y-94226413D02*
X124470436Y-94274032D01*
X124089483Y-97938318D02*
X123756150Y-97462127D01*
X123518055Y-97938318D02*
X123518055Y-96938318D01*
X123518055Y-96938318D02*
X123899007Y-96938318D01*
X123899007Y-96938318D02*
X123994245Y-96985937D01*
X123994245Y-96985937D02*
X124041864Y-97033556D01*
X124041864Y-97033556D02*
X124089483Y-97128794D01*
X124089483Y-97128794D02*
X124089483Y-97271651D01*
X124089483Y-97271651D02*
X124041864Y-97366889D01*
X124041864Y-97366889D02*
X123994245Y-97414508D01*
X123994245Y-97414508D02*
X123899007Y-97462127D01*
X123899007Y-97462127D02*
X123518055Y-97462127D01*
X124422817Y-96938318D02*
X125041864Y-96938318D01*
X125041864Y-96938318D02*
X124708531Y-97319270D01*
X124708531Y-97319270D02*
X124851388Y-97319270D01*
X124851388Y-97319270D02*
X124946626Y-97366889D01*
X124946626Y-97366889D02*
X124994245Y-97414508D01*
X124994245Y-97414508D02*
X125041864Y-97509746D01*
X125041864Y-97509746D02*
X125041864Y-97747841D01*
X125041864Y-97747841D02*
X124994245Y-97843079D01*
X124994245Y-97843079D02*
X124946626Y-97890699D01*
X124946626Y-97890699D02*
X124851388Y-97938318D01*
X124851388Y-97938318D02*
X124565674Y-97938318D01*
X124565674Y-97938318D02*
X124470436Y-97890699D01*
X124470436Y-97890699D02*
X124422817Y-97843079D01*
X119659483Y-94893079D02*
X119611864Y-94940699D01*
X119611864Y-94940699D02*
X119469007Y-94988318D01*
X119469007Y-94988318D02*
X119373769Y-94988318D01*
X119373769Y-94988318D02*
X119230912Y-94940699D01*
X119230912Y-94940699D02*
X119135674Y-94845460D01*
X119135674Y-94845460D02*
X119088055Y-94750222D01*
X119088055Y-94750222D02*
X119040436Y-94559746D01*
X119040436Y-94559746D02*
X119040436Y-94416889D01*
X119040436Y-94416889D02*
X119088055Y-94226413D01*
X119088055Y-94226413D02*
X119135674Y-94131175D01*
X119135674Y-94131175D02*
X119230912Y-94035937D01*
X119230912Y-94035937D02*
X119373769Y-93988318D01*
X119373769Y-93988318D02*
X119469007Y-93988318D01*
X119469007Y-93988318D02*
X119611864Y-94035937D01*
X119611864Y-94035937D02*
X119659483Y-94083556D01*
X120611864Y-94988318D02*
X120040436Y-94988318D01*
X120326150Y-94988318D02*
X120326150Y-93988318D01*
X120326150Y-93988318D02*
X120230912Y-94131175D01*
X120230912Y-94131175D02*
X120135674Y-94226413D01*
X120135674Y-94226413D02*
X120040436Y-94274032D01*
X112843055Y-108588318D02*
X112843055Y-107588318D01*
X112843055Y-107588318D02*
X113081150Y-107588318D01*
X113081150Y-107588318D02*
X113224007Y-107635937D01*
X113224007Y-107635937D02*
X113319245Y-107731175D01*
X113319245Y-107731175D02*
X113366864Y-107826413D01*
X113366864Y-107826413D02*
X113414483Y-108016889D01*
X113414483Y-108016889D02*
X113414483Y-108159746D01*
X113414483Y-108159746D02*
X113366864Y-108350222D01*
X113366864Y-108350222D02*
X113319245Y-108445460D01*
X113319245Y-108445460D02*
X113224007Y-108540699D01*
X113224007Y-108540699D02*
X113081150Y-108588318D01*
X113081150Y-108588318D02*
X112843055Y-108588318D01*
X114271626Y-107921651D02*
X114271626Y-108588318D01*
X114033531Y-107540699D02*
X113795436Y-108254984D01*
X113795436Y-108254984D02*
X114414483Y-108254984D01*
X112843055Y-104038318D02*
X112843055Y-103038318D01*
X112843055Y-103038318D02*
X113081150Y-103038318D01*
X113081150Y-103038318D02*
X113224007Y-103085937D01*
X113224007Y-103085937D02*
X113319245Y-103181175D01*
X113319245Y-103181175D02*
X113366864Y-103276413D01*
X113366864Y-103276413D02*
X113414483Y-103466889D01*
X113414483Y-103466889D02*
X113414483Y-103609746D01*
X113414483Y-103609746D02*
X113366864Y-103800222D01*
X113366864Y-103800222D02*
X113319245Y-103895460D01*
X113319245Y-103895460D02*
X113224007Y-103990699D01*
X113224007Y-103990699D02*
X113081150Y-104038318D01*
X113081150Y-104038318D02*
X112843055Y-104038318D01*
X113747817Y-103038318D02*
X114366864Y-103038318D01*
X114366864Y-103038318D02*
X114033531Y-103419270D01*
X114033531Y-103419270D02*
X114176388Y-103419270D01*
X114176388Y-103419270D02*
X114271626Y-103466889D01*
X114271626Y-103466889D02*
X114319245Y-103514508D01*
X114319245Y-103514508D02*
X114366864Y-103609746D01*
X114366864Y-103609746D02*
X114366864Y-103847841D01*
X114366864Y-103847841D02*
X114319245Y-103943079D01*
X114319245Y-103943079D02*
X114271626Y-103990699D01*
X114271626Y-103990699D02*
X114176388Y-104038318D01*
X114176388Y-104038318D02*
X113890674Y-104038318D01*
X113890674Y-104038318D02*
X113795436Y-103990699D01*
X113795436Y-103990699D02*
X113747817Y-103943079D01*
X161738095Y-99554819D02*
X161738095Y-100364342D01*
X161738095Y-100364342D02*
X161785714Y-100459580D01*
X161785714Y-100459580D02*
X161833333Y-100507200D01*
X161833333Y-100507200D02*
X161928571Y-100554819D01*
X161928571Y-100554819D02*
X162119047Y-100554819D01*
X162119047Y-100554819D02*
X162214285Y-100507200D01*
X162214285Y-100507200D02*
X162261904Y-100459580D01*
X162261904Y-100459580D02*
X162309523Y-100364342D01*
X162309523Y-100364342D02*
X162309523Y-99554819D01*
X163309523Y-100554819D02*
X162738095Y-100554819D01*
X163023809Y-100554819D02*
X163023809Y-99554819D01*
X163023809Y-99554819D02*
X162928571Y-99697676D01*
X162928571Y-99697676D02*
X162833333Y-99792914D01*
X162833333Y-99792914D02*
X162738095Y-99840533D01*
X152333333Y-104679580D02*
X152285714Y-104727200D01*
X152285714Y-104727200D02*
X152142857Y-104774819D01*
X152142857Y-104774819D02*
X152047619Y-104774819D01*
X152047619Y-104774819D02*
X151904762Y-104727200D01*
X151904762Y-104727200D02*
X151809524Y-104631961D01*
X151809524Y-104631961D02*
X151761905Y-104536723D01*
X151761905Y-104536723D02*
X151714286Y-104346247D01*
X151714286Y-104346247D02*
X151714286Y-104203390D01*
X151714286Y-104203390D02*
X151761905Y-104012914D01*
X151761905Y-104012914D02*
X151809524Y-103917676D01*
X151809524Y-103917676D02*
X151904762Y-103822438D01*
X151904762Y-103822438D02*
X152047619Y-103774819D01*
X152047619Y-103774819D02*
X152142857Y-103774819D01*
X152142857Y-103774819D02*
X152285714Y-103822438D01*
X152285714Y-103822438D02*
X152333333Y-103870057D01*
X153190476Y-104108152D02*
X153190476Y-104774819D01*
X152952381Y-103727200D02*
X152714286Y-104441485D01*
X152714286Y-104441485D02*
X153333333Y-104441485D01*
X119659483Y-100913079D02*
X119611864Y-100960699D01*
X119611864Y-100960699D02*
X119469007Y-101008318D01*
X119469007Y-101008318D02*
X119373769Y-101008318D01*
X119373769Y-101008318D02*
X119230912Y-100960699D01*
X119230912Y-100960699D02*
X119135674Y-100865460D01*
X119135674Y-100865460D02*
X119088055Y-100770222D01*
X119088055Y-100770222D02*
X119040436Y-100579746D01*
X119040436Y-100579746D02*
X119040436Y-100436889D01*
X119040436Y-100436889D02*
X119088055Y-100246413D01*
X119088055Y-100246413D02*
X119135674Y-100151175D01*
X119135674Y-100151175D02*
X119230912Y-100055937D01*
X119230912Y-100055937D02*
X119373769Y-100008318D01*
X119373769Y-100008318D02*
X119469007Y-100008318D01*
X119469007Y-100008318D02*
X119611864Y-100055937D01*
X119611864Y-100055937D02*
X119659483Y-100103556D01*
X119992817Y-100008318D02*
X120611864Y-100008318D01*
X120611864Y-100008318D02*
X120278531Y-100389270D01*
X120278531Y-100389270D02*
X120421388Y-100389270D01*
X120421388Y-100389270D02*
X120516626Y-100436889D01*
X120516626Y-100436889D02*
X120564245Y-100484508D01*
X120564245Y-100484508D02*
X120611864Y-100579746D01*
X120611864Y-100579746D02*
X120611864Y-100817841D01*
X120611864Y-100817841D02*
X120564245Y-100913079D01*
X120564245Y-100913079D02*
X120516626Y-100960699D01*
X120516626Y-100960699D02*
X120421388Y-101008318D01*
X120421388Y-101008318D02*
X120135674Y-101008318D01*
X120135674Y-101008318D02*
X120040436Y-100960699D01*
X120040436Y-100960699D02*
X119992817Y-100913079D01*
X124089483Y-106788318D02*
X123756150Y-106312127D01*
X123518055Y-106788318D02*
X123518055Y-105788318D01*
X123518055Y-105788318D02*
X123899007Y-105788318D01*
X123899007Y-105788318D02*
X123994245Y-105835937D01*
X123994245Y-105835937D02*
X124041864Y-105883556D01*
X124041864Y-105883556D02*
X124089483Y-105978794D01*
X124089483Y-105978794D02*
X124089483Y-106121651D01*
X124089483Y-106121651D02*
X124041864Y-106216889D01*
X124041864Y-106216889D02*
X123994245Y-106264508D01*
X123994245Y-106264508D02*
X123899007Y-106312127D01*
X123899007Y-106312127D02*
X123518055Y-106312127D01*
X124946626Y-105788318D02*
X124756150Y-105788318D01*
X124756150Y-105788318D02*
X124660912Y-105835937D01*
X124660912Y-105835937D02*
X124613293Y-105883556D01*
X124613293Y-105883556D02*
X124518055Y-106026413D01*
X124518055Y-106026413D02*
X124470436Y-106216889D01*
X124470436Y-106216889D02*
X124470436Y-106597841D01*
X124470436Y-106597841D02*
X124518055Y-106693079D01*
X124518055Y-106693079D02*
X124565674Y-106740699D01*
X124565674Y-106740699D02*
X124660912Y-106788318D01*
X124660912Y-106788318D02*
X124851388Y-106788318D01*
X124851388Y-106788318D02*
X124946626Y-106740699D01*
X124946626Y-106740699D02*
X124994245Y-106693079D01*
X124994245Y-106693079D02*
X125041864Y-106597841D01*
X125041864Y-106597841D02*
X125041864Y-106359746D01*
X125041864Y-106359746D02*
X124994245Y-106264508D01*
X124994245Y-106264508D02*
X124946626Y-106216889D01*
X124946626Y-106216889D02*
X124851388Y-106169270D01*
X124851388Y-106169270D02*
X124660912Y-106169270D01*
X124660912Y-106169270D02*
X124565674Y-106216889D01*
X124565674Y-106216889D02*
X124518055Y-106264508D01*
X124518055Y-106264508D02*
X124470436Y-106359746D01*
X112843055Y-113138318D02*
X112843055Y-112138318D01*
X112843055Y-112138318D02*
X113081150Y-112138318D01*
X113081150Y-112138318D02*
X113224007Y-112185937D01*
X113224007Y-112185937D02*
X113319245Y-112281175D01*
X113319245Y-112281175D02*
X113366864Y-112376413D01*
X113366864Y-112376413D02*
X113414483Y-112566889D01*
X113414483Y-112566889D02*
X113414483Y-112709746D01*
X113414483Y-112709746D02*
X113366864Y-112900222D01*
X113366864Y-112900222D02*
X113319245Y-112995460D01*
X113319245Y-112995460D02*
X113224007Y-113090699D01*
X113224007Y-113090699D02*
X113081150Y-113138318D01*
X113081150Y-113138318D02*
X112843055Y-113138318D01*
X114319245Y-112138318D02*
X113843055Y-112138318D01*
X113843055Y-112138318D02*
X113795436Y-112614508D01*
X113795436Y-112614508D02*
X113843055Y-112566889D01*
X113843055Y-112566889D02*
X113938293Y-112519270D01*
X113938293Y-112519270D02*
X114176388Y-112519270D01*
X114176388Y-112519270D02*
X114271626Y-112566889D01*
X114271626Y-112566889D02*
X114319245Y-112614508D01*
X114319245Y-112614508D02*
X114366864Y-112709746D01*
X114366864Y-112709746D02*
X114366864Y-112947841D01*
X114366864Y-112947841D02*
X114319245Y-113043079D01*
X114319245Y-113043079D02*
X114271626Y-113090699D01*
X114271626Y-113090699D02*
X114176388Y-113138318D01*
X114176388Y-113138318D02*
X113938293Y-113138318D01*
X113938293Y-113138318D02*
X113843055Y-113090699D01*
X113843055Y-113090699D02*
X113795436Y-113043079D01*
X119383333Y-105179580D02*
X119335714Y-105227200D01*
X119335714Y-105227200D02*
X119192857Y-105274819D01*
X119192857Y-105274819D02*
X119097619Y-105274819D01*
X119097619Y-105274819D02*
X118954762Y-105227200D01*
X118954762Y-105227200D02*
X118859524Y-105131961D01*
X118859524Y-105131961D02*
X118811905Y-105036723D01*
X118811905Y-105036723D02*
X118764286Y-104846247D01*
X118764286Y-104846247D02*
X118764286Y-104703390D01*
X118764286Y-104703390D02*
X118811905Y-104512914D01*
X118811905Y-104512914D02*
X118859524Y-104417676D01*
X118859524Y-104417676D02*
X118954762Y-104322438D01*
X118954762Y-104322438D02*
X119097619Y-104274819D01*
X119097619Y-104274819D02*
X119192857Y-104274819D01*
X119192857Y-104274819D02*
X119335714Y-104322438D01*
X119335714Y-104322438D02*
X119383333Y-104370057D01*
X120240476Y-104274819D02*
X120050000Y-104274819D01*
X120050000Y-104274819D02*
X119954762Y-104322438D01*
X119954762Y-104322438D02*
X119907143Y-104370057D01*
X119907143Y-104370057D02*
X119811905Y-104512914D01*
X119811905Y-104512914D02*
X119764286Y-104703390D01*
X119764286Y-104703390D02*
X119764286Y-105084342D01*
X119764286Y-105084342D02*
X119811905Y-105179580D01*
X119811905Y-105179580D02*
X119859524Y-105227200D01*
X119859524Y-105227200D02*
X119954762Y-105274819D01*
X119954762Y-105274819D02*
X120145238Y-105274819D01*
X120145238Y-105274819D02*
X120240476Y-105227200D01*
X120240476Y-105227200D02*
X120288095Y-105179580D01*
X120288095Y-105179580D02*
X120335714Y-105084342D01*
X120335714Y-105084342D02*
X120335714Y-104846247D01*
X120335714Y-104846247D02*
X120288095Y-104751009D01*
X120288095Y-104751009D02*
X120240476Y-104703390D01*
X120240476Y-104703390D02*
X120145238Y-104655771D01*
X120145238Y-104655771D02*
X119954762Y-104655771D01*
X119954762Y-104655771D02*
X119859524Y-104703390D01*
X119859524Y-104703390D02*
X119811905Y-104751009D01*
X119811905Y-104751009D02*
X119764286Y-104846247D01*
X119659483Y-116179580D02*
X119611864Y-116227200D01*
X119611864Y-116227200D02*
X119469007Y-116274819D01*
X119469007Y-116274819D02*
X119373769Y-116274819D01*
X119373769Y-116274819D02*
X119230912Y-116227200D01*
X119230912Y-116227200D02*
X119135674Y-116131961D01*
X119135674Y-116131961D02*
X119088055Y-116036723D01*
X119088055Y-116036723D02*
X119040436Y-115846247D01*
X119040436Y-115846247D02*
X119040436Y-115703390D01*
X119040436Y-115703390D02*
X119088055Y-115512914D01*
X119088055Y-115512914D02*
X119135674Y-115417676D01*
X119135674Y-115417676D02*
X119230912Y-115322438D01*
X119230912Y-115322438D02*
X119373769Y-115274819D01*
X119373769Y-115274819D02*
X119469007Y-115274819D01*
X119469007Y-115274819D02*
X119611864Y-115322438D01*
X119611864Y-115322438D02*
X119659483Y-115370057D01*
X119992817Y-115274819D02*
X120659483Y-115274819D01*
X120659483Y-115274819D02*
X120230912Y-116274819D01*
X134666666Y-116764819D02*
X134666666Y-117479104D01*
X134666666Y-117479104D02*
X134619047Y-117621961D01*
X134619047Y-117621961D02*
X134523809Y-117717200D01*
X134523809Y-117717200D02*
X134380952Y-117764819D01*
X134380952Y-117764819D02*
X134285714Y-117764819D01*
X135095238Y-116860057D02*
X135142857Y-116812438D01*
X135142857Y-116812438D02*
X135238095Y-116764819D01*
X135238095Y-116764819D02*
X135476190Y-116764819D01*
X135476190Y-116764819D02*
X135571428Y-116812438D01*
X135571428Y-116812438D02*
X135619047Y-116860057D01*
X135619047Y-116860057D02*
X135666666Y-116955295D01*
X135666666Y-116955295D02*
X135666666Y-117050533D01*
X135666666Y-117050533D02*
X135619047Y-117193390D01*
X135619047Y-117193390D02*
X135047619Y-117764819D01*
X135047619Y-117764819D02*
X135666666Y-117764819D01*
X124089483Y-108804819D02*
X123756150Y-108328628D01*
X123518055Y-108804819D02*
X123518055Y-107804819D01*
X123518055Y-107804819D02*
X123899007Y-107804819D01*
X123899007Y-107804819D02*
X123994245Y-107852438D01*
X123994245Y-107852438D02*
X124041864Y-107900057D01*
X124041864Y-107900057D02*
X124089483Y-107995295D01*
X124089483Y-107995295D02*
X124089483Y-108138152D01*
X124089483Y-108138152D02*
X124041864Y-108233390D01*
X124041864Y-108233390D02*
X123994245Y-108281009D01*
X123994245Y-108281009D02*
X123899007Y-108328628D01*
X123899007Y-108328628D02*
X123518055Y-108328628D01*
X124422817Y-107804819D02*
X125089483Y-107804819D01*
X125089483Y-107804819D02*
X124660912Y-108804819D01*
X124089483Y-100888318D02*
X123756150Y-100412127D01*
X123518055Y-100888318D02*
X123518055Y-99888318D01*
X123518055Y-99888318D02*
X123899007Y-99888318D01*
X123899007Y-99888318D02*
X123994245Y-99935937D01*
X123994245Y-99935937D02*
X124041864Y-99983556D01*
X124041864Y-99983556D02*
X124089483Y-100078794D01*
X124089483Y-100078794D02*
X124089483Y-100221651D01*
X124089483Y-100221651D02*
X124041864Y-100316889D01*
X124041864Y-100316889D02*
X123994245Y-100364508D01*
X123994245Y-100364508D02*
X123899007Y-100412127D01*
X123899007Y-100412127D02*
X123518055Y-100412127D01*
X124946626Y-100221651D02*
X124946626Y-100888318D01*
X124708531Y-99840699D02*
X124470436Y-100554984D01*
X124470436Y-100554984D02*
X125089483Y-100554984D01*
X154833333Y-107004819D02*
X154357143Y-107004819D01*
X154357143Y-107004819D02*
X154357143Y-106004819D01*
X155690476Y-107004819D02*
X155119048Y-107004819D01*
X155404762Y-107004819D02*
X155404762Y-106004819D01*
X155404762Y-106004819D02*
X155309524Y-106147676D01*
X155309524Y-106147676D02*
X155214286Y-106242914D01*
X155214286Y-106242914D02*
X155119048Y-106290533D01*
D11*
X104517415Y-59436632D02*
X108326939Y-59436632D01*
X106422177Y-61341394D02*
X106422177Y-57531870D01*
D10*
X112843055Y-94938318D02*
X112843055Y-93938318D01*
X112843055Y-93938318D02*
X113081150Y-93938318D01*
X113081150Y-93938318D02*
X113224007Y-93985937D01*
X113224007Y-93985937D02*
X113319245Y-94081175D01*
X113319245Y-94081175D02*
X113366864Y-94176413D01*
X113366864Y-94176413D02*
X113414483Y-94366889D01*
X113414483Y-94366889D02*
X113414483Y-94509746D01*
X113414483Y-94509746D02*
X113366864Y-94700222D01*
X113366864Y-94700222D02*
X113319245Y-94795460D01*
X113319245Y-94795460D02*
X113224007Y-94890699D01*
X113224007Y-94890699D02*
X113081150Y-94938318D01*
X113081150Y-94938318D02*
X112843055Y-94938318D01*
X114366864Y-94938318D02*
X113795436Y-94938318D01*
X114081150Y-94938318D02*
X114081150Y-93938318D01*
X114081150Y-93938318D02*
X113985912Y-94081175D01*
X113985912Y-94081175D02*
X113890674Y-94176413D01*
X113890674Y-94176413D02*
X113795436Y-94224032D01*
X144738095Y-103054819D02*
X144738095Y-103864342D01*
X144738095Y-103864342D02*
X144785714Y-103959580D01*
X144785714Y-103959580D02*
X144833333Y-104007200D01*
X144833333Y-104007200D02*
X144928571Y-104054819D01*
X144928571Y-104054819D02*
X145119047Y-104054819D01*
X145119047Y-104054819D02*
X145214285Y-104007200D01*
X145214285Y-104007200D02*
X145261904Y-103959580D01*
X145261904Y-103959580D02*
X145309523Y-103864342D01*
X145309523Y-103864342D02*
X145309523Y-103054819D01*
X145690476Y-103054819D02*
X146309523Y-103054819D01*
X146309523Y-103054819D02*
X145976190Y-103435771D01*
X145976190Y-103435771D02*
X146119047Y-103435771D01*
X146119047Y-103435771D02*
X146214285Y-103483390D01*
X146214285Y-103483390D02*
X146261904Y-103531009D01*
X146261904Y-103531009D02*
X146309523Y-103626247D01*
X146309523Y-103626247D02*
X146309523Y-103864342D01*
X146309523Y-103864342D02*
X146261904Y-103959580D01*
X146261904Y-103959580D02*
X146214285Y-104007200D01*
X146214285Y-104007200D02*
X146119047Y-104054819D01*
X146119047Y-104054819D02*
X145833333Y-104054819D01*
X145833333Y-104054819D02*
X145738095Y-104007200D01*
X145738095Y-104007200D02*
X145690476Y-103959580D01*
X119659483Y-103179580D02*
X119611864Y-103227200D01*
X119611864Y-103227200D02*
X119469007Y-103274819D01*
X119469007Y-103274819D02*
X119373769Y-103274819D01*
X119373769Y-103274819D02*
X119230912Y-103227200D01*
X119230912Y-103227200D02*
X119135674Y-103131961D01*
X119135674Y-103131961D02*
X119088055Y-103036723D01*
X119088055Y-103036723D02*
X119040436Y-102846247D01*
X119040436Y-102846247D02*
X119040436Y-102703390D01*
X119040436Y-102703390D02*
X119088055Y-102512914D01*
X119088055Y-102512914D02*
X119135674Y-102417676D01*
X119135674Y-102417676D02*
X119230912Y-102322438D01*
X119230912Y-102322438D02*
X119373769Y-102274819D01*
X119373769Y-102274819D02*
X119469007Y-102274819D01*
X119469007Y-102274819D02*
X119611864Y-102322438D01*
X119611864Y-102322438D02*
X119659483Y-102370057D01*
X120564245Y-102274819D02*
X120088055Y-102274819D01*
X120088055Y-102274819D02*
X120040436Y-102751009D01*
X120040436Y-102751009D02*
X120088055Y-102703390D01*
X120088055Y-102703390D02*
X120183293Y-102655771D01*
X120183293Y-102655771D02*
X120421388Y-102655771D01*
X120421388Y-102655771D02*
X120516626Y-102703390D01*
X120516626Y-102703390D02*
X120564245Y-102751009D01*
X120564245Y-102751009D02*
X120611864Y-102846247D01*
X120611864Y-102846247D02*
X120611864Y-103084342D01*
X120611864Y-103084342D02*
X120564245Y-103179580D01*
X120564245Y-103179580D02*
X120516626Y-103227200D01*
X120516626Y-103227200D02*
X120421388Y-103274819D01*
X120421388Y-103274819D02*
X120183293Y-103274819D01*
X120183293Y-103274819D02*
X120088055Y-103227200D01*
X120088055Y-103227200D02*
X120040436Y-103179580D01*
X112843055Y-99488318D02*
X112843055Y-98488318D01*
X112843055Y-98488318D02*
X113081150Y-98488318D01*
X113081150Y-98488318D02*
X113224007Y-98535937D01*
X113224007Y-98535937D02*
X113319245Y-98631175D01*
X113319245Y-98631175D02*
X113366864Y-98726413D01*
X113366864Y-98726413D02*
X113414483Y-98916889D01*
X113414483Y-98916889D02*
X113414483Y-99059746D01*
X113414483Y-99059746D02*
X113366864Y-99250222D01*
X113366864Y-99250222D02*
X113319245Y-99345460D01*
X113319245Y-99345460D02*
X113224007Y-99440699D01*
X113224007Y-99440699D02*
X113081150Y-99488318D01*
X113081150Y-99488318D02*
X112843055Y-99488318D01*
X113795436Y-98583556D02*
X113843055Y-98535937D01*
X113843055Y-98535937D02*
X113938293Y-98488318D01*
X113938293Y-98488318D02*
X114176388Y-98488318D01*
X114176388Y-98488318D02*
X114271626Y-98535937D01*
X114271626Y-98535937D02*
X114319245Y-98583556D01*
X114319245Y-98583556D02*
X114366864Y-98678794D01*
X114366864Y-98678794D02*
X114366864Y-98774032D01*
X114366864Y-98774032D02*
X114319245Y-98916889D01*
X114319245Y-98916889D02*
X113747817Y-99488318D01*
X113747817Y-99488318D02*
X114366864Y-99488318D01*
X146474245Y-98788318D02*
X146474245Y-99597841D01*
X146474245Y-99597841D02*
X146521864Y-99693079D01*
X146521864Y-99693079D02*
X146569483Y-99740699D01*
X146569483Y-99740699D02*
X146664721Y-99788318D01*
X146664721Y-99788318D02*
X146855197Y-99788318D01*
X146855197Y-99788318D02*
X146950435Y-99740699D01*
X146950435Y-99740699D02*
X146998054Y-99693079D01*
X146998054Y-99693079D02*
X147045673Y-99597841D01*
X147045673Y-99597841D02*
X147045673Y-98788318D01*
X147474245Y-98883556D02*
X147521864Y-98835937D01*
X147521864Y-98835937D02*
X147617102Y-98788318D01*
X147617102Y-98788318D02*
X147855197Y-98788318D01*
X147855197Y-98788318D02*
X147950435Y-98835937D01*
X147950435Y-98835937D02*
X147998054Y-98883556D01*
X147998054Y-98883556D02*
X148045673Y-98978794D01*
X148045673Y-98978794D02*
X148045673Y-99074032D01*
X148045673Y-99074032D02*
X147998054Y-99216889D01*
X147998054Y-99216889D02*
X147426626Y-99788318D01*
X147426626Y-99788318D02*
X148045673Y-99788318D01*
X119659483Y-97903079D02*
X119611864Y-97950699D01*
X119611864Y-97950699D02*
X119469007Y-97998318D01*
X119469007Y-97998318D02*
X119373769Y-97998318D01*
X119373769Y-97998318D02*
X119230912Y-97950699D01*
X119230912Y-97950699D02*
X119135674Y-97855460D01*
X119135674Y-97855460D02*
X119088055Y-97760222D01*
X119088055Y-97760222D02*
X119040436Y-97569746D01*
X119040436Y-97569746D02*
X119040436Y-97426889D01*
X119040436Y-97426889D02*
X119088055Y-97236413D01*
X119088055Y-97236413D02*
X119135674Y-97141175D01*
X119135674Y-97141175D02*
X119230912Y-97045937D01*
X119230912Y-97045937D02*
X119373769Y-96998318D01*
X119373769Y-96998318D02*
X119469007Y-96998318D01*
X119469007Y-96998318D02*
X119611864Y-97045937D01*
X119611864Y-97045937D02*
X119659483Y-97093556D01*
X120040436Y-97093556D02*
X120088055Y-97045937D01*
X120088055Y-97045937D02*
X120183293Y-96998318D01*
X120183293Y-96998318D02*
X120421388Y-96998318D01*
X120421388Y-96998318D02*
X120516626Y-97045937D01*
X120516626Y-97045937D02*
X120564245Y-97093556D01*
X120564245Y-97093556D02*
X120611864Y-97188794D01*
X120611864Y-97188794D02*
X120611864Y-97284032D01*
X120611864Y-97284032D02*
X120564245Y-97426889D01*
X120564245Y-97426889D02*
X119992817Y-97998318D01*
X119992817Y-97998318D02*
X120611864Y-97998318D01*
X164064911Y-97600056D02*
X163969673Y-97552437D01*
X163969673Y-97552437D02*
X163874435Y-97457199D01*
X163874435Y-97457199D02*
X163731578Y-97314341D01*
X163731578Y-97314341D02*
X163636340Y-97266722D01*
X163636340Y-97266722D02*
X163541102Y-97266722D01*
X163588721Y-97504818D02*
X163493483Y-97457199D01*
X163493483Y-97457199D02*
X163398245Y-97361960D01*
X163398245Y-97361960D02*
X163350626Y-97171484D01*
X163350626Y-97171484D02*
X163350626Y-96838151D01*
X163350626Y-96838151D02*
X163398245Y-96647675D01*
X163398245Y-96647675D02*
X163493483Y-96552437D01*
X163493483Y-96552437D02*
X163588721Y-96504818D01*
X163588721Y-96504818D02*
X163779197Y-96504818D01*
X163779197Y-96504818D02*
X163874435Y-96552437D01*
X163874435Y-96552437D02*
X163969673Y-96647675D01*
X163969673Y-96647675D02*
X164017292Y-96838151D01*
X164017292Y-96838151D02*
X164017292Y-97171484D01*
X164017292Y-97171484D02*
X163969673Y-97361960D01*
X163969673Y-97361960D02*
X163874435Y-97457199D01*
X163874435Y-97457199D02*
X163779197Y-97504818D01*
X163779197Y-97504818D02*
X163588721Y-97504818D01*
X164969673Y-97504818D02*
X164398245Y-97504818D01*
X164683959Y-97504818D02*
X164683959Y-96504818D01*
X164683959Y-96504818D02*
X164588721Y-96647675D01*
X164588721Y-96647675D02*
X164493483Y-96742913D01*
X164493483Y-96742913D02*
X164398245Y-96790532D01*
X162566300Y-93853018D02*
X162566300Y-94091113D01*
X162328205Y-93995875D02*
X162566300Y-94091113D01*
X162566300Y-94091113D02*
X162804395Y-93995875D01*
X162423443Y-94281589D02*
X162566300Y-94091113D01*
X162566300Y-94091113D02*
X162709157Y-94281589D01*
X162566300Y-93853018D02*
X162566300Y-94091113D01*
X162328205Y-93995875D02*
X162566300Y-94091113D01*
X162566300Y-94091113D02*
X162804395Y-93995875D01*
X162423443Y-94281589D02*
X162566300Y-94091113D01*
X162566300Y-94091113D02*
X162709157Y-94281589D01*
X124089483Y-103838318D02*
X123756150Y-103362127D01*
X123518055Y-103838318D02*
X123518055Y-102838318D01*
X123518055Y-102838318D02*
X123899007Y-102838318D01*
X123899007Y-102838318D02*
X123994245Y-102885937D01*
X123994245Y-102885937D02*
X124041864Y-102933556D01*
X124041864Y-102933556D02*
X124089483Y-103028794D01*
X124089483Y-103028794D02*
X124089483Y-103171651D01*
X124089483Y-103171651D02*
X124041864Y-103266889D01*
X124041864Y-103266889D02*
X123994245Y-103314508D01*
X123994245Y-103314508D02*
X123899007Y-103362127D01*
X123899007Y-103362127D02*
X123518055Y-103362127D01*
X124994245Y-102838318D02*
X124518055Y-102838318D01*
X124518055Y-102838318D02*
X124470436Y-103314508D01*
X124470436Y-103314508D02*
X124518055Y-103266889D01*
X124518055Y-103266889D02*
X124613293Y-103219270D01*
X124613293Y-103219270D02*
X124851388Y-103219270D01*
X124851388Y-103219270D02*
X124946626Y-103266889D01*
X124946626Y-103266889D02*
X124994245Y-103314508D01*
X124994245Y-103314508D02*
X125041864Y-103409746D01*
X125041864Y-103409746D02*
X125041864Y-103647841D01*
X125041864Y-103647841D02*
X124994245Y-103743079D01*
X124994245Y-103743079D02*
X124946626Y-103790699D01*
X124946626Y-103790699D02*
X124851388Y-103838318D01*
X124851388Y-103838318D02*
X124613293Y-103838318D01*
X124613293Y-103838318D02*
X124518055Y-103790699D01*
X124518055Y-103790699D02*
X124470436Y-103743079D01*
X158666666Y-123309819D02*
X158666666Y-124024104D01*
X158666666Y-124024104D02*
X158619047Y-124166961D01*
X158619047Y-124166961D02*
X158523809Y-124262200D01*
X158523809Y-124262200D02*
X158380952Y-124309819D01*
X158380952Y-124309819D02*
X158285714Y-124309819D01*
X159666666Y-124309819D02*
X159095238Y-124309819D01*
X159380952Y-124309819D02*
X159380952Y-123309819D01*
X159380952Y-123309819D02*
X159285714Y-123452676D01*
X159285714Y-123452676D02*
X159190476Y-123547914D01*
X159190476Y-123547914D02*
X159095238Y-123595533D01*
D12*
%TO.C,R8*%
X124029086Y-117265000D02*
X124483214Y-117265000D01*
X124029086Y-118735000D02*
X124483214Y-118735000D01*
%TO.C,R1*%
X124029086Y-95448499D02*
X124483214Y-95448499D01*
X124029086Y-96918499D02*
X124483214Y-96918499D01*
%TO.C,R3*%
X124029086Y-98398499D02*
X124483214Y-98398499D01*
X124029086Y-99868499D02*
X124483214Y-99868499D01*
%TO.C,C1*%
X119564898Y-95478499D02*
X120087402Y-95478499D01*
X119564898Y-96948499D02*
X120087402Y-96948499D01*
%TO.C,D4*%
X110071150Y-108983499D02*
X110071150Y-112283499D01*
X110071150Y-108983499D02*
X115581150Y-108983499D01*
X110071150Y-112283499D02*
X115581150Y-112283499D01*
%TO.C,D3*%
X110071150Y-104433499D02*
X110071150Y-107733499D01*
X110071150Y-104433499D02*
X115581150Y-104433499D01*
X110071150Y-107733499D02*
X115581150Y-107733499D01*
%TO.C,U1*%
X162500000Y-100940000D02*
X161700000Y-100940000D01*
X162500000Y-100940000D02*
X163300000Y-100940000D01*
X162500000Y-104060000D02*
X161700000Y-104060000D01*
X162500000Y-104060000D02*
X163300000Y-104060000D01*
X161200000Y-100990000D02*
X160960000Y-100660000D01*
X161440000Y-100660000D01*
X161200000Y-100990000D01*
G36*
X161200000Y-100990000D02*
G01*
X160960000Y-100660000D01*
X161440000Y-100660000D01*
X161200000Y-100990000D01*
G37*
%TO.C,C4*%
X152238748Y-105265000D02*
X152761252Y-105265000D01*
X152238748Y-106735000D02*
X152761252Y-106735000D01*
%TO.C,C3*%
X119564898Y-101498499D02*
X120087402Y-101498499D01*
X119564898Y-102968499D02*
X120087402Y-102968499D01*
%TO.C,R6*%
X124029086Y-107248499D02*
X124483214Y-107248499D01*
X124029086Y-108718499D02*
X124483214Y-108718499D01*
%TO.C,D5*%
X110071150Y-113533499D02*
X110071150Y-116833499D01*
X110071150Y-113533499D02*
X115581150Y-113533499D01*
X110071150Y-116833499D02*
X115581150Y-116833499D01*
%TO.C,C6*%
X119288748Y-105765000D02*
X119811252Y-105765000D01*
X119288748Y-107235000D02*
X119811252Y-107235000D01*
%TO.C,C7*%
X119564898Y-116765000D02*
X120087402Y-116765000D01*
X119564898Y-118235000D02*
X120087402Y-118235000D01*
%TO.C,J2*%
X127690000Y-133080000D02*
X127690000Y-133600000D01*
X127690000Y-133600000D02*
X142310000Y-133600000D01*
X128340000Y-118120000D02*
X128340000Y-121450000D01*
X128340000Y-118120000D02*
X141660000Y-118120000D01*
X128340000Y-133080000D02*
X127690000Y-133080000D01*
X128340000Y-133080000D02*
X128340000Y-124970000D01*
X130600000Y-117900000D02*
X132400000Y-117900000D01*
X141660000Y-118120000D02*
X141660000Y-121450000D01*
X141660000Y-124970000D02*
X141660000Y-133080000D01*
X142310000Y-133080000D02*
X141660000Y-133080000D01*
X142310000Y-133600000D02*
X142310000Y-133080000D01*
%TO.C,R7*%
X124029086Y-109265000D02*
X124483214Y-109265000D01*
X124029086Y-110735000D02*
X124483214Y-110735000D01*
%TO.C,R4*%
X124029086Y-101348499D02*
X124483214Y-101348499D01*
X124029086Y-102818499D02*
X124483214Y-102818499D01*
%TO.C,L1*%
X151300000Y-107300000D02*
X158700000Y-107300000D01*
X151300000Y-109600000D02*
X151300000Y-107300000D01*
X151300000Y-114700000D02*
X151300000Y-112400000D01*
X158700000Y-107300000D02*
X158700000Y-109600000D01*
X158700000Y-112400000D02*
X158700000Y-114700000D01*
X158700000Y-114700000D02*
X151300000Y-114700000D01*
D11*
%TO.C,BT1*%
X110261150Y-93958499D02*
X110261150Y-33958499D01*
X190261150Y-33958499D02*
X110261150Y-33958499D01*
X190261150Y-93958499D02*
X110261150Y-93958499D01*
X190261150Y-93958499D02*
X190261150Y-33958499D01*
D12*
%TO.C,D1*%
X110071150Y-95333499D02*
X110071150Y-98633499D01*
X110071150Y-95333499D02*
X115581150Y-95333499D01*
X110071150Y-98633499D02*
X115581150Y-98633499D01*
%TO.C,U3*%
X145500000Y-104440000D02*
X144700000Y-104440000D01*
X145500000Y-104440000D02*
X146300000Y-104440000D01*
X145500000Y-107560000D02*
X144700000Y-107560000D01*
X145500000Y-107560000D02*
X146300000Y-107560000D01*
X144200000Y-104490000D02*
X143960000Y-104160000D01*
X144440000Y-104160000D01*
X144200000Y-104490000D01*
G36*
X144200000Y-104490000D02*
G01*
X143960000Y-104160000D01*
X144440000Y-104160000D01*
X144200000Y-104490000D01*
G37*
%TO.C,C5*%
X119564898Y-103765000D02*
X120087402Y-103765000D01*
X119564898Y-105235000D02*
X120087402Y-105235000D01*
%TO.C,D2*%
X110071150Y-99883499D02*
X110071150Y-103183499D01*
X110071150Y-99883499D02*
X115581150Y-99883499D01*
X110071150Y-103183499D02*
X115581150Y-103183499D01*
%TO.C,U2*%
X147236150Y-100173499D02*
X146436150Y-100173499D01*
X147236150Y-100173499D02*
X148036150Y-100173499D01*
X147236150Y-103293499D02*
X146436150Y-103293499D01*
X147236150Y-103293499D02*
X148036150Y-103293499D01*
X145936150Y-100223499D02*
X145696150Y-99893499D01*
X146176150Y-99893499D01*
X145936150Y-100223499D01*
G36*
X145936150Y-100223499D02*
G01*
X145696150Y-99893499D01*
X146176150Y-99893499D01*
X145936150Y-100223499D01*
G37*
%TO.C,C2*%
X119564898Y-98488499D02*
X120087402Y-98488499D01*
X119564898Y-99958499D02*
X120087402Y-99958499D01*
D13*
%TO.C,Q1*%
X163182250Y-98688299D02*
X165138050Y-98688299D01*
X165138050Y-95411699D02*
X163182250Y-95411699D01*
D12*
%TO.C,R5*%
X124029086Y-104298499D02*
X124483214Y-104298499D01*
X124029086Y-105768499D02*
X124483214Y-105768499D01*
%TO.C,J1*%
X154300000Y-127600000D02*
X154300000Y-129600000D01*
X154300000Y-131500000D02*
X154300000Y-133400000D01*
X154300000Y-133400000D02*
X163700000Y-133400000D01*
X163700000Y-127600000D02*
X163700000Y-129600000D01*
X163700000Y-131500000D02*
X163700000Y-133400000D01*
%TD*%
M02*
